  0
SECTION
  2
HEADER
  9
$ACADVER
  1
AC1009
  9
$EXTMIN
 10
0.0
 20
0.0
 30
0.0
  9
$EXTMAX
 10
100.0
 20
100.0
 30
0.0
  9
$INSBASE
 10
0.0
 20
0.0
 30
0.0
  0
ENDSEC
  0
SECTION
  2
TABLES
  0
TABLE
  2
LTYPE
 70
19
  0
LTYPE
  2
PHANTOM
 70
0
  3
Phantom ______  __  __  ______  __  __  ______
 72
65
 73
6
 40
2.5
 49
1.25
 49
-0.25
 49
0.25
 49
-0.25
 49
0.25
 49
-0.25
  0
LTYPE
  2
DOT2
 70
0
  3
Dot (.5) . . . . . . . . . . . . . . . . . . . 
 72
65
 73
2
 40
0.1
 49
0.0
 49
-0.1
  0
LTYPE
  2
DIVIDE
 70
0
  3
Divide __ . . __ . . __ . . __ . . __ . . __
 72
65
 73
6
 40
1.6
 49
1.0
 49
-0.2
 49
0.0
 49
-0.2
 49
0.0
 49
-0.2
  0
LTYPE
  2
DIVIDEX2
 70
0
  3
Divide (2x) ____  . .  ____  . .  ____  . .  ____
 72
65
 73
6
 40
2.6
 49
2.0
 49
-0.2
 49
0.0
 49
-0.2
 49
0.0
 49
-0.2
  0
LTYPE
  2
CENTER
 70
0
  3
Center ____ _ ____ _ ____ _ ____ _ ____ _ ____
 72
65
 73
4
 40
2.0
 49
1.25
 49
-0.25
 49
0.25
 49
-0.25
  0
LTYPE
  2
DASHDOT
 70
0
  3
Dash dot __ . __ . __ . __ . __ . __ . __ . __
 72
65
 73
4
 40
1.4
 49
1.0
 49
-0.2
 49
0.0
 49
-0.2
  0
LTYPE
  2
CENTERX2
 70
0
  3
Center (2x) ________  __  ________  __  ________
 72
65
 73
4
 40
3.5
 49
2.5
 49
-0.25
 49
0.5
 49
-0.25
  0
LTYPE
  2
PHANTOMX2
 70
0
  3
Phantom (2x)____________    ____    ____    ____________
 72
65
 73
6
 40
4.25
 49
2.5
 49
-0.25
 49
0.5
 49
-0.25
 49
0.5
 49
-0.25
  0
LTYPE
  2
CONTINUOUS
 70
0
  3
Solid
 72
65
 73
0
 40
0.0
  0
LTYPE
  2
PHANTOM2
 70
0
  3
Phantom (.5x) ___ _ _ ___ _ _ ___ _ _ ___ _ _ ___
 72
65
 73
6
 40
1.25
 49
0.625
 49
-0.125
 49
0.125
 49
-0.125
 49
0.125
 49
-0.125
  0
LTYPE
  2
DASHED
 70
0
  3
Dashed __ __ __ __ __ __ __ __ __ __ __ __ __ _
 72
65
 73
2
 40
0.6
 49
0.5
 49
-0.1
  0
LTYPE
  2
DASHED2
 70
0
  3
Dashed (.5x) _ _ _ _ _ _ _ _ _ _ _ _ _ _
 72
65
 73
2
 40
0.3
 49
0.25
 49
-0.05
  0
LTYPE
  2
DASHDOT2
 70
0
  3
Dash dot (.5x) _ . _ . _ . _ . _ . _ . _ . _
 72
65
 73
4
 40
0.7
 49
0.5
 49
-0.1
 49
0.0
 49
-0.1
  0
LTYPE
  2
DOTX2
 70
0
  3
Dot (2x) .    .    .    .    .    .    .    . 
 72
65
 73
2
 40
0.4
 49
0.0
 49
-0.4
  0
LTYPE
  2
DIVIDE2
 70
0
  3
Divide(.5x) _ . _ . _ . _ . _ . _ . _ . _
 72
65
 73
6
 40
0.8
 49
0.5
 49
-0.1
 49
0.0
 49
-0.1
 49
0.0
 49
-0.1
  0
LTYPE
  2
CENTER2
 70
0
  3
Center (.5x) ____ _ ____ _ ____ _ ____ _ ____
 72
65
 73
4
 40
1.0
 49
0.625
 49
-0.125
 49
0.125
 49
-0.125
  0
LTYPE
  2
DASHDOTX2
 70
0
  3
Dash dot (2x) ____  .  ____  .  ____  .  ____
 72
65
 73
4
 40
2.4
 49
2.0
 49
-0.2
 49
0.0
 49
-0.2
  0
LTYPE
  2
DOT
 70
0
  3
Dot .  .  .  .  .  .  .  .  .  .  .  .  .  .  .  .
 72
65
 73
2
 40
0.2
 49
0.0
 49
-0.2
  0
LTYPE
  2
DASHEDX2
 70
0
  3
Dashed (2x) ____  ____  ____  ____  ____  ____
 72
65
 73
2
 40
1.2
 49
1.0
 49
-0.2
  0
ENDTAB
  0
TABLE
  2
LAYER
 70
8
  0
LAYER
  2
DIMENSIONS
 70
0
 62
1
  6
CONTINUOUS
  0
LAYER
  2
TABLECONTENT
 70
0
 62
1
  6
CONTINUOUS
  0
LAYER
  2
TABLEBACKGROUND
 70
0
 62
1
  6
CONTINUOUS
  0
LAYER
  2
footings_text
 70
0
 62
1
  6
CONTINUOUS
  0
LAYER
  2
TABLEGRID
 70
0
 62
1
  6
CONTINUOUS
  0
LAYER
  2
VIEWPORTS
 70
0
 62
7
  6
CONTINUOUS
  0
LAYER
  2
columns
 70
0
 62
1
  6
CONTINUOUS
  0
LAYER
  2
footings
 70
0
 62
1
  6
CONTINUOUS
  0
ENDTAB
  0
TABLE
  2
STYLE
 70
12
  0
STYLE
  2
TIMES
 70
0
 40
0.0
 41
1.0
 42
1.0
 50
0.0
 71
0
  3
times.ttf
  4

  0
STYLE
  2
ARIAL
 70
0
 40
0.0
 41
1.0
 42
1.0
 50
0.0
 71
0
  3
arial.ttf
  4

  0
STYLE
  2
TIMES_BOLD
 70
0
 40
0.0
 41
1.0
 42
1.0
 50
0.0
 71
0
  3
timesbd.ttf
  4

  0
STYLE
  2
ARIAL_BLACK
 70
0
 40
0.0
 41
1.0
 42
1.0
 50
0.0
 71
0
  3
ariblk.ttf
  4

  0
STYLE
  2
TIMES_ITALIC
 70
0
 40
0.0
 41
1.0
 42
1.0
 50
0.0
 71
0
  3
timesi.ttf
  4

  0
STYLE
  2
ISOCPEUR
 70
0
 40
0.0
 41
1.0
 42
1.0
 50
0.0
 71
0
  3
isocpeur.ttf
  4

  0
STYLE
  2
ARIAL_BOLD
 70
0
 40
0.0
 41
1.0
 42
1.0
 50
0.0
 71
0
  3
arialbd.ttf
  4

  0
STYLE
  2
ARIAL_ITALIC
 70
0
 40
0.0
 41
1.0
 42
1.0
 50
0.0
 71
0
  3
ariali.ttf
  4

  0
STYLE
  2
ARIAL_BOLD_ITALIC
 70
0
 40
0.0
 41
1.0
 42
1.0
 50
0.0
 71
0
  3
arialbi.ttf
  4

  0
STYLE
  2
TIMES_BOLD_ITALIC
 70
0
 40
0.0
 41
1.0
 42
1.0
 50
0.0
 71
0
  3
timesbi.ttf
  4

  0
STYLE
  2
ISOCPEUR_ITALIC
 70
0
 40
0.0
 41
1.0
 42
1.0
 50
0.0
 71
0
  3
isocpeui.ttf
  4

  0
STYLE
  2
STANDARD
 70
0
 40
0.0
 41
1.0
 42
1.0
 50
0.0
 71
0
  3
arial.ttf
  4

  0
ENDTAB
  0
TABLE
  2
VIEW
 70
0
  0
ENDTAB
  0
TABLE
  2
APPID
 70
1
  0
APPID
  2
DXFWRITE
 70
0
  0
ENDTAB
  0
TABLE
  2
VPORT
 70
0
  0
ENDTAB
  0
TABLE
  2
UCS
 70
0
  0
ENDTAB
  0
ENDSEC
  0
SECTION
  2
BLOCKS
  0
ENDSEC
  0
SECTION
  2
ENTITIES
  0
VIEWPORT
  8
VIEWPORTS
 67
1
 10
0.0
 20
0.0
 30
0.0
 40
1.0
 41
1.0
 68
1
 69
1
1001
ACAD
1000
MVIEW
1002
{
1070
16
1010
0.0
1020
0.0
1030
0.0
1010
0.0
1020
0.0
1030
0.0
1040
0.0
1040
1.0
1040
0.0
1040
0.0
1040
50.0
1040
0.0
1040
0.0
1070
0
1070
100
1070
1
1070
3
1070
0
1070
0
1070
0
1070
0
1040
0.0
1040
0.0
1040
0.0
1040
0.1
1040
0.1
1040
0.1
1040
0.1
1070
0
1002
{
1002
}
1002
}
  0
TEXT
 62
5
  8
footings_text
 10
6.346
 20
9.089
 30
0.0
 40
0.2
  1
A1
  0
TEXT
 62
5
  8
footings_text
 10
6.346
 20
8.589
 30
0.0
 40
0.1
  1
BxL(m)= 2.74x2.74 x T(m)= 0.508
  0
TEXT
 62
5
  8
footings_text
 10
6.346
 20
8.339
 30
0.0
 40
0.1
  1
BxL(feet)= 9.0x9.0 x T(inches)= 20.0
  0
POINT
 62
7
  8
footings
 10
6.096
 20
8.839
 30
0.0
  0
3DFACE
 62
7
  8
footings
 10
4.7244
 20
7.4674
 30
0.0
 11
7.4676
 21
7.4674
 31
0.0
 12
7.4676
 22
10.2106
 32
0.0
 13
4.7244
 23
10.2106
 33
0.0
  0
3DFACE
 62
1
  8
columns
 10
5.8928
 20
8.6358
 30
0.0
 11
6.2992
 21
8.6358
 31
0.0
 12
6.2992
 22
9.0422
 32
0.0
 13
5.8928
 23
9.0422
 33
0.0
  0
TEXT
 62
5
  8
footings_text
 10
6.346
 20
17.395
 30
0.0
 40
0.2
  1
A2
  0
TEXT
 62
5
  8
footings_text
 10
6.346
 20
16.895
 30
0.0
 40
0.1
  1
BxL(m)= 2.74x2.74 x T(m)= 0.508
  0
TEXT
 62
5
  8
footings_text
 10
6.346
 20
16.645
 30
0.0
 40
0.1
  1
BxL(feet)= 9.0x9.0 x T(inches)= 20.0
  0
POINT
 62
7
  8
footings
 10
6.096
 20
17.145
 30
0.0
  0
3DFACE
 62
7
  8
footings
 10
4.7244
 20
15.7734
 30
0.0
 11
7.4676
 21
15.7734
 31
0.0
 12
7.4676
 22
18.5166
 32
0.0
 13
4.7244
 23
18.5166
 33
0.0
  0
3DFACE
 62
1
  8
columns
 10
5.8928
 20
16.9418
 30
0.0
 11
6.2992
 21
16.9418
 31
0.0
 12
6.2992
 22
17.3482
 32
0.0
 13
5.8928
 23
17.3482
 33
0.0
  0
TEXT
 62
5
  8
footings_text
 10
6.346
 20
25.701
 30
0.0
 40
0.2
  1
A3
  0
TEXT
 62
5
  8
footings_text
 10
6.346
 20
25.201
 30
0.0
 40
0.1
  1
BxL(m)= 2.74x2.74 x T(m)= 0.508
  0
TEXT
 62
5
  8
footings_text
 10
6.346
 20
24.951
 30
0.0
 40
0.1
  1
BxL(feet)= 9.0x9.0 x T(inches)= 20.0
  0
POINT
 62
7
  8
footings
 10
6.096
 20
25.451
 30
0.0
  0
3DFACE
 62
7
  8
footings
 10
4.7244
 20
24.0794
 30
0.0
 11
7.4676
 21
24.0794
 31
0.0
 12
7.4676
 22
26.8226
 32
0.0
 13
4.7244
 23
26.8226
 33
0.0
  0
3DFACE
 62
1
  8
columns
 10
5.8928
 20
25.2478
 30
0.0
 11
6.2992
 21
25.2478
 31
0.0
 12
6.2992
 22
25.6542
 32
0.0
 13
5.8928
 23
25.6542
 33
0.0
  0
TEXT
 62
5
  8
footings_text
 10
6.346
 20
34.007
 30
0.0
 40
0.2
  1
A4
  0
TEXT
 62
5
  8
footings_text
 10
6.346
 20
33.507
 30
0.0
 40
0.1
  1
BxL(m)= 2.74x2.74 x T(m)= 0.508
  0
TEXT
 62
5
  8
footings_text
 10
6.346
 20
33.257
 30
0.0
 40
0.1
  1
BxL(feet)= 9.0x9.0 x T(inches)= 20.0
  0
POINT
 62
7
  8
footings
 10
6.096
 20
33.757
 30
0.0
  0
3DFACE
 62
7
  8
footings
 10
4.7244
 20
32.3854
 30
0.0
 11
7.4676
 21
32.3854
 31
0.0
 12
7.4676
 22
35.1286
 32
0.0
 13
4.7244
 23
35.1286
 33
0.0
  0
3DFACE
 62
1
  8
columns
 10
5.8928
 20
33.5538
 30
0.0
 11
6.2992
 21
33.5538
 31
0.0
 12
6.2992
 22
33.9602
 32
0.0
 13
5.8928
 23
33.9602
 33
0.0
  0
TEXT
 62
5
  8
footings_text
 10
6.346
 20
42.313
 30
0.0
 40
0.2
  1
A5
  0
TEXT
 62
5
  8
footings_text
 10
6.346
 20
41.813
 30
0.0
 40
0.1
  1
BxL(m)= 2.74x2.74 x T(m)= 0.508
  0
TEXT
 62
5
  8
footings_text
 10
6.346
 20
41.563
 30
0.0
 40
0.1
  1
BxL(feet)= 9.0x9.0 x T(inches)= 20.0
  0
POINT
 62
7
  8
footings
 10
6.096
 20
42.063
 30
0.0
  0
3DFACE
 62
7
  8
footings
 10
4.7244
 20
40.6914
 30
0.0
 11
7.4676
 21
40.6914
 31
0.0
 12
7.4676
 22
43.4346
 32
0.0
 13
4.7244
 23
43.4346
 33
0.0
  0
3DFACE
 62
1
  8
columns
 10
5.8928
 20
41.8598
 30
0.0
 11
6.2992
 21
41.8598
 31
0.0
 12
6.2992
 22
42.2662
 32
0.0
 13
5.8928
 23
42.2662
 33
0.0
  0
TEXT
 62
5
  8
footings_text
 10
14.2708
 20
9.089
 30
0.0
 40
0.2
  1
B1
  0
TEXT
 62
5
  8
footings_text
 10
14.2708
 20
8.589
 30
0.0
 40
0.1
  1
BxL(m)= 2.90x2.90 x T(m)= 0.508
  0
TEXT
 62
5
  8
footings_text
 10
14.2708
 20
8.339
 30
0.0
 40
0.1
  1
BxL(feet)= 9.5x9.5 x T(inches)= 20.0
  0
POINT
 62
7
  8
footings
 10
14.0208
 20
8.839
 30
0.0
  0
3DFACE
 62
7
  8
footings
 10
12.573
 20
7.3912
 30
0.0
 11
15.4686
 21
7.3912
 31
0.0
 12
15.4686
 22
10.2868
 32
0.0
 13
12.573
 23
10.2868
 33
0.0
  0
3DFACE
 62
1
  8
columns
 10
13.8176
 20
8.6358
 30
0.0
 11
14.224
 21
8.6358
 31
0.0
 12
14.224
 22
9.0422
 32
0.0
 13
13.8176
 23
9.0422
 33
0.0
  0
TEXT
 62
5
  8
footings_text
 10
14.2708
 20
17.395
 30
0.0
 40
0.2
  1
B2
  0
TEXT
 62
5
  8
footings_text
 10
14.2708
 20
16.895
 30
0.0
 40
0.1
  1
BxL(m)= 2.90x2.90 x T(m)= 0.508
  0
TEXT
 62
5
  8
footings_text
 10
14.2708
 20
16.645
 30
0.0
 40
0.1
  1
BxL(feet)= 9.5x9.5 x T(inches)= 20.0
  0
POINT
 62
7
  8
footings
 10
14.0208
 20
17.145
 30
0.0
  0
3DFACE
 62
7
  8
footings
 10
12.573
 20
15.6972
 30
0.0
 11
15.4686
 21
15.6972
 31
0.0
 12
15.4686
 22
18.5928
 32
0.0
 13
12.573
 23
18.5928
 33
0.0
  0
3DFACE
 62
1
  8
columns
 10
13.8176
 20
16.9418
 30
0.0
 11
14.224
 21
16.9418
 31
0.0
 12
14.224
 22
17.3482
 32
0.0
 13
13.8176
 23
17.3482
 33
0.0
  0
TEXT
 62
5
  8
footings_text
 10
14.2708
 20
25.701
 30
0.0
 40
0.2
  1
B3
  0
TEXT
 62
5
  8
footings_text
 10
14.2708
 20
25.201
 30
0.0
 40
0.1
  1
BxL(m)= 2.90x2.90 x T(m)= 0.508
  0
TEXT
 62
5
  8
footings_text
 10
14.2708
 20
24.951
 30
0.0
 40
0.1
  1
BxL(feet)= 9.5x9.5 x T(inches)= 20.0
  0
POINT
 62
7
  8
footings
 10
14.0208
 20
25.451
 30
0.0
  0
3DFACE
 62
7
  8
footings
 10
12.573
 20
24.0032
 30
0.0
 11
15.4686
 21
24.0032
 31
0.0
 12
15.4686
 22
26.8988
 32
0.0
 13
12.573
 23
26.8988
 33
0.0
  0
3DFACE
 62
1
  8
columns
 10
13.8176
 20
25.2478
 30
0.0
 11
14.224
 21
25.2478
 31
0.0
 12
14.224
 22
25.6542
 32
0.0
 13
13.8176
 23
25.6542
 33
0.0
  0
TEXT
 62
5
  8
footings_text
 10
14.2708
 20
34.007
 30
0.0
 40
0.2
  1
B4
  0
TEXT
 62
5
  8
footings_text
 10
14.2708
 20
33.507
 30
0.0
 40
0.1
  1
BxL(m)= 2.90x2.90 x T(m)= 0.508
  0
TEXT
 62
5
  8
footings_text
 10
14.2708
 20
33.257
 30
0.0
 40
0.1
  1
BxL(feet)= 9.5x9.5 x T(inches)= 20.0
  0
POINT
 62
7
  8
footings
 10
14.0208
 20
33.757
 30
0.0
  0
3DFACE
 62
7
  8
footings
 10
12.573
 20
32.3092
 30
0.0
 11
15.4686
 21
32.3092
 31
0.0
 12
15.4686
 22
35.2048
 32
0.0
 13
12.573
 23
35.2048
 33
0.0
  0
3DFACE
 62
1
  8
columns
 10
13.8176
 20
33.5538
 30
0.0
 11
14.224
 21
33.5538
 31
0.0
 12
14.224
 22
33.9602
 32
0.0
 13
13.8176
 23
33.9602
 33
0.0
  0
TEXT
 62
5
  8
footings_text
 10
14.2708
 20
42.313
 30
0.0
 40
0.2
  1
B5
  0
TEXT
 62
5
  8
footings_text
 10
14.2708
 20
41.813
 30
0.0
 40
0.1
  1
BxL(m)= 2.90x2.90 x T(m)= 0.508
  0
TEXT
 62
5
  8
footings_text
 10
14.2708
 20
41.563
 30
0.0
 40
0.1
  1
BxL(feet)= 9.5x9.5 x T(inches)= 20.0
  0
POINT
 62
7
  8
footings
 10
14.0208
 20
42.063
 30
0.0
  0
3DFACE
 62
7
  8
footings
 10
12.573
 20
40.6152
 30
0.0
 11
15.4686
 21
40.6152
 31
0.0
 12
15.4686
 22
43.5108
 32
0.0
 13
12.573
 23
43.5108
 33
0.0
  0
3DFACE
 62
1
  8
columns
 10
13.8176
 20
41.8598
 30
0.0
 11
14.224
 21
41.8598
 31
0.0
 12
14.224
 22
42.2662
 32
0.0
 13
13.8176
 23
42.2662
 33
0.0
  0
TEXT
 62
5
  8
footings_text
 10
20.6208
 20
9.089
 30
0.0
 40
0.2
  1
C1
  0
TEXT
 62
5
  8
footings_text
 10
20.6208
 20
8.589
 30
0.0
 40
0.1
  1
BxL(m)= 3.20x3.20 x T(m)= 0.635
  0
TEXT
 62
5
  8
footings_text
 10
20.6208
 20
8.339
 30
0.0
 40
0.1
  1
BxL(feet)= 10.5x10.5 x T(inches)= 25.0
  0
POINT
 62
7
  8
footings
 10
20.3708
 20
8.839
 30
0.0
  0
3DFACE
 62
7
  8
footings
 10
18.7706
 20
7.2388
 30
0.0
 11
21.971
 21
7.2388
 31
0.0
 12
21.971
 22
10.4392
 32
0.0
 13
18.7706
 23
10.4392
 33
0.0
  0
3DFACE
 62
1
  8
columns
 10
20.1676
 20
8.6358
 30
0.0
 11
20.574
 21
8.6358
 31
0.0
 12
20.574
 22
9.0422
 32
0.0
 13
20.1676
 23
9.0422
 33
0.0
  0
TEXT
 62
5
  8
footings_text
 10
20.6208
 20
17.395
 30
0.0
 40
0.2
  1
C2
  0
TEXT
 62
5
  8
footings_text
 10
20.6208
 20
16.895
 30
0.0
 40
0.1
  1
BxL(m)= 3.20x3.20 x T(m)= 0.635
  0
TEXT
 62
5
  8
footings_text
 10
20.6208
 20
16.645
 30
0.0
 40
0.1
  1
BxL(feet)= 10.5x10.5 x T(inches)= 25.0
  0
POINT
 62
7
  8
footings
 10
20.3708
 20
17.145
 30
0.0
  0
3DFACE
 62
7
  8
footings
 10
18.7706
 20
15.5448
 30
0.0
 11
21.971
 21
15.5448
 31
0.0
 12
21.971
 22
18.7452
 32
0.0
 13
18.7706
 23
18.7452
 33
0.0
  0
3DFACE
 62
1
  8
columns
 10
20.1676
 20
16.9418
 30
0.0
 11
20.574
 21
16.9418
 31
0.0
 12
20.574
 22
17.3482
 32
0.0
 13
20.1676
 23
17.3482
 33
0.0
  0
TEXT
 62
5
  8
footings_text
 10
20.6208
 20
25.701
 30
0.0
 40
0.2
  1
C3
  0
TEXT
 62
5
  8
footings_text
 10
20.6208
 20
25.201
 30
0.0
 40
0.1
  1
BxL(m)= 3.20x3.20 x T(m)= 0.635
  0
TEXT
 62
5
  8
footings_text
 10
20.6208
 20
24.951
 30
0.0
 40
0.1
  1
BxL(feet)= 10.5x10.5 x T(inches)= 25.0
  0
POINT
 62
7
  8
footings
 10
20.3708
 20
25.451
 30
0.0
  0
3DFACE
 62
7
  8
footings
 10
18.7706
 20
23.8508
 30
0.0
 11
21.971
 21
23.8508
 31
0.0
 12
21.971
 22
27.0512
 32
0.0
 13
18.7706
 23
27.0512
 33
0.0
  0
3DFACE
 62
1
  8
columns
 10
20.1676
 20
25.2478
 30
0.0
 11
20.574
 21
25.2478
 31
0.0
 12
20.574
 22
25.6542
 32
0.0
 13
20.1676
 23
25.6542
 33
0.0
  0
TEXT
 62
5
  8
footings_text
 10
20.6208
 20
34.007
 30
0.0
 40
0.2
  1
C4
  0
TEXT
 62
5
  8
footings_text
 10
20.6208
 20
33.507
 30
0.0
 40
0.1
  1
BxL(m)= 3.20x3.20 x T(m)= 0.635
  0
TEXT
 62
5
  8
footings_text
 10
20.6208
 20
33.257
 30
0.0
 40
0.1
  1
BxL(feet)= 10.5x10.5 x T(inches)= 25.0
  0
POINT
 62
7
  8
footings
 10
20.3708
 20
33.757
 30
0.0
  0
3DFACE
 62
7
  8
footings
 10
18.7706
 20
32.1568
 30
0.0
 11
21.971
 21
32.1568
 31
0.0
 12
21.971
 22
35.3572
 32
0.0
 13
18.7706
 23
35.3572
 33
0.0
  0
3DFACE
 62
1
  8
columns
 10
20.1676
 20
33.5538
 30
0.0
 11
20.574
 21
33.5538
 31
0.0
 12
20.574
 22
33.9602
 32
0.0
 13
20.1676
 23
33.9602
 33
0.0
  0
TEXT
 62
5
  8
footings_text
 10
20.6208
 20
42.313
 30
0.0
 40
0.2
  1
C5
  0
TEXT
 62
5
  8
footings_text
 10
20.6208
 20
41.813
 30
0.0
 40
0.1
  1
BxL(m)= 3.20x3.20 x T(m)= 0.635
  0
TEXT
 62
5
  8
footings_text
 10
20.6208
 20
41.563
 30
0.0
 40
0.1
  1
BxL(feet)= 10.5x10.5 x T(inches)= 25.0
  0
POINT
 62
7
  8
footings
 10
20.3708
 20
42.063
 30
0.0
  0
3DFACE
 62
7
  8
footings
 10
18.7706
 20
40.4628
 30
0.0
 11
21.971
 21
40.4628
 31
0.0
 12
21.971
 22
43.6632
 32
0.0
 13
18.7706
 23
43.6632
 33
0.0
  0
3DFACE
 62
1
  8
columns
 10
20.1676
 20
41.8598
 30
0.0
 11
20.574
 21
41.8598
 31
0.0
 12
20.574
 22
42.2662
 32
0.0
 13
20.1676
 23
42.2662
 33
0.0
  0
TEXT
 62
5
  8
footings_text
 10
32.6096
 20
9.089
 30
0.0
 40
0.2
  1
D1
  0
TEXT
 62
5
  8
footings_text
 10
32.6096
 20
8.589
 30
0.0
 40
0.1
  1
BxL(m)= 3.35x3.35 x T(m)= 0.635
  0
TEXT
 62
5
  8
footings_text
 10
32.6096
 20
8.339
 30
0.0
 40
0.1
  1
BxL(feet)= 11.0x11.0 x T(inches)= 25.0
  0
POINT
 62
7
  8
footings
 10
32.3596
 20
8.839
 30
0.0
  0
3DFACE
 62
7
  8
footings
 10
30.6832
 20
7.1626
 30
0.0
 11
34.036
 21
7.1626
 31
0.0
 12
34.036
 22
10.5154
 32
0.0
 13
30.6832
 23
10.5154
 33
0.0
  0
3DFACE
 62
1
  8
columns
 10
32.1564
 20
8.6358
 30
0.0
 11
32.5628
 21
8.6358
 31
0.0
 12
32.5628
 22
9.0422
 32
0.0
 13
32.1564
 23
9.0422
 33
0.0
  0
TEXT
 62
5
  8
footings_text
 10
32.6096
 20
17.395
 30
0.0
 40
0.2
  1
D2
  0
TEXT
 62
5
  8
footings_text
 10
32.6096
 20
16.895
 30
0.0
 40
0.1
  1
BxL(m)= 3.35x3.35 x T(m)= 0.635
  0
TEXT
 62
5
  8
footings_text
 10
32.6096
 20
16.645
 30
0.0
 40
0.1
  1
BxL(feet)= 11.0x11.0 x T(inches)= 25.0
  0
POINT
 62
7
  8
footings
 10
32.3596
 20
17.145
 30
0.0
  0
3DFACE
 62
7
  8
footings
 10
30.6832
 20
15.4686
 30
0.0
 11
34.036
 21
15.4686
 31
0.0
 12
34.036
 22
18.8214
 32
0.0
 13
30.6832
 23
18.8214
 33
0.0
  0
3DFACE
 62
1
  8
columns
 10
32.1564
 20
16.9418
 30
0.0
 11
32.5628
 21
16.9418
 31
0.0
 12
32.5628
 22
17.3482
 32
0.0
 13
32.1564
 23
17.3482
 33
0.0
  0
TEXT
 62
5
  8
footings_text
 10
32.6096
 20
25.701
 30
0.0
 40
0.2
  1
D3
  0
TEXT
 62
5
  8
footings_text
 10
32.6096
 20
25.201
 30
0.0
 40
0.1
  1
BxL(m)= 3.35x3.35 x T(m)= 0.635
  0
TEXT
 62
5
  8
footings_text
 10
32.6096
 20
24.951
 30
0.0
 40
0.1
  1
BxL(feet)= 11.0x11.0 x T(inches)= 25.0
  0
POINT
 62
7
  8
footings
 10
32.3596
 20
25.451
 30
0.0
  0
3DFACE
 62
7
  8
footings
 10
30.6832
 20
23.7746
 30
0.0
 11
34.036
 21
23.7746
 31
0.0
 12
34.036
 22
27.1274
 32
0.0
 13
30.6832
 23
27.1274
 33
0.0
  0
3DFACE
 62
1
  8
columns
 10
32.1564
 20
25.2478
 30
0.0
 11
32.5628
 21
25.2478
 31
0.0
 12
32.5628
 22
25.6542
 32
0.0
 13
32.1564
 23
25.6542
 33
0.0
  0
TEXT
 62
5
  8
footings_text
 10
32.6096
 20
34.007
 30
0.0
 40
0.2
  1
D4
  0
TEXT
 62
5
  8
footings_text
 10
32.6096
 20
33.507
 30
0.0
 40
0.1
  1
BxL(m)= 3.35x3.35 x T(m)= 0.635
  0
TEXT
 62
5
  8
footings_text
 10
32.6096
 20
33.257
 30
0.0
 40
0.1
  1
BxL(feet)= 11.0x11.0 x T(inches)= 25.0
  0
POINT
 62
7
  8
footings
 10
32.3596
 20
33.757
 30
0.0
  0
3DFACE
 62
7
  8
footings
 10
30.6832
 20
32.0806
 30
0.0
 11
34.036
 21
32.0806
 31
0.0
 12
34.036
 22
35.4334
 32
0.0
 13
30.6832
 23
35.4334
 33
0.0
  0
3DFACE
 62
1
  8
columns
 10
32.1564
 20
33.5538
 30
0.0
 11
32.5628
 21
33.5538
 31
0.0
 12
32.5628
 22
33.9602
 32
0.0
 13
32.1564
 23
33.9602
 33
0.0
  0
TEXT
 62
5
  8
footings_text
 10
32.6096
 20
42.313
 30
0.0
 40
0.2
  1
D5
  0
TEXT
 62
5
  8
footings_text
 10
32.6096
 20
41.813
 30
0.0
 40
0.1
  1
BxL(m)= 3.35x3.35 x T(m)= 0.635
  0
TEXT
 62
5
  8
footings_text
 10
32.6096
 20
41.563
 30
0.0
 40
0.1
  1
BxL(feet)= 11.0x11.0 x T(inches)= 25.0
  0
POINT
 62
7
  8
footings
 10
32.3596
 20
42.063
 30
0.0
  0
3DFACE
 62
7
  8
footings
 10
30.6832
 20
40.3866
 30
0.0
 11
34.036
 21
40.3866
 31
0.0
 12
34.036
 22
43.7394
 32
0.0
 13
30.6832
 23
43.7394
 33
0.0
  0
3DFACE
 62
1
  8
columns
 10
32.1564
 20
41.8598
 30
0.0
 11
32.5628
 21
41.8598
 31
0.0
 12
32.5628
 22
42.2662
 32
0.0
 13
32.1564
 23
42.2662
 33
0.0
  0
TEXT
 62
5
  8
footings_text
 10
40.4836
 20
9.089
 30
0.0
 40
0.2
  1
G1
  0
TEXT
 62
5
  8
footings_text
 10
40.4836
 20
8.589
 30
0.0
 40
0.1
  1
BxL(m)= 3.35x3.35 x T(m)= 0.635
  0
TEXT
 62
5
  8
footings_text
 10
40.4836
 20
8.339
 30
0.0
 40
0.1
  1
BxL(feet)= 11.0x11.0 x T(inches)= 25.0
  0
POINT
 62
7
  8
footings
 10
40.2336
 20
8.839
 30
0.0
  0
3DFACE
 62
7
  8
footings
 10
38.5572
 20
7.1626
 30
0.0
 11
41.91
 21
7.1626
 31
0.0
 12
41.91
 22
10.5154
 32
0.0
 13
38.5572
 23
10.5154
 33
0.0
  0
3DFACE
 62
1
  8
columns
 10
40.0304
 20
8.6358
 30
0.0
 11
40.4368
 21
8.6358
 31
0.0
 12
40.4368
 22
9.0422
 32
0.0
 13
40.0304
 23
9.0422
 33
0.0
  0
TEXT
 62
5
  8
footings_text
 10
40.4836
 20
17.395
 30
0.0
 40
0.2
  1
G2
  0
TEXT
 62
5
  8
footings_text
 10
40.4836
 20
16.895
 30
0.0
 40
0.1
  1
BxL(m)= 3.35x3.35 x T(m)= 0.635
  0
TEXT
 62
5
  8
footings_text
 10
40.4836
 20
16.645
 30
0.0
 40
0.1
  1
BxL(feet)= 11.0x11.0 x T(inches)= 25.0
  0
POINT
 62
7
  8
footings
 10
40.2336
 20
17.145
 30
0.0
  0
3DFACE
 62
7
  8
footings
 10
38.5572
 20
15.4686
 30
0.0
 11
41.91
 21
15.4686
 31
0.0
 12
41.91
 22
18.8214
 32
0.0
 13
38.5572
 23
18.8214
 33
0.0
  0
3DFACE
 62
1
  8
columns
 10
40.0304
 20
16.9418
 30
0.0
 11
40.4368
 21
16.9418
 31
0.0
 12
40.4368
 22
17.3482
 32
0.0
 13
40.0304
 23
17.3482
 33
0.0
  0
TEXT
 62
5
  8
footings_text
 10
40.4836
 20
25.701
 30
0.0
 40
0.2
  1
G3
  0
TEXT
 62
5
  8
footings_text
 10
40.4836
 20
25.201
 30
0.0
 40
0.1
  1
BxL(m)= 3.35x3.35 x T(m)= 0.635
  0
TEXT
 62
5
  8
footings_text
 10
40.4836
 20
24.951
 30
0.0
 40
0.1
  1
BxL(feet)= 11.0x11.0 x T(inches)= 25.0
  0
POINT
 62
7
  8
footings
 10
40.2336
 20
25.451
 30
0.0
  0
3DFACE
 62
7
  8
footings
 10
38.5572
 20
23.7746
 30
0.0
 11
41.91
 21
23.7746
 31
0.0
 12
41.91
 22
27.1274
 32
0.0
 13
38.5572
 23
27.1274
 33
0.0
  0
3DFACE
 62
1
  8
columns
 10
40.0304
 20
25.2478
 30
0.0
 11
40.4368
 21
25.2478
 31
0.0
 12
40.4368
 22
25.6542
 32
0.0
 13
40.0304
 23
25.6542
 33
0.0
  0
TEXT
 62
5
  8
footings_text
 10
40.4836
 20
34.007
 30
0.0
 40
0.2
  1
G4
  0
TEXT
 62
5
  8
footings_text
 10
40.4836
 20
33.507
 30
0.0
 40
0.1
  1
BxL(m)= 3.35x3.35 x T(m)= 0.635
  0
TEXT
 62
5
  8
footings_text
 10
40.4836
 20
33.257
 30
0.0
 40
0.1
  1
BxL(feet)= 11.0x11.0 x T(inches)= 25.0
  0
POINT
 62
7
  8
footings
 10
40.2336
 20
33.757
 30
0.0
  0
3DFACE
 62
7
  8
footings
 10
38.5572
 20
32.0806
 30
0.0
 11
41.91
 21
32.0806
 31
0.0
 12
41.91
 22
35.4334
 32
0.0
 13
38.5572
 23
35.4334
 33
0.0
  0
3DFACE
 62
1
  8
columns
 10
40.0304
 20
33.5538
 30
0.0
 11
40.4368
 21
33.5538
 31
0.0
 12
40.4368
 22
33.9602
 32
0.0
 13
40.0304
 23
33.9602
 33
0.0
  0
TEXT
 62
5
  8
footings_text
 10
40.4836
 20
42.313
 30
0.0
 40
0.2
  1
G5
  0
TEXT
 62
5
  8
footings_text
 10
40.4836
 20
41.813
 30
0.0
 40
0.1
  1
BxL(m)= 3.35x3.35 x T(m)= 0.635
  0
TEXT
 62
5
  8
footings_text
 10
40.4836
 20
41.563
 30
0.0
 40
0.1
  1
BxL(feet)= 11.0x11.0 x T(inches)= 25.0
  0
POINT
 62
7
  8
footings
 10
40.2336
 20
42.063
 30
0.0
  0
3DFACE
 62
7
  8
footings
 10
38.5572
 20
40.3866
 30
0.0
 11
41.91
 21
40.3866
 31
0.0
 12
41.91
 22
43.7394
 32
0.0
 13
38.5572
 23
43.7394
 33
0.0
  0
3DFACE
 62
1
  8
columns
 10
40.0304
 20
41.8598
 30
0.0
 11
40.4368
 21
41.8598
 31
0.0
 12
40.4368
 22
42.2662
 32
0.0
 13
40.0304
 23
42.2662
 33
0.0
  0
TEXT
 62
5
  8
footings_text
 10
49.018
 20
9.089
 30
0.0
 40
0.2
  1
F1
  0
TEXT
 62
5
  8
footings_text
 10
49.018
 20
8.589
 30
0.0
 40
0.1
  1
BxL(m)= 3.05x3.05 x T(m)= 0.635
  0
TEXT
 62
5
  8
footings_text
 10
49.018
 20
8.339
 30
0.0
 40
0.1
  1
BxL(feet)= 10.0x10.0 x T(inches)= 25.0
  0
POINT
 62
7
  8
footings
 10
48.768
 20
8.839
 30
0.0
  0
3DFACE
 62
7
  8
footings
 10
47.244
 20
7.315
 30
0.0
 11
50.292
 21
7.315
 31
0.0
 12
50.292
 22
10.363
 32
0.0
 13
47.244
 23
10.363
 33
0.0
  0
3DFACE
 62
1
  8
columns
 10
48.5648
 20
8.6358
 30
0.0
 11
48.9712
 21
8.6358
 31
0.0
 12
48.9712
 22
9.0422
 32
0.0
 13
48.5648
 23
9.0422
 33
0.0
  0
TEXT
 62
5
  8
footings_text
 10
49.018
 20
17.395
 30
0.0
 40
0.2
  1
F2
  0
TEXT
 62
5
  8
footings_text
 10
49.018
 20
16.895
 30
0.0
 40
0.1
  1
BxL(m)= 3.05x3.05 x T(m)= 0.635
  0
TEXT
 62
5
  8
footings_text
 10
49.018
 20
16.645
 30
0.0
 40
0.1
  1
BxL(feet)= 10.0x10.0 x T(inches)= 25.0
  0
POINT
 62
7
  8
footings
 10
48.768
 20
17.145
 30
0.0
  0
3DFACE
 62
7
  8
footings
 10
47.244
 20
15.621
 30
0.0
 11
50.292
 21
15.621
 31
0.0
 12
50.292
 22
18.669
 32
0.0
 13
47.244
 23
18.669
 33
0.0
  0
3DFACE
 62
1
  8
columns
 10
48.5648
 20
16.9418
 30
0.0
 11
48.9712
 21
16.9418
 31
0.0
 12
48.9712
 22
17.3482
 32
0.0
 13
48.5648
 23
17.3482
 33
0.0
  0
TEXT
 62
5
  8
footings_text
 10
49.018
 20
25.701
 30
0.0
 40
0.2
  1
F3
  0
TEXT
 62
5
  8
footings_text
 10
49.018
 20
25.201
 30
0.0
 40
0.1
  1
BxL(m)= 3.05x3.05 x T(m)= 0.635
  0
TEXT
 62
5
  8
footings_text
 10
49.018
 20
24.951
 30
0.0
 40
0.1
  1
BxL(feet)= 10.0x10.0 x T(inches)= 25.0
  0
POINT
 62
7
  8
footings
 10
48.768
 20
25.451
 30
0.0
  0
3DFACE
 62
7
  8
footings
 10
47.244
 20
23.927
 30
0.0
 11
50.292
 21
23.927
 31
0.0
 12
50.292
 22
26.975
 32
0.0
 13
47.244
 23
26.975
 33
0.0
  0
3DFACE
 62
1
  8
columns
 10
48.5648
 20
25.2478
 30
0.0
 11
48.9712
 21
25.2478
 31
0.0
 12
48.9712
 22
25.6542
 32
0.0
 13
48.5648
 23
25.6542
 33
0.0
  0
TEXT
 62
5
  8
footings_text
 10
49.018
 20
34.007
 30
0.0
 40
0.2
  1
F4
  0
TEXT
 62
5
  8
footings_text
 10
49.018
 20
33.507
 30
0.0
 40
0.1
  1
BxL(m)= 3.05x3.05 x T(m)= 0.635
  0
TEXT
 62
5
  8
footings_text
 10
49.018
 20
33.257
 30
0.0
 40
0.1
  1
BxL(feet)= 10.0x10.0 x T(inches)= 25.0
  0
POINT
 62
7
  8
footings
 10
48.768
 20
33.757
 30
0.0
  0
3DFACE
 62
7
  8
footings
 10
47.244
 20
32.233
 30
0.0
 11
50.292
 21
32.233
 31
0.0
 12
50.292
 22
35.281
 32
0.0
 13
47.244
 23
35.281
 33
0.0
  0
3DFACE
 62
1
  8
columns
 10
48.5648
 20
33.5538
 30
0.0
 11
48.9712
 21
33.5538
 31
0.0
 12
48.9712
 22
33.9602
 32
0.0
 13
48.5648
 23
33.9602
 33
0.0
  0
TEXT
 62
5
  8
footings_text
 10
49.018
 20
42.313
 30
0.0
 40
0.2
  1
F5
  0
TEXT
 62
5
  8
footings_text
 10
49.018
 20
41.813
 30
0.0
 40
0.1
  1
BxL(m)= 3.05x3.05 x T(m)= 0.635
  0
TEXT
 62
5
  8
footings_text
 10
49.018
 20
41.563
 30
0.0
 40
0.1
  1
BxL(feet)= 10.0x10.0 x T(inches)= 25.0
  0
POINT
 62
7
  8
footings
 10
48.768
 20
42.063
 30
0.0
  0
3DFACE
 62
7
  8
footings
 10
47.244
 20
40.539
 30
0.0
 11
50.292
 21
40.539
 31
0.0
 12
50.292
 22
43.587
 32
0.0
 13
47.244
 23
43.587
 33
0.0
  0
3DFACE
 62
1
  8
columns
 10
48.5648
 20
41.8598
 30
0.0
 11
48.9712
 21
41.8598
 31
0.0
 12
48.9712
 22
42.2662
 32
0.0
 13
48.5648
 23
42.2662
 33
0.0
  0
ENDSEC
  0
EOF
