{"markers": [], "files": [{"has_video": true, "path": "..\\..\\..\\..\\..\\Users\\theor\\Desktop\\2.mp4", "width": 1280, "display_ratio": {"num": 16, "den": 9}, "audio_stream_index": -1, "pixel_ratio": {"num": 1, "den": 1}, "sample_rate": 0, "fps": {"num": 25, "den": 1}, "id": "DRHCZ485TK", "height": 720, "has_audio": false, "audio_bit_rate": 0, "channel_layout": 4, "channels": 0, "vcodec": "mpeg4", "audio_timebase": {"num": 1, "den": 1}, "file_size": "189413597", "has_single_image": false, "top_field_first": true, "interlaced_frame": false, "duration": 309.5199890136719, "video_bit_rate": 4895673, "acodec": "", "video_length": "7738", "pixel_format": 0, "type": "FFmpegReader", "video_timebase": {"num": 1, "den": 25}, "video_stream_index": 0, "media_type": "video"}, {"has_video": false, "path": "Hello_.m4a", "width": 720, "display_ratio": {"num": 1, "den": 1}, "audio_stream_index": 0, "pixel_ratio": {"num": 1, "den": 1}, "sample_rate": 44100, "fps": {"num": 24, "den": 1}, "id": "844VBPFXHL", "height": 480, "has_audio": true, "audio_bit_rate": 254854, "channel_layout": 3, "channels": 2, "vcodec": "", "audio_timebase": {"num": 1, "den": 44100}, "file_size": "5263452", "has_single_image": false, "top_field_first": true, "interlaced_frame": false, "duration": 163.4220428466797, "video_bit_rate": 0, "acodec": "aac", "video_length": "3922", "pixel_format": -1, "type": "FFmpegReader", "video_timebase": {"num": 1, "den": 24}, "video_stream_index": -1, "media_type": "audio"}], "layers": [{"id": "L0", "y": 0, "number": 0, "label": "", "lock": false}, {"id": "L1", "y": 0, "number": 1, "label": "", "lock": false}, {"id": "L2", "y": 0, "number": 2, "label": "", "lock": false}, {"id": "L3", "y": 0, "number": 3, "label": "", "lock": false}, {"id": "L4", "y": 0, "number": 4, "label": "", "lock": false}], "width": 1280, "settings": {}, "effects": [], "fps": {"num": 24, "den": 1}, "sample_rate": 44100, "history": {"redo": [], "undo": [{"type": "insert", "value": {"channel_mapping": {"Points": [{"interpolation": 2, "co": {"X": 1.0, "Y": -1.0}}]}, "title": "2.mp4", "perspective_c3_x": {"Points": [{"interpolation": 2, "co": {"X": 1.0, "Y": -1.0}}]}, "alpha": {"Points": [{"interpolation": 2, "co": {"X": 1.0, "Y": 1.0}}]}, "crop_x": {"Points": [{"interpolation": 2, "co": {"X": 1.0, "Y": 0.0}}]}, "time": {"Points": [{"interpolation": 1, "co": {"X": 1.0, "Y": 1.0}}, {"interpolation": 1, "co": {"X": 1858.0, "Y": 3715.0}}]}, "end": 77.41666666666667, "effects": [], "perspective_c3_y": {"Points": [{"interpolation": 2, "co": {"X": 1.0, "Y": -1.0}}]}, "file_id": "DRHCZ485TK", "has_video": {"Points": [{"interpolation": 2, "co": {"X": 1.0, "Y": -1.0}}]}, "wave_color": {"green": {"Points": [{"handle_right": {"X": 0.5, "Y": 0.0}, "handle_left": {"X": 0.5, "Y": 1.0}, "handle_type": 0, "co": {"X": 1.0, "Y": 123.0}, "interpolation": 0}]}, "alpha": {"Points": [{"handle_right": {"X": 0.5, "Y": 0.0}, "handle_left": {"X": 0.5, "Y": 1.0}, "handle_type": 0, "co": {"X": 1.0, "Y": 255.0}, "interpolation": 0}]}, "blue": {"Points": [{"handle_right": {"X": 0.5, "Y": 0.0}, "handle_left": {"X": 0.5, "Y": 1.0}, "handle_type": 0, "co": {"X": 1.0, "Y": 255.0}, "interpolation": 0}]}, "red": {"Points": [{"handle_right": {"X": 0.5, "Y": 0.0}, "handle_left": {"X": 0.5, "Y": 1.0}, "handle_type": 0, "co": {"X": 1.0, "Y": 0.0}, "interpolation": 0}]}}, "location_y": {"Points": [{"interpolation": 2, "co": {"X": 1.0, "Y": 0.0}}]}, "has_audio": {"Points": [{"interpolation": 2, "co": {"X": 1.0, "Y": -1.0}}]}, "display": 0, "reader": {"fps": {"num": 25, "den": 1}, "path": "C:/Users/theor/Desktop/2.mp4", "width": 1280, "display_ratio": {"num": 16, "den": 9}, "pixel_ratio": {"num": 1, "den": 1}, "sample_rate": 0, "has_video": true, "height": 720, "has_audio": false, "video_timebase": {"num": 1, "den": 25}, "channel_layout": 4, "channels": 0, "vcodec": "mpeg4", "audio_timebase": {"num": 1, "den": 1}, "file_size": "189413597", "has_single_image": false, "top_field_first": true, "interlaced_frame": false, "duration": 309.5199890136719, "video_stream_index": 0, "acodec": "", "video_length": "7738", "pixel_format": 0, "type": "FFmpegReader", "audio_bit_rate": 0, "audio_stream_index": -1, "video_bit_rate": 4895673}, "channel_filter": {"Points": [{"interpolation": 2, "co": {"X": 1.0, "Y": -1.0}}]}, "volume": {"Points": [{"interpolation": 2, "co": {"X": 1.0, "Y": 1.0}}]}, "perspective_c1_x": {"Points": [{"interpolation": 2, "co": {"X": 1.0, "Y": -1.0}}]}, "crop_width": {"Points": [{"interpolation": 2, "co": {"X": 1.0, "Y": -1.0}}]}, "shear_y": {"Points": [{"interpolation": 2, "co": {"X": 1.0, "Y": 0.0}}]}, "location_x": {"Points": [{"interpolation": 2, "co": {"X": 1.0, "Y": 0.0}}]}, "position": 0, "anchor": 0, "crop_y": {"Points": [{"interpolation": 2, "co": {"X": 1.0, "Y": 0.0}}]}, "shear_x": {"Points": [{"interpolation": 2, "co": {"X": 1.0, "Y": 0.0}}]}, "perspective_c4_x": {"Points": [{"interpolation": 2, "co": {"X": 1.0, "Y": -1.0}}]}, "perspective_c4_y": {"Points": [{"interpolation": 2, "co": {"X": 1.0, "Y": -1.0}}]}, "waveform": false, "layer": 0, "rotation": {"Points": [{"interpolation": 2, "co": {"X": 1.0, "Y": 0.0}}]}, "image": "C:\\Users\\theor\\.openshot_qt\\thumbnail\\DRHCZ485TK.png", "gravity": 4, "id": "S1HU8ISC5Y", "scale_x": {"Points": [{"interpolation": 2, "co": {"X": 1.0, "Y": 1.0}}]}, "perspective_c2_x": {"Points": [{"interpolation": 2, "co": {"X": 1.0, "Y": -1.0}}]}, "scale_y": {"Points": [{"interpolation": 2, "co": {"X": 1.0, "Y": 1.0}}]}, "scale": 1, "duration": 76.0, "crop_height": {"Points": [{"interpolation": 2, "co": {"X": 1.0, "Y": -1.0}}]}, "perspective_c2_y": {"Points": [{"interpolation": 2, "co": {"X": 1.0, "Y": -1.0}}]}, "start": 0, "perspective_c1_y": {"Points": [{"interpolation": 2, "co": {"X": 1.0, "Y": -1.0}}]}, "original_data": {"video_length": "7738", "duration": 154.0, "end": 154.79166666666666}}, "partial": false, "old_values": [{"waveform": false, "channel_mapping": {"Points": [{"interpolation": 2, "co": {"X": 1.0, "Y": -1.0}}]}, "title": "Hello_.m4a", "time": {"Points": [{"interpolation": 2, "co": {"X": 1.0, "Y": 1.0}}]}, "perspective_c3_x": {"Points": [{"interpolation": 2, "co": {"X": 1.0, "Y": -1.0}}]}, "alpha": {"Points": [{"interpolation": 2, "co": {"X": 1.0, "Y": 1.0}}]}, "channel_filter": {"Points": [{"interpolation": 2, "co": {"X": 1.0, "Y": -1.0}}]}, "position": 0, "crop_x": {"Points": [{"interpolation": 2, "co": {"X": 1.0, "Y": 0.0}}]}, "image": "C:\\Program Files\\OpenShot Video Editor\\images\\AudioThumbnail.png", "gravity": 4, "end": 163.4220428466797, "wave_color": {"green": {"Points": [{"handle_right": {"X": 0.5, "Y": 0.0}, "handle_left": {"X": 0.5, "Y": 1.0}, "handle_type": 0, "co": {"X": 1.0, "Y": 123.0}, "interpolation": 0}]}, "alpha": {"Points": [{"handle_right": {"X": 0.5, "Y": 0.0}, "handle_left": {"X": 0.5, "Y": 1.0}, "handle_type": 0, "co": {"X": 1.0, "Y": 255.0}, "interpolation": 0}]}, "blue": {"Points": [{"handle_right": {"X": 0.5, "Y": 0.0}, "handle_left": {"X": 0.5, "Y": 1.0}, "handle_type": 0, "co": {"X": 1.0, "Y": 255.0}, "interpolation": 0}]}, "red": {"Points": [{"handle_right": {"X": 0.5, "Y": 0.0}, "handle_left": {"X": 0.5, "Y": 1.0}, "handle_type": 0, "co": {"X": 1.0, "Y": 0.0}, "interpolation": 0}]}}, "perspective_c3_y": {"Points": [{"interpolation": 2, "co": {"X": 1.0, "Y": -1.0}}]}, "file_id": "844VBPFXHL", "has_video": {"Points": [{"interpolation": 2, "co": {"X": 1.0, "Y": -1.0}}]}, "effects": [], "location_y": {"Points": [{"interpolation": 2, "co": {"X": 1.0, "Y": 0.0}}]}, "scale_x": {"Points": [{"interpolation": 2, "co": {"X": 1.0, "Y": 1.0}}]}, "has_audio": {"Points": [{"interpolation": 2, "co": {"X": 1.0, "Y": -1.0}}]}, "perspective_c2_x": {"Points": [{"interpolation": 2, "co": {"X": 1.0, "Y": -1.0}}]}, "display": 0, "reader": {"has_video": false, "path": "C:/Dropbox/GitHub/Cannery District - Eau Claire/Transfer/20190228 - video animination/Hello_.m4a", "width": 720, "display_ratio": {"num": 1, "den": 1}, "audio_stream_index": 0, "pixel_ratio": {"num": 1, "den": 1}, "sample_rate": 44100, "fps": {"num": 24, "den": 1}, "height": 480, "has_audio": true, "audio_bit_rate": 254854, "channel_layout": 3, "channels": 2, "vcodec": "", "audio_timebase": {"num": 1, "den": 44100}, "file_size": "5263452", "has_single_image": false, "top_field_first": true, "interlaced_frame": false, "duration": 163.4220428466797, "acodec": "aac", "video_length": "3922", "pixel_format": -1, "type": "FFmpegReader", "video_timebase": {"num": 1, "den": 24}, "video_stream_index": -1, "video_bit_rate": 0}, "scale_y": {"Points": [{"interpolation": 2, "co": {"X": 1.0, "Y": 1.0}}]}, "volume": {"Points": [{"interpolation": 2, "co": {"X": 1.0, "Y": 1.0}}]}, "id": "AN7OLTM9OC", "rotation": {"Points": [{"interpolation": 2, "co": {"X": 1.0, "Y": 0.0}}]}, "perspective_c1_x": {"Points": [{"interpolation": 2, "co": {"X": 1.0, "Y": -1.0}}]}, "crop_width": {"Points": [{"interpolation": 2, "co": {"X": 1.0, "Y": -1.0}}]}, "shear_y": {"Points": [{"interpolation": 2, "co": {"X": 1.0, "Y": 0.0}}]}, "location_x": {"Points": [{"interpolation": 2, "co": {"X": 1.0, "Y": 0.0}}]}, "duration": 163.4220428466797, "anchor": 0, "crop_height": {"Points": [{"interpolation": 2, "co": {"X": 1.0, "Y": -1.0}}]}, "perspective_c2_y": {"Points": [{"interpolation": 2, "co": {"X": 1.0, "Y": -1.0}}]}, "crop_y": {"Points": [{"interpolation": 2, "co": {"X": 1.0, "Y": 0.0}}]}, "shear_x": {"Points": [{"interpolation": 2, "co": {"X": 1.0, "Y": 0.0}}]}, "start": 0, "perspective_c1_y": {"Points": [{"interpolation": 2, "co": {"X": 1.0, "Y": -1.0}}]}, "scale": 1, "perspective_c4_x": {"Points": [{"interpolation": 2, "co": {"X": 1.0, "Y": -1.0}}]}, "perspective_c4_y": {"Points": [{"interpolation": 2, "co": {"X": 1.0, "Y": -1.0}}]}, "layer": 1}], "key": ["clips"]}, {"type": "update", "value": {"start": 0, "layer": 0, "id": "S1HU8ISC5Y", "image": "C:\\Users\\theor\\.openshot_qt\\thumbnail\\DRHCZ485TK.png", "position": 20.16, "end": 309.5199890136719}, "partial": false, "old_values": {"channel_mapping": {"Points": [{"interpolation": 2, "co": {"X": 1.0, "Y": -1.0}}]}, "waveform": false, "title": "2.mp4", "time": {"Points": [{"interpolation": 2, "co": {"X": 1.0, "Y": 1.0}}]}, "perspective_c3_x": {"Points": [{"interpolation": 2, "co": {"X": 1.0, "Y": -1.0}}]}, "alpha": {"Points": [{"interpolation": 2, "co": {"X": 1.0, "Y": 1.0}}]}, "channel_filter": {"Points": [{"interpolation": 2, "co": {"X": 1.0, "Y": -1.0}}]}, "duration": 309.5199890136719, "crop_x": {"Points": [{"interpolation": 2, "co": {"X": 1.0, "Y": 0.0}}]}, "image": "C:\\Users\\theor\\.openshot_qt\\thumbnail\\DRHCZ485TK.png", "gravity": 4, "anchor": 0, "effects": [], "perspective_c3_y": {"Points": [{"interpolation": 2, "co": {"X": 1.0, "Y": -1.0}}]}, "file_id": "DRHCZ485TK", "has_video": {"Points": [{"interpolation": 2, "co": {"X": 1.0, "Y": -1.0}}]}, "id": "S1HU8ISC5Y", "location_y": {"Points": [{"interpolation": 2, "co": {"X": 1.0, "Y": 0.0}}]}, "scale_x": {"Points": [{"interpolation": 2, "co": {"X": 1.0, "Y": 1.0}}]}, "has_audio": {"Points": [{"interpolation": 2, "co": {"X": 1.0, "Y": -1.0}}]}, "layer": 4, "display": 0, "reader": {"has_video": true, "path": "C:/Users/theor/Desktop/2.mp4", "width": 1280, "display_ratio": {"num": 16, "den": 9}, "audio_stream_index": -1, "pixel_ratio": {"num": 1, "den": 1}, "sample_rate": 0, "fps": {"num": 25, "den": 1}, "height": 720, "has_audio": false, "audio_bit_rate": 0, "channel_layout": 4, "channels": 0, "vcodec": "mpeg4", "audio_timebase": {"num": 1, "den": 1}, "file_size": "189413597", "has_single_image": false, "top_field_first": true, "interlaced_frame": false, "duration": 309.5199890136719, "acodec": "", "video_length": "7738", "pixel_format": 0, "type": "FFmpegReader", "video_timebase": {"num": 1, "den": 25}, "video_stream_index": 0, "video_bit_rate": 4895673}, "scale_y": {"Points": [{"interpolation": 2, "co": {"X": 1.0, "Y": 1.0}}]}, "volume": {"Points": [{"interpolation": 2, "co": {"X": 1.0, "Y": 1.0}}]}, "rotation": {"Points": [{"interpolation": 2, "co": {"X": 1.0, "Y": 0.0}}]}, "perspective_c1_x": {"Points": [{"interpolation": 2, "co": {"X": 1.0, "Y": -1.0}}]}, "crop_width": {"Points": [{"interpolation": 2, "co": {"X": 1.0, "Y": -1.0}}]}, "scale": 1, "location_x": {"Points": [{"interpolation": 2, "co": {"X": 1.0, "Y": 0.0}}]}, "position": 0.0, "end": 309.5199890136719, "crop_height": {"Points": [{"interpolation": 2, "co": {"X": 1.0, "Y": -1.0}}]}, "perspective_c2_y": {"Points": [{"interpolation": 2, "co": {"X": 1.0, "Y": -1.0}}]}, "crop_y": {"Points": [{"interpolation": 2, "co": {"X": 1.0, "Y": 0.0}}]}, "wave_color": {"green": {"Points": [{"handle_right": {"X": 0.5, "Y": 0.0}, "handle_left": {"X": 0.5, "Y": 1.0}, "handle_type": 0, "co": {"X": 1.0, "Y": 123.0}, "interpolation": 0}]}, "alpha": {"Points": [{"handle_right": {"X": 0.5, "Y": 0.0}, "handle_left": {"X": 0.5, "Y": 1.0}, "handle_type": 0, "co": {"X": 1.0, "Y": 255.0}, "interpolation": 0}]}, "blue": {"Points": [{"handle_right": {"X": 0.5, "Y": 0.0}, "handle_left": {"X": 0.5, "Y": 1.0}, "handle_type": 0, "co": {"X": 1.0, "Y": 255.0}, "interpolation": 0}]}, "red": {"Points": [{"handle_right": {"X": 0.5, "Y": 0.0}, "handle_left": {"X": 0.5, "Y": 1.0}, "handle_type": 0, "co": {"X": 1.0, "Y": 0.0}, "interpolation": 0}]}}, "shear_x": {"Points": [{"interpolation": 2, "co": {"X": 1.0, "Y": 0.0}}]}, "start": 0.0, "perspective_c1_y": {"Points": [{"interpolation": 2, "co": {"X": 1.0, "Y": -1.0}}]}, "shear_y": {"Points": [{"interpolation": 2, "co": {"X": 1.0, "Y": 0.0}}]}, "perspective_c2_x": {"Points": [{"interpolation": 2, "co": {"X": 1.0, "Y": -1.0}}]}, "perspective_c4_y": {"Points": [{"interpolation": 2, "co": {"X": 1.0, "Y": -1.0}}]}, "perspective_c4_x": {"Points": [{"interpolation": 2, "co": {"X": 1.0, "Y": -1.0}}]}}, "key": ["clips", {"id": "S1HU8ISC5Y"}]}, {"type": "update", "value": {"start": 0, "layer": 0, "id": "S1HU8ISC5Y", "image": "C:\\Users\\theor\\.openshot_qt\\thumbnail\\DRHCZ485TK.png", "position": 0, "end": 309.5199890136719}, "partial": false, "old_values": {"waveform": false, "title": "2.mp4", "perspective_c3_x": {"Points": [{"interpolation": 2, "co": {"X": 1.0, "Y": -1.0}}]}, "alpha": {"Points": [{"interpolation": 2, "co": {"X": 1.0, "Y": 1.0}}]}, "crop_x": {"Points": [{"interpolation": 2, "co": {"X": 1.0, "Y": 0.0}}]}, "time": {"Points": [{"interpolation": 2, "co": {"X": 1.0, "Y": 1.0}}]}, "end": 309.5199890136719, "wave_color": {"green": {"Points": [{"handle_right": {"X": 0.5, "Y": 0.0}, "handle_left": {"X": 0.5, "Y": 1.0}, "handle_type": 0, "co": {"X": 1.0, "Y": 123.0}, "interpolation": 0}]}, "alpha": {"Points": [{"handle_right": {"X": 0.5, "Y": 0.0}, "handle_left": {"X": 0.5, "Y": 1.0}, "handle_type": 0, "co": {"X": 1.0, "Y": 255.0}, "interpolation": 0}]}, "blue": {"Points": [{"handle_right": {"X": 0.5, "Y": 0.0}, "handle_left": {"X": 0.5, "Y": 1.0}, "handle_type": 0, "co": {"X": 1.0, "Y": 255.0}, "interpolation": 0}]}, "red": {"Points": [{"handle_right": {"X": 0.5, "Y": 0.0}, "handle_left": {"X": 0.5, "Y": 1.0}, "handle_type": 0, "co": {"X": 1.0, "Y": 0.0}, "interpolation": 0}]}}, "perspective_c3_y": {"Points": [{"interpolation": 2, "co": {"X": 1.0, "Y": -1.0}}]}, "file_id": "DRHCZ485TK", "has_video": {"Points": [{"interpolation": 2, "co": {"X": 1.0, "Y": -1.0}}]}, "effects": [], "location_y": {"Points": [{"interpolation": 2, "co": {"X": 1.0, "Y": 0.0}}]}, "has_audio": {"Points": [{"interpolation": 2, "co": {"X": 1.0, "Y": -1.0}}]}, "display": 0, "reader": {"has_video": true, "path": "C:/Users/theor/Desktop/2.mp4", "width": 1280, "display_ratio": {"num": 16, "den": 9}, "audio_stream_index": -1, "pixel_ratio": {"num": 1, "den": 1}, "sample_rate": 0, "fps": {"num": 25, "den": 1}, "height": 720, "has_audio": false, "audio_bit_rate": 0, "channel_layout": 4, "channels": 0, "vcodec": "mpeg4", "audio_timebase": {"num": 1, "den": 1}, "file_size": "189413597", "has_single_image": false, "top_field_first": true, "interlaced_frame": false, "duration": 309.5199890136719, "acodec": "", "video_length": "7738", "pixel_format": 0, "type": "FFmpegReader", "video_timebase": {"num": 1, "den": 25}, "video_stream_index": 0, "video_bit_rate": 4895673}, "channel_filter": {"Points": [{"interpolation": 2, "co": {"X": 1.0, "Y": -1.0}}]}, "volume": {"Points": [{"interpolation": 2, "co": {"X": 1.0, "Y": 1.0}}]}, "perspective_c1_x": {"Points": [{"interpolation": 2, "co": {"X": 1.0, "Y": -1.0}}]}, "crop_width": {"Points": [{"interpolation": 2, "co": {"X": 1.0, "Y": -1.0}}]}, "shear_y": {"Points": [{"interpolation": 2, "co": {"X": 1.0, "Y": 0.0}}]}, "location_x": {"Points": [{"interpolation": 2, "co": {"X": 1.0, "Y": 0.0}}]}, "position": 20.16, "anchor": 0, "crop_y": {"Points": [{"interpolation": 2, "co": {"X": 1.0, "Y": 0.0}}]}, "shear_x": {"Points": [{"interpolation": 2, "co": {"X": 1.0, "Y": 0.0}}]}, "perspective_c2_x": {"Points": [{"interpolation": 2, "co": {"X": 1.0, "Y": -1.0}}]}, "perspective_c2_y": {"Points": [{"interpolation": 2, "co": {"X": 1.0, "Y": -1.0}}]}, "channel_mapping": {"Points": [{"interpolation": 2, "co": {"X": 1.0, "Y": -1.0}}]}, "perspective_c1_y": {"Points": [{"interpolation": 2, "co": {"X": 1.0, "Y": -1.0}}]}, "rotation": {"Points": [{"interpolation": 2, "co": {"X": 1.0, "Y": 0.0}}]}, "image": "C:\\Users\\theor\\.openshot_qt\\thumbnail\\DRHCZ485TK.png", "gravity": 4, "id": "S1HU8ISC5Y", "scale_x": {"Points": [{"interpolation": 2, "co": {"X": 1.0, "Y": 1.0}}]}, "perspective_c4_x": {"Points": [{"interpolation": 2, "co": {"X": 1.0, "Y": -1.0}}]}, "scale_y": {"Points": [{"interpolation": 2, "co": {"X": 1.0, "Y": 1.0}}]}, "scale": 1, "duration": 309.5199890136719, "crop_height": {"Points": [{"interpolation": 2, "co": {"X": 1.0, "Y": -1.0}}]}, "perspective_c4_y": {"Points": [{"interpolation": 2, "co": {"X": 1.0, "Y": -1.0}}]}, "start": 0, "layer": 0, "original_data": {"video_length": "7738", "duration": 154.0, "end": 154.79166666666666}}, "key": ["clips", {"id": "S1HU8ISC5Y"}]}, {"type": "update", "value": {"channel_mapping": {"Points": [{"interpolation": 2, "co": {"X": 1.0, "Y": -1.0}}]}, "waveform": false, "title": "2.mp4", "image": "C:\\Users\\theor\\.openshot_qt\\thumbnail\\DRHCZ485TK.png", "perspective_c3_x": {"Points": [{"interpolation": 2, "co": {"X": 1.0, "Y": -1.0}}]}, "alpha": {"Points": [{"interpolation": 2, "co": {"X": 1.0, "Y": 1.0}}]}, "scale_y": {"Points": [{"interpolation": 2, "co": {"X": 1.0, "Y": 1.0}}]}, "duration": 76.0, "crop_x": {"Points": [{"interpolation": 2, "co": {"X": 1.0, "Y": 0.0}}]}, "time": {"Points": [{"interpolation": 1, "co": {"X": 1.0, "Y": 1.0}}, {"interpolation": 1, "co": {"X": 1858.0, "Y": 3715.0}}]}, "gravity": 4, "anchor": 0, "effects": [], "perspective_c3_y": {"Points": [{"interpolation": 2, "co": {"X": 1.0, "Y": -1.0}}]}, "file_id": "DRHCZ485TK", "has_video": {"Points": [{"interpolation": 2, "co": {"X": 1.0, "Y": -1.0}}]}, "wave_color": {"green": {"Points": [{"handle_right": {"X": 0.5, "Y": 0.0}, "handle_left": {"X": 0.5, "Y": 1.0}, "handle_type": 0, "co": {"X": 1.0, "Y": 123.0}, "interpolation": 0}]}, "alpha": {"Points": [{"handle_right": {"X": 0.5, "Y": 0.0}, "handle_left": {"X": 0.5, "Y": 1.0}, "handle_type": 0, "co": {"X": 1.0, "Y": 255.0}, "interpolation": 0}]}, "blue": {"Points": [{"handle_right": {"X": 0.5, "Y": 0.0}, "handle_left": {"X": 0.5, "Y": 1.0}, "handle_type": 0, "co": {"X": 1.0, "Y": 255.0}, "interpolation": 0}]}, "red": {"Points": [{"handle_right": {"X": 0.5, "Y": 0.0}, "handle_left": {"X": 0.5, "Y": 1.0}, "handle_type": 0, "co": {"X": 1.0, "Y": 0.0}, "interpolation": 0}]}}, "location_y": {"Points": [{"interpolation": 2, "co": {"X": 1.0, "Y": 0.0}}]}, "scale_x": {"Points": [{"interpolation": 2, "co": {"X": 1.0, "Y": 1.0}}]}, "has_audio": {"Points": [{"interpolation": 2, "co": {"X": 1.0, "Y": -1.0}}]}, "perspective_c2_x": {"Points": [{"interpolation": 2, "co": {"X": 1.0, "Y": -1.0}}]}, "display": 0, "channel_filter": {"Points": [{"interpolation": 2, "co": {"X": 1.0, "Y": -1.0}}]}, "volume": {"Points": [{"interpolation": 2, "co": {"X": 1.0, "Y": 1.0}}]}, "id": "S1HU8ISC5Y", "rotation": {"Points": [{"interpolation": 2, "co": {"X": 1.0, "Y": 0.0}}]}, "perspective_c1_x": {"Points": [{"interpolation": 2, "co": {"X": 1.0, "Y": -1.0}}]}, "crop_width": {"Points": [{"interpolation": 2, "co": {"X": 1.0, "Y": -1.0}}]}, "shear_y": {"Points": [{"interpolation": 2, "co": {"X": 1.0, "Y": 0.0}}]}, "location_x": {"Points": [{"interpolation": 2, "co": {"X": 1.0, "Y": 0.0}}]}, "position": 0, "end": 77.41666666666667, "crop_height": {"Points": [{"interpolation": 2, "co": {"X": 1.0, "Y": -1.0}}]}, "perspective_c2_y": {"Points": [{"interpolation": 2, "co": {"X": 1.0, "Y": -1.0}}]}, "crop_y": {"Points": [{"interpolation": 2, "co": {"X": 1.0, "Y": 0.0}}]}, "shear_x": {"Points": [{"interpolation": 2, "co": {"X": 1.0, "Y": 0.0}}]}, "start": 0, "layer": 0, "scale": 1, "perspective_c4_x": {"Points": [{"interpolation": 2, "co": {"X": 1.0, "Y": -1.0}}]}, "perspective_c1_y": {"Points": [{"interpolation": 2, "co": {"X": 1.0, "Y": -1.0}}]}, "perspective_c4_y": {"Points": [{"interpolation": 2, "co": {"X": 1.0, "Y": -1.0}}]}}, "partial": false, "old_values": {"waveform": false, "title": "2.mp4", "perspective_c3_x": {"Points": [{"interpolation": 2, "co": {"X": 1.0, "Y": -1.0}}]}, "alpha": {"Points": [{"interpolation": 2, "co": {"X": 1.0, "Y": 1.0}}]}, "crop_x": {"Points": [{"interpolation": 2, "co": {"X": 1.0, "Y": 0.0}}]}, "time": {"Points": [{"interpolation": 2, "co": {"X": 1.0, "Y": 1.0}}]}, "end": 309.5199890136719, "wave_color": {"green": {"Points": [{"handle_right": {"X": 0.5, "Y": 0.0}, "handle_left": {"X": 0.5, "Y": 1.0}, "handle_type": 0, "co": {"X": 1.0, "Y": 123.0}, "interpolation": 0}]}, "alpha": {"Points": [{"handle_right": {"X": 0.5, "Y": 0.0}, "handle_left": {"X": 0.5, "Y": 1.0}, "handle_type": 0, "co": {"X": 1.0, "Y": 255.0}, "interpolation": 0}]}, "blue": {"Points": [{"handle_right": {"X": 0.5, "Y": 0.0}, "handle_left": {"X": 0.5, "Y": 1.0}, "handle_type": 0, "co": {"X": 1.0, "Y": 255.0}, "interpolation": 0}]}, "red": {"Points": [{"handle_right": {"X": 0.5, "Y": 0.0}, "handle_left": {"X": 0.5, "Y": 1.0}, "handle_type": 0, "co": {"X": 1.0, "Y": 0.0}, "interpolation": 0}]}}, "perspective_c3_y": {"Points": [{"interpolation": 2, "co": {"X": 1.0, "Y": -1.0}}]}, "file_id": "DRHCZ485TK", "has_video": {"Points": [{"interpolation": 2, "co": {"X": 1.0, "Y": -1.0}}]}, "effects": [], "location_y": {"Points": [{"interpolation": 2, "co": {"X": 1.0, "Y": 0.0}}]}, "has_audio": {"Points": [{"interpolation": 2, "co": {"X": 1.0, "Y": -1.0}}]}, "display": 0, "reader": {"has_video": true, "path": "C:/Users/theor/Desktop/2.mp4", "width": 1280, "display_ratio": {"num": 16, "den": 9}, "audio_stream_index": -1, "pixel_ratio": {"num": 1, "den": 1}, "sample_rate": 0, "fps": {"num": 25, "den": 1}, "height": 720, "has_audio": false, "audio_bit_rate": 0, "channel_layout": 4, "channels": 0, "vcodec": "mpeg4", "audio_timebase": {"num": 1, "den": 1}, "file_size": "189413597", "has_single_image": false, "top_field_first": true, "interlaced_frame": false, "duration": 309.5199890136719, "acodec": "", "video_length": "7738", "pixel_format": 0, "type": "FFmpegReader", "video_timebase": {"num": 1, "den": 25}, "video_stream_index": 0, "video_bit_rate": 4895673}, "channel_filter": {"Points": [{"interpolation": 2, "co": {"X": 1.0, "Y": -1.0}}]}, "volume": {"Points": [{"interpolation": 2, "co": {"X": 1.0, "Y": 1.0}}]}, "perspective_c1_x": {"Points": [{"interpolation": 2, "co": {"X": 1.0, "Y": -1.0}}]}, "crop_width": {"Points": [{"interpolation": 2, "co": {"X": 1.0, "Y": -1.0}}]}, "shear_y": {"Points": [{"interpolation": 2, "co": {"X": 1.0, "Y": 0.0}}]}, "location_x": {"Points": [{"interpolation": 2, "co": {"X": 1.0, "Y": 0.0}}]}, "position": 0, "anchor": 0, "crop_y": {"Points": [{"interpolation": 2, "co": {"X": 1.0, "Y": 0.0}}]}, "shear_x": {"Points": [{"interpolation": 2, "co": {"X": 1.0, "Y": 0.0}}]}, "perspective_c2_x": {"Points": [{"interpolation": 2, "co": {"X": 1.0, "Y": -1.0}}]}, "perspective_c2_y": {"Points": [{"interpolation": 2, "co": {"X": 1.0, "Y": -1.0}}]}, "channel_mapping": {"Points": [{"interpolation": 2, "co": {"X": 1.0, "Y": -1.0}}]}, "perspective_c1_y": {"Points": [{"interpolation": 2, "co": {"X": 1.0, "Y": -1.0}}]}, "rotation": {"Points": [{"interpolation": 2, "co": {"X": 1.0, "Y": 0.0}}]}, "image": "C:\\Users\\theor\\.openshot_qt\\thumbnail\\DRHCZ485TK.png", "gravity": 4, "id": "S1HU8ISC5Y", "scale_x": {"Points": [{"interpolation": 2, "co": {"X": 1.0, "Y": 1.0}}]}, "perspective_c4_x": {"Points": [{"interpolation": 2, "co": {"X": 1.0, "Y": -1.0}}]}, "scale_y": {"Points": [{"interpolation": 2, "co": {"X": 1.0, "Y": 1.0}}]}, "scale": 1, "duration": 309.5199890136719, "crop_height": {"Points": [{"interpolation": 2, "co": {"X": 1.0, "Y": -1.0}}]}, "perspective_c4_y": {"Points": [{"interpolation": 2, "co": {"X": 1.0, "Y": -1.0}}]}, "start": 0, "layer": 0, "original_data": {"video_length": "7738", "duration": 154.0, "end": 154.79166666666666}}, "key": ["clips", {"id": "S1HU8ISC5Y"}]}, {"type": "update", "value": {"start": 0, "layer": 0, "id": "S1HU8ISC5Y", "image": "C:\\Users\\theor\\.openshot_qt\\thumbnail\\DRHCZ485TK.png", "position": 0, "end": 77.41666666666667}, "partial": false, "old_values": {"waveform": false, "title": "2.mp4", "perspective_c3_x": {"Points": [{"interpolation": 2, "co": {"X": 1.0, "Y": -1.0}}]}, "alpha": {"Points": [{"interpolation": 2, "co": {"X": 1.0, "Y": 1.0}}]}, "crop_x": {"Points": [{"interpolation": 2, "co": {"X": 1.0, "Y": 0.0}}]}, "time": {"Points": [{"interpolation": 1, "co": {"X": 1.0, "Y": 1.0}}, {"interpolation": 1, "co": {"X": 1858.0, "Y": 3715.0}}]}, "end": 77.41666666666667, "wave_color": {"red": {"Points": [{"handle_right": {"X": 0.5, "Y": 0.0}, "handle_left": {"X": 0.5, "Y": 1.0}, "handle_type": 0, "co": {"X": 1.0, "Y": 0.0}, "interpolation": 0}]}, "green": {"Points": [{"handle_right": {"X": 0.5, "Y": 0.0}, "handle_left": {"X": 0.5, "Y": 1.0}, "handle_type": 0, "co": {"X": 1.0, "Y": 123.0}, "interpolation": 0}]}, "blue": {"Points": [{"handle_right": {"X": 0.5, "Y": 0.0}, "handle_left": {"X": 0.5, "Y": 1.0}, "handle_type": 0, "co": {"X": 1.0, "Y": 255.0}, "interpolation": 0}]}, "alpha": {"Points": [{"handle_right": {"X": 0.5, "Y": 0.0}, "handle_left": {"X": 0.5, "Y": 1.0}, "handle_type": 0, "co": {"X": 1.0, "Y": 255.0}, "interpolation": 0}]}}, "perspective_c3_y": {"Points": [{"interpolation": 2, "co": {"X": 1.0, "Y": -1.0}}]}, "file_id": "DRHCZ485TK", "has_video": {"Points": [{"interpolation": 2, "co": {"X": 1.0, "Y": -1.0}}]}, "effects": [], "location_y": {"Points": [{"interpolation": 2, "co": {"X": 1.0, "Y": 0.0}}]}, "has_audio": {"Points": [{"interpolation": 2, "co": {"X": 1.0, "Y": -1.0}}]}, "display": 0, "reader": {"has_video": true, "path": "C:/Users/theor/Desktop/2.mp4", "width": 1280, "display_ratio": {"num": 16, "den": 9}, "audio_stream_index": -1, "pixel_ratio": {"num": 1, "den": 1}, "sample_rate": 0, "fps": {"num": 25, "den": 1}, "height": 720, "has_audio": false, "audio_bit_rate": 0, "channel_layout": 4, "channels": 0, "vcodec": "mpeg4", "audio_timebase": {"num": 1, "den": 1}, "file_size": "189413597", "has_single_image": false, "top_field_first": true, "interlaced_frame": false, "duration": 309.5199890136719, "acodec": "", "video_length": "7738", "pixel_format": 0, "type": "FFmpegReader", "video_timebase": {"num": 1, "den": 25}, "video_stream_index": 0, "video_bit_rate": 4895673}, "channel_filter": {"Points": [{"interpolation": 2, "co": {"X": 1.0, "Y": -1.0}}]}, "volume": {"Points": [{"interpolation": 2, "co": {"X": 1.0, "Y": 1.0}}]}, "perspective_c1_x": {"Points": [{"interpolation": 2, "co": {"X": 1.0, "Y": -1.0}}]}, "crop_width": {"Points": [{"interpolation": 2, "co": {"X": 1.0, "Y": -1.0}}]}, "shear_y": {"Points": [{"interpolation": 2, "co": {"X": 1.0, "Y": 0.0}}]}, "location_x": {"Points": [{"interpolation": 2, "co": {"X": 1.0, "Y": 0.0}}]}, "position": 0, "anchor": 0, "crop_y": {"Points": [{"interpolation": 2, "co": {"X": 1.0, "Y": 0.0}}]}, "shear_x": {"Points": [{"interpolation": 2, "co": {"X": 1.0, "Y": 0.0}}]}, "perspective_c2_x": {"Points": [{"interpolation": 2, "co": {"X": 1.0, "Y": -1.0}}]}, "perspective_c2_y": {"Points": [{"interpolation": 2, "co": {"X": 1.0, "Y": -1.0}}]}, "channel_mapping": {"Points": [{"interpolation": 2, "co": {"X": 1.0, "Y": -1.0}}]}, "perspective_c1_y": {"Points": [{"interpolation": 2, "co": {"X": 1.0, "Y": -1.0}}]}, "rotation": {"Points": [{"interpolation": 2, "co": {"X": 1.0, "Y": 0.0}}]}, "image": "C:\\Users\\theor\\.openshot_qt\\thumbnail\\DRHCZ485TK.png", "gravity": 4, "id": "S1HU8ISC5Y", "scale_x": {"Points": [{"interpolation": 2, "co": {"X": 1.0, "Y": 1.0}}]}, "perspective_c4_x": {"Points": [{"interpolation": 2, "co": {"X": 1.0, "Y": -1.0}}]}, "scale_y": {"Points": [{"interpolation": 2, "co": {"X": 1.0, "Y": 1.0}}]}, "scale": 1, "duration": 76.0, "crop_height": {"Points": [{"interpolation": 2, "co": {"X": 1.0, "Y": -1.0}}]}, "perspective_c4_y": {"Points": [{"interpolation": 2, "co": {"X": 1.0, "Y": -1.0}}]}, "start": 0, "layer": 0, "original_data": {"video_length": "7738", "duration": 154.0, "end": 154.79166666666666}}, "key": ["clips", {"id": "S1HU8ISC5Y"}]}, {"type": "delete", "value": null, "partial": false, "old_values": {"waveform": false, "title": "2.mp4", "perspective_c3_x": {"Points": [{"interpolation": 2, "co": {"X": 1.0, "Y": -1.0}}]}, "alpha": {"Points": [{"interpolation": 2, "co": {"X": 1.0, "Y": 1.0}}]}, "crop_x": {"Points": [{"interpolation": 2, "co": {"X": 1.0, "Y": 0.0}}]}, "time": {"Points": [{"interpolation": 1, "co": {"X": 1.0, "Y": 1.0}}, {"interpolation": 1, "co": {"X": 1858.0, "Y": 3715.0}}]}, "end": 77.41666666666667, "wave_color": {"red": {"Points": [{"handle_right": {"X": 0.5, "Y": 0.0}, "handle_left": {"X": 0.5, "Y": 1.0}, "handle_type": 0, "co": {"X": 1.0, "Y": 0.0}, "interpolation": 0}]}, "green": {"Points": [{"handle_right": {"X": 0.5, "Y": 0.0}, "handle_left": {"X": 0.5, "Y": 1.0}, "handle_type": 0, "co": {"X": 1.0, "Y": 123.0}, "interpolation": 0}]}, "blue": {"Points": [{"handle_right": {"X": 0.5, "Y": 0.0}, "handle_left": {"X": 0.5, "Y": 1.0}, "handle_type": 0, "co": {"X": 1.0, "Y": 255.0}, "interpolation": 0}]}, "alpha": {"Points": [{"handle_right": {"X": 0.5, "Y": 0.0}, "handle_left": {"X": 0.5, "Y": 1.0}, "handle_type": 0, "co": {"X": 1.0, "Y": 255.0}, "interpolation": 0}]}}, "perspective_c3_y": {"Points": [{"interpolation": 2, "co": {"X": 1.0, "Y": -1.0}}]}, "file_id": "DRHCZ485TK", "has_video": {"Points": [{"interpolation": 2, "co": {"X": 1.0, "Y": -1.0}}]}, "effects": [], "location_y": {"Points": [{"interpolation": 2, "co": {"X": 1.0, "Y": 0.0}}]}, "has_audio": {"Points": [{"interpolation": 2, "co": {"X": 1.0, "Y": -1.0}}]}, "display": 0, "reader": {"has_video": true, "path": "C:/Users/theor/Desktop/2.mp4", "width": 1280, "display_ratio": {"num": 16, "den": 9}, "audio_stream_index": -1, "pixel_ratio": {"num": 1, "den": 1}, "sample_rate": 0, "fps": {"num": 25, "den": 1}, "height": 720, "has_audio": false, "audio_bit_rate": 0, "channel_layout": 4, "channels": 0, "vcodec": "mpeg4", "audio_timebase": {"num": 1, "den": 1}, "file_size": "189413597", "has_single_image": false, "top_field_first": true, "interlaced_frame": false, "duration": 309.5199890136719, "acodec": "", "video_length": "7738", "pixel_format": 0, "type": "FFmpegReader", "video_timebase": {"num": 1, "den": 25}, "video_stream_index": 0, "video_bit_rate": 4895673}, "channel_filter": {"Points": [{"interpolation": 2, "co": {"X": 1.0, "Y": -1.0}}]}, "volume": {"Points": [{"interpolation": 2, "co": {"X": 1.0, "Y": 1.0}}]}, "perspective_c1_x": {"Points": [{"interpolation": 2, "co": {"X": 1.0, "Y": -1.0}}]}, "crop_width": {"Points": [{"interpolation": 2, "co": {"X": 1.0, "Y": -1.0}}]}, "shear_y": {"Points": [{"interpolation": 2, "co": {"X": 1.0, "Y": 0.0}}]}, "location_x": {"Points": [{"interpolation": 2, "co": {"X": 1.0, "Y": 0.0}}]}, "position": 0, "anchor": 0, "crop_y": {"Points": [{"interpolation": 2, "co": {"X": 1.0, "Y": 0.0}}]}, "shear_x": {"Points": [{"interpolation": 2, "co": {"X": 1.0, "Y": 0.0}}]}, "perspective_c2_x": {"Points": [{"interpolation": 2, "co": {"X": 1.0, "Y": -1.0}}]}, "perspective_c2_y": {"Points": [{"interpolation": 2, "co": {"X": 1.0, "Y": -1.0}}]}, "channel_mapping": {"Points": [{"interpolation": 2, "co": {"X": 1.0, "Y": -1.0}}]}, "perspective_c1_y": {"Points": [{"interpolation": 2, "co": {"X": 1.0, "Y": -1.0}}]}, "rotation": {"Points": [{"interpolation": 2, "co": {"X": 1.0, "Y": 0.0}}]}, "image": "C:\\Users\\theor\\.openshot_qt\\thumbnail\\DRHCZ485TK.png", "gravity": 4, "id": "S1HU8ISC5Y", "scale_x": {"Points": [{"interpolation": 2, "co": {"X": 1.0, "Y": 1.0}}]}, "perspective_c4_x": {"Points": [{"interpolation": 2, "co": {"X": 1.0, "Y": -1.0}}]}, "scale_y": {"Points": [{"interpolation": 2, "co": {"X": 1.0, "Y": 1.0}}]}, "scale": 1, "duration": 76.0, "crop_height": {"Points": [{"interpolation": 2, "co": {"X": 1.0, "Y": -1.0}}]}, "perspective_c4_y": {"Points": [{"interpolation": 2, "co": {"X": 1.0, "Y": -1.0}}]}, "start": 0, "layer": 0, "original_data": {"video_length": "7738", "duration": 154.0, "end": 154.79166666666666}}, "key": ["clips", {"id": "S1HU8ISC5Y"}]}, {"type": "insert", "value": {"channel_mapping": {"Points": [{"interpolation": 2, "co": {"X": 1.0, "Y": -1.0}}]}, "title": "2.mp4", "perspective_c3_x": {"Points": [{"interpolation": 2, "co": {"X": 1.0, "Y": -1.0}}]}, "alpha": {"Points": [{"interpolation": 2, "co": {"X": 1.0, "Y": 1.0}}]}, "crop_x": {"Points": [{"interpolation": 2, "co": {"X": 1.0, "Y": 0.0}}]}, "time": {"Points": [{"interpolation": 2, "co": {"X": 1.0, "Y": 1.0}}]}, "end": 309.5199890136719, "effects": [], "perspective_c3_y": {"Points": [{"interpolation": 2, "co": {"X": 1.0, "Y": -1.0}}]}, "file_id": "DRHCZ485TK", "has_video": {"Points": [{"interpolation": 2, "co": {"X": 1.0, "Y": -1.0}}]}, "wave_color": {"red": {"Points": [{"handle_right": {"X": 0.5, "Y": 0.0}, "handle_left": {"X": 0.5, "Y": 1.0}, "handle_type": 0, "co": {"X": 1.0, "Y": 0.0}, "interpolation": 0}]}, "green": {"Points": [{"handle_right": {"X": 0.5, "Y": 0.0}, "handle_left": {"X": 0.5, "Y": 1.0}, "handle_type": 0, "co": {"X": 1.0, "Y": 123.0}, "interpolation": 0}]}, "blue": {"Points": [{"handle_right": {"X": 0.5, "Y": 0.0}, "handle_left": {"X": 0.5, "Y": 1.0}, "handle_type": 0, "co": {"X": 1.0, "Y": 255.0}, "interpolation": 0}]}, "alpha": {"Points": [{"handle_right": {"X": 0.5, "Y": 0.0}, "handle_left": {"X": 0.5, "Y": 1.0}, "handle_type": 0, "co": {"X": 1.0, "Y": 255.0}, "interpolation": 0}]}}, "location_y": {"Points": [{"interpolation": 2, "co": {"X": 1.0, "Y": 0.0}}]}, "has_audio": {"Points": [{"interpolation": 2, "co": {"X": 1.0, "Y": -1.0}}]}, "display": 0, "reader": {"fps": {"num": 25, "den": 1}, "path": "C:/Users/theor/Desktop/2.mp4", "width": 1280, "display_ratio": {"num": 16, "den": 9}, "pixel_ratio": {"num": 1, "den": 1}, "sample_rate": 0, "has_video": true, "height": 720, "has_audio": false, "video_timebase": {"num": 1, "den": 25}, "channel_layout": 4, "channels": 0, "vcodec": "mpeg4", "audio_timebase": {"num": 1, "den": 1}, "file_size": "189413597", "has_single_image": false, "top_field_first": true, "interlaced_frame": false, "duration": 309.5199890136719, "video_stream_index": 0, "acodec": "", "video_length": "7738", "pixel_format": 0, "type": "FFmpegReader", "audio_bit_rate": 0, "audio_stream_index": -1, "video_bit_rate": 4895673}, "channel_filter": {"Points": [{"interpolation": 2, "co": {"X": 1.0, "Y": -1.0}}]}, "volume": {"Points": [{"interpolation": 2, "co": {"X": 1.0, "Y": 1.0}}]}, "perspective_c1_x": {"Points": [{"interpolation": 2, "co": {"X": 1.0, "Y": -1.0}}]}, "crop_width": {"Points": [{"interpolation": 2, "co": {"X": 1.0, "Y": -1.0}}]}, "shear_y": {"Points": [{"interpolation": 2, "co": {"X": 1.0, "Y": 0.0}}]}, "location_x": {"Points": [{"interpolation": 2, "co": {"X": 1.0, "Y": 0.0}}]}, "position": 0, "anchor": 0, "crop_y": {"Points": [{"interpolation": 2, "co": {"X": 1.0, "Y": 0.0}}]}, "shear_x": {"Points": [{"interpolation": 2, "co": {"X": 1.0, "Y": 0.0}}]}, "perspective_c4_x": {"Points": [{"interpolation": 2, "co": {"X": 1.0, "Y": -1.0}}]}, "perspective_c4_y": {"Points": [{"interpolation": 2, "co": {"X": 1.0, "Y": -1.0}}]}, "waveform": false, "layer": 0, "rotation": {"Points": [{"interpolation": 2, "co": {"X": 1.0, "Y": 0.0}}]}, "image": "C:\\Users\\theor\\.openshot_qt\\thumbnail\\DRHCZ485TK.png", "gravity": 4, "id": "PNIRIXF0Z9", "scale_x": {"Points": [{"interpolation": 2, "co": {"X": 1.0, "Y": 1.0}}]}, "perspective_c2_x": {"Points": [{"interpolation": 2, "co": {"X": 1.0, "Y": -1.0}}]}, "scale_y": {"Points": [{"interpolation": 2, "co": {"X": 1.0, "Y": 1.0}}]}, "scale": 1, "duration": 309.5199890136719, "crop_height": {"Points": [{"interpolation": 2, "co": {"X": 1.0, "Y": -1.0}}]}, "perspective_c2_y": {"Points": [{"interpolation": 2, "co": {"X": 1.0, "Y": -1.0}}]}, "start": 0, "perspective_c1_y": {"Points": [{"interpolation": 2, "co": {"X": 1.0, "Y": -1.0}}]}, "original_data": {"video_length": "7738", "duration": 154.0, "end": 154.79166666666666}}, "partial": false, "old_values": [{"waveform": false, "channel_mapping": {"Points": [{"interpolation": 2, "co": {"X": 1.0, "Y": -1.0}}]}, "title": "Hello_.m4a", "time": {"Points": [{"interpolation": 2, "co": {"X": 1.0, "Y": 1.0}}]}, "perspective_c3_x": {"Points": [{"interpolation": 2, "co": {"X": 1.0, "Y": -1.0}}]}, "alpha": {"Points": [{"interpolation": 2, "co": {"X": 1.0, "Y": 1.0}}]}, "channel_filter": {"Points": [{"interpolation": 2, "co": {"X": 1.0, "Y": -1.0}}]}, "position": 0, "crop_x": {"Points": [{"interpolation": 2, "co": {"X": 1.0, "Y": 0.0}}]}, "image": "C:\\Program Files\\OpenShot Video Editor\\images\\AudioThumbnail.png", "gravity": 4, "end": 163.4220428466797, "wave_color": {"green": {"Points": [{"handle_right": {"X": 0.5, "Y": 0.0}, "handle_left": {"X": 0.5, "Y": 1.0}, "handle_type": 0, "co": {"X": 1.0, "Y": 123.0}, "interpolation": 0}]}, "alpha": {"Points": [{"handle_right": {"X": 0.5, "Y": 0.0}, "handle_left": {"X": 0.5, "Y": 1.0}, "handle_type": 0, "co": {"X": 1.0, "Y": 255.0}, "interpolation": 0}]}, "blue": {"Points": [{"handle_right": {"X": 0.5, "Y": 0.0}, "handle_left": {"X": 0.5, "Y": 1.0}, "handle_type": 0, "co": {"X": 1.0, "Y": 255.0}, "interpolation": 0}]}, "red": {"Points": [{"handle_right": {"X": 0.5, "Y": 0.0}, "handle_left": {"X": 0.5, "Y": 1.0}, "handle_type": 0, "co": {"X": 1.0, "Y": 0.0}, "interpolation": 0}]}}, "perspective_c3_y": {"Points": [{"interpolation": 2, "co": {"X": 1.0, "Y": -1.0}}]}, "file_id": "844VBPFXHL", "has_video": {"Points": [{"interpolation": 2, "co": {"X": 1.0, "Y": -1.0}}]}, "effects": [], "location_y": {"Points": [{"interpolation": 2, "co": {"X": 1.0, "Y": 0.0}}]}, "scale_x": {"Points": [{"interpolation": 2, "co": {"X": 1.0, "Y": 1.0}}]}, "has_audio": {"Points": [{"interpolation": 2, "co": {"X": 1.0, "Y": -1.0}}]}, "perspective_c2_x": {"Points": [{"interpolation": 2, "co": {"X": 1.0, "Y": -1.0}}]}, "display": 0, "reader": {"has_video": false, "path": "C:/Dropbox/GitHub/Cannery District - Eau Claire/Transfer/20190228 - video animination/Hello_.m4a", "width": 720, "display_ratio": {"num": 1, "den": 1}, "audio_stream_index": 0, "pixel_ratio": {"num": 1, "den": 1}, "sample_rate": 44100, "fps": {"num": 24, "den": 1}, "height": 480, "has_audio": true, "audio_bit_rate": 254854, "channel_layout": 3, "channels": 2, "vcodec": "", "audio_timebase": {"num": 1, "den": 44100}, "file_size": "5263452", "has_single_image": false, "top_field_first": true, "interlaced_frame": false, "duration": 163.4220428466797, "acodec": "aac", "video_length": "3922", "pixel_format": -1, "type": "FFmpegReader", "video_timebase": {"num": 1, "den": 24}, "video_stream_index": -1, "video_bit_rate": 0}, "scale_y": {"Points": [{"interpolation": 2, "co": {"X": 1.0, "Y": 1.0}}]}, "volume": {"Points": [{"interpolation": 2, "co": {"X": 1.0, "Y": 1.0}}]}, "id": "AN7OLTM9OC", "rotation": {"Points": [{"interpolation": 2, "co": {"X": 1.0, "Y": 0.0}}]}, "perspective_c1_x": {"Points": [{"interpolation": 2, "co": {"X": 1.0, "Y": -1.0}}]}, "crop_width": {"Points": [{"interpolation": 2, "co": {"X": 1.0, "Y": -1.0}}]}, "shear_y": {"Points": [{"interpolation": 2, "co": {"X": 1.0, "Y": 0.0}}]}, "location_x": {"Points": [{"interpolation": 2, "co": {"X": 1.0, "Y": 0.0}}]}, "duration": 163.4220428466797, "anchor": 0, "crop_height": {"Points": [{"interpolation": 2, "co": {"X": 1.0, "Y": -1.0}}]}, "perspective_c2_y": {"Points": [{"interpolation": 2, "co": {"X": 1.0, "Y": -1.0}}]}, "crop_y": {"Points": [{"interpolation": 2, "co": {"X": 1.0, "Y": 0.0}}]}, "shear_x": {"Points": [{"interpolation": 2, "co": {"X": 1.0, "Y": 0.0}}]}, "start": 0, "perspective_c1_y": {"Points": [{"interpolation": 2, "co": {"X": 1.0, "Y": -1.0}}]}, "scale": 1, "perspective_c4_x": {"Points": [{"interpolation": 2, "co": {"X": 1.0, "Y": -1.0}}]}, "perspective_c4_y": {"Points": [{"interpolation": 2, "co": {"X": 1.0, "Y": -1.0}}]}, "layer": 1}], "key": ["clips"]}, {"type": "update", "value": {"start": 0, "layer": 0, "id": "PNIRIXF0Z9", "image": "C:\\Users\\theor\\.openshot_qt\\thumbnail\\DRHCZ485TK.png", "position": 29.04, "end": 309.5199890136719}, "partial": false, "old_values": {"channel_mapping": {"Points": [{"interpolation": 2, "co": {"X": 1.0, "Y": -1.0}}]}, "waveform": false, "title": "2.mp4", "time": {"Points": [{"interpolation": 2, "co": {"X": 1.0, "Y": 1.0}}]}, "perspective_c3_x": {"Points": [{"interpolation": 2, "co": {"X": 1.0, "Y": -1.0}}]}, "alpha": {"Points": [{"interpolation": 2, "co": {"X": 1.0, "Y": 1.0}}]}, "channel_filter": {"Points": [{"interpolation": 2, "co": {"X": 1.0, "Y": -1.0}}]}, "duration": 309.5199890136719, "crop_x": {"Points": [{"interpolation": 2, "co": {"X": 1.0, "Y": 0.0}}]}, "image": "C:\\Users\\theor\\.openshot_qt\\thumbnail\\DRHCZ485TK.png", "gravity": 4, "anchor": 0, "effects": [], "perspective_c3_y": {"Points": [{"interpolation": 2, "co": {"X": 1.0, "Y": -1.0}}]}, "file_id": "DRHCZ485TK", "has_video": {"Points": [{"interpolation": 2, "co": {"X": 1.0, "Y": -1.0}}]}, "id": "PNIRIXF0Z9", "location_y": {"Points": [{"interpolation": 2, "co": {"X": 1.0, "Y": 0.0}}]}, "scale_x": {"Points": [{"interpolation": 2, "co": {"X": 1.0, "Y": 1.0}}]}, "has_audio": {"Points": [{"interpolation": 2, "co": {"X": 1.0, "Y": -1.0}}]}, "layer": 4, "display": 0, "reader": {"has_video": true, "path": "C:/Users/theor/Desktop/2.mp4", "width": 1280, "display_ratio": {"num": 16, "den": 9}, "audio_stream_index": -1, "pixel_ratio": {"num": 1, "den": 1}, "sample_rate": 0, "fps": {"num": 25, "den": 1}, "height": 720, "has_audio": false, "audio_bit_rate": 0, "channel_layout": 4, "channels": 0, "vcodec": "mpeg4", "audio_timebase": {"num": 1, "den": 1}, "file_size": "189413597", "has_single_image": false, "top_field_first": true, "interlaced_frame": false, "duration": 309.5199890136719, "acodec": "", "video_length": "7738", "pixel_format": 0, "type": "FFmpegReader", "video_timebase": {"num": 1, "den": 25}, "video_stream_index": 0, "video_bit_rate": 4895673}, "scale_y": {"Points": [{"interpolation": 2, "co": {"X": 1.0, "Y": 1.0}}]}, "volume": {"Points": [{"interpolation": 2, "co": {"X": 1.0, "Y": 1.0}}]}, "rotation": {"Points": [{"interpolation": 2, "co": {"X": 1.0, "Y": 0.0}}]}, "perspective_c1_x": {"Points": [{"interpolation": 2, "co": {"X": 1.0, "Y": -1.0}}]}, "crop_width": {"Points": [{"interpolation": 2, "co": {"X": 1.0, "Y": -1.0}}]}, "scale": 1, "location_x": {"Points": [{"interpolation": 2, "co": {"X": 1.0, "Y": 0.0}}]}, "position": 0.0, "end": 309.5199890136719, "crop_height": {"Points": [{"interpolation": 2, "co": {"X": 1.0, "Y": -1.0}}]}, "perspective_c2_y": {"Points": [{"interpolation": 2, "co": {"X": 1.0, "Y": -1.0}}]}, "crop_y": {"Points": [{"interpolation": 2, "co": {"X": 1.0, "Y": 0.0}}]}, "wave_color": {"green": {"Points": [{"handle_right": {"X": 0.5, "Y": 0.0}, "handle_left": {"X": 0.5, "Y": 1.0}, "handle_type": 0, "co": {"X": 1.0, "Y": 123.0}, "interpolation": 0}]}, "alpha": {"Points": [{"handle_right": {"X": 0.5, "Y": 0.0}, "handle_left": {"X": 0.5, "Y": 1.0}, "handle_type": 0, "co": {"X": 1.0, "Y": 255.0}, "interpolation": 0}]}, "blue": {"Points": [{"handle_right": {"X": 0.5, "Y": 0.0}, "handle_left": {"X": 0.5, "Y": 1.0}, "handle_type": 0, "co": {"X": 1.0, "Y": 255.0}, "interpolation": 0}]}, "red": {"Points": [{"handle_right": {"X": 0.5, "Y": 0.0}, "handle_left": {"X": 0.5, "Y": 1.0}, "handle_type": 0, "co": {"X": 1.0, "Y": 0.0}, "interpolation": 0}]}}, "shear_x": {"Points": [{"interpolation": 2, "co": {"X": 1.0, "Y": 0.0}}]}, "start": 0.0, "perspective_c1_y": {"Points": [{"interpolation": 2, "co": {"X": 1.0, "Y": -1.0}}]}, "shear_y": {"Points": [{"interpolation": 2, "co": {"X": 1.0, "Y": 0.0}}]}, "perspective_c2_x": {"Points": [{"interpolation": 2, "co": {"X": 1.0, "Y": -1.0}}]}, "perspective_c4_y": {"Points": [{"interpolation": 2, "co": {"X": 1.0, "Y": -1.0}}]}, "perspective_c4_x": {"Points": [{"interpolation": 2, "co": {"X": 1.0, "Y": -1.0}}]}}, "key": ["clips", {"id": "PNIRIXF0Z9"}]}, {"type": "update", "value": {"start": 0, "layer": 0, "id": "PNIRIXF0Z9", "image": "C:\\Users\\theor\\.openshot_qt\\thumbnail\\DRHCZ485TK.png", "position": 0, "end": 309.5199890136719}, "partial": false, "old_values": {"waveform": false, "channel_mapping": {"Points": [{"interpolation": 2, "co": {"X": 1.0, "Y": -1.0}}]}, "title": "2.mp4", "time": {"Points": [{"interpolation": 2, "co": {"X": 1.0, "Y": 1.0}}]}, "perspective_c3_x": {"Points": [{"interpolation": 2, "co": {"X": 1.0, "Y": -1.0}}]}, "alpha": {"Points": [{"interpolation": 2, "co": {"X": 1.0, "Y": 1.0}}]}, "channel_filter": {"Points": [{"interpolation": 2, "co": {"X": 1.0, "Y": -1.0}}]}, "position": 29.04, "crop_x": {"Points": [{"interpolation": 2, "co": {"X": 1.0, "Y": 0.0}}]}, "image": "C:\\Users\\theor\\.openshot_qt\\thumbnail\\DRHCZ485TK.png", "gravity": 4, "end": 309.5199890136719, "wave_color": {"green": {"Points": [{"handle_right": {"X": 0.5, "Y": 0.0}, "handle_left": {"X": 0.5, "Y": 1.0}, "handle_type": 0, "co": {"X": 1.0, "Y": 123.0}, "interpolation": 0}]}, "alpha": {"Points": [{"handle_right": {"X": 0.5, "Y": 0.0}, "handle_left": {"X": 0.5, "Y": 1.0}, "handle_type": 0, "co": {"X": 1.0, "Y": 255.0}, "interpolation": 0}]}, "blue": {"Points": [{"handle_right": {"X": 0.5, "Y": 0.0}, "handle_left": {"X": 0.5, "Y": 1.0}, "handle_type": 0, "co": {"X": 1.0, "Y": 255.0}, "interpolation": 0}]}, "red": {"Points": [{"handle_right": {"X": 0.5, "Y": 0.0}, "handle_left": {"X": 0.5, "Y": 1.0}, "handle_type": 0, "co": {"X": 1.0, "Y": 0.0}, "interpolation": 0}]}}, "perspective_c3_y": {"Points": [{"interpolation": 2, "co": {"X": 1.0, "Y": -1.0}}]}, "file_id": "DRHCZ485TK", "has_video": {"Points": [{"interpolation": 2, "co": {"X": 1.0, "Y": -1.0}}]}, "effects": [], "location_y": {"Points": [{"interpolation": 2, "co": {"X": 1.0, "Y": 0.0}}]}, "scale_x": {"Points": [{"interpolation": 2, "co": {"X": 1.0, "Y": 1.0}}]}, "has_audio": {"Points": [{"interpolation": 2, "co": {"X": 1.0, "Y": -1.0}}]}, "perspective_c2_x": {"Points": [{"interpolation": 2, "co": {"X": 1.0, "Y": -1.0}}]}, "display": 0, "reader": {"has_video": true, "path": "C:/Users/theor/Desktop/2.mp4", "width": 1280, "display_ratio": {"num": 16, "den": 9}, "audio_stream_index": -1, "pixel_ratio": {"num": 1, "den": 1}, "sample_rate": 0, "fps": {"num": 25, "den": 1}, "height": 720, "has_audio": false, "audio_bit_rate": 0, "channel_layout": 4, "channels": 0, "vcodec": "mpeg4", "audio_timebase": {"num": 1, "den": 1}, "file_size": "189413597", "has_single_image": false, "top_field_first": true, "interlaced_frame": false, "duration": 309.5199890136719, "acodec": "", "video_length": "7738", "pixel_format": 0, "type": "FFmpegReader", "video_timebase": {"num": 1, "den": 25}, "video_stream_index": 0, "video_bit_rate": 4895673}, "scale_y": {"Points": [{"interpolation": 2, "co": {"X": 1.0, "Y": 1.0}}]}, "volume": {"Points": [{"interpolation": 2, "co": {"X": 1.0, "Y": 1.0}}]}, "id": "PNIRIXF0Z9", "rotation": {"Points": [{"interpolation": 2, "co": {"X": 1.0, "Y": 0.0}}]}, "perspective_c1_x": {"Points": [{"interpolation": 2, "co": {"X": 1.0, "Y": -1.0}}]}, "crop_width": {"Points": [{"interpolation": 2, "co": {"X": 1.0, "Y": -1.0}}]}, "shear_y": {"Points": [{"interpolation": 2, "co": {"X": 1.0, "Y": 0.0}}]}, "location_x": {"Points": [{"interpolation": 2, "co": {"X": 1.0, "Y": 0.0}}]}, "duration": 309.5199890136719, "anchor": 0, "crop_height": {"Points": [{"interpolation": 2, "co": {"X": 1.0, "Y": -1.0}}]}, "perspective_c2_y": {"Points": [{"interpolation": 2, "co": {"X": 1.0, "Y": -1.0}}]}, "crop_y": {"Points": [{"interpolation": 2, "co": {"X": 1.0, "Y": 0.0}}]}, "shear_x": {"Points": [{"interpolation": 2, "co": {"X": 1.0, "Y": 0.0}}]}, "start": 0, "perspective_c1_y": {"Points": [{"interpolation": 2, "co": {"X": 1.0, "Y": -1.0}}]}, "scale": 1, "perspective_c4_x": {"Points": [{"interpolation": 2, "co": {"X": 1.0, "Y": -1.0}}]}, "perspective_c4_y": {"Points": [{"interpolation": 2, "co": {"X": 1.0, "Y": -1.0}}]}, "layer": 0}, "key": ["clips", {"id": "PNIRIXF0Z9"}]}, {"type": "delete", "value": null, "partial": false, "old_values": {"waveform": false, "title": "2.mp4", "perspective_c3_x": {"Points": [{"interpolation": 2, "co": {"X": 1.0, "Y": -1.0}}]}, "alpha": {"Points": [{"interpolation": 2, "co": {"X": 1.0, "Y": 1.0}}]}, "crop_x": {"Points": [{"interpolation": 2, "co": {"X": 1.0, "Y": 0.0}}]}, "time": {"Points": [{"interpolation": 2, "co": {"X": 1.0, "Y": 1.0}}]}, "end": 309.5199890136719, "wave_color": {"green": {"Points": [{"handle_right": {"X": 0.5, "Y": 0.0}, "handle_left": {"X": 0.5, "Y": 1.0}, "handle_type": 0, "co": {"X": 1.0, "Y": 123.0}, "interpolation": 0}]}, "alpha": {"Points": [{"handle_right": {"X": 0.5, "Y": 0.0}, "handle_left": {"X": 0.5, "Y": 1.0}, "handle_type": 0, "co": {"X": 1.0, "Y": 255.0}, "interpolation": 0}]}, "blue": {"Points": [{"handle_right": {"X": 0.5, "Y": 0.0}, "handle_left": {"X": 0.5, "Y": 1.0}, "handle_type": 0, "co": {"X": 1.0, "Y": 255.0}, "interpolation": 0}]}, "red": {"Points": [{"handle_right": {"X": 0.5, "Y": 0.0}, "handle_left": {"X": 0.5, "Y": 1.0}, "handle_type": 0, "co": {"X": 1.0, "Y": 0.0}, "interpolation": 0}]}}, "perspective_c3_y": {"Points": [{"interpolation": 2, "co": {"X": 1.0, "Y": -1.0}}]}, "file_id": "DRHCZ485TK", "has_video": {"Points": [{"interpolation": 2, "co": {"X": 1.0, "Y": -1.0}}]}, "effects": [], "location_y": {"Points": [{"interpolation": 2, "co": {"X": 1.0, "Y": 0.0}}]}, "has_audio": {"Points": [{"interpolation": 2, "co": {"X": 1.0, "Y": -1.0}}]}, "display": 0, "reader": {"has_video": true, "path": "C:/Users/theor/Desktop/2.mp4", "width": 1280, "display_ratio": {"num": 16, "den": 9}, "audio_stream_index": -1, "pixel_ratio": {"num": 1, "den": 1}, "sample_rate": 0, "fps": {"num": 25, "den": 1}, "height": 720, "has_audio": false, "audio_bit_rate": 0, "channel_layout": 4, "channels": 0, "vcodec": "mpeg4", "audio_timebase": {"num": 1, "den": 1}, "file_size": "189413597", "has_single_image": false, "top_field_first": true, "interlaced_frame": false, "duration": 309.5199890136719, "acodec": "", "video_length": "7738", "pixel_format": 0, "type": "FFmpegReader", "video_timebase": {"num": 1, "den": 25}, "video_stream_index": 0, "video_bit_rate": 4895673}, "channel_filter": {"Points": [{"interpolation": 2, "co": {"X": 1.0, "Y": -1.0}}]}, "volume": {"Points": [{"interpolation": 2, "co": {"X": 1.0, "Y": 1.0}}]}, "perspective_c1_x": {"Points": [{"interpolation": 2, "co": {"X": 1.0, "Y": -1.0}}]}, "crop_width": {"Points": [{"interpolation": 2, "co": {"X": 1.0, "Y": -1.0}}]}, "shear_y": {"Points": [{"interpolation": 2, "co": {"X": 1.0, "Y": 0.0}}]}, "location_x": {"Points": [{"interpolation": 2, "co": {"X": 1.0, "Y": 0.0}}]}, "position": 0, "anchor": 0, "crop_y": {"Points": [{"interpolation": 2, "co": {"X": 1.0, "Y": 0.0}}]}, "shear_x": {"Points": [{"interpolation": 2, "co": {"X": 1.0, "Y": 0.0}}]}, "perspective_c2_x": {"Points": [{"interpolation": 2, "co": {"X": 1.0, "Y": -1.0}}]}, "perspective_c2_y": {"Points": [{"interpolation": 2, "co": {"X": 1.0, "Y": -1.0}}]}, "channel_mapping": {"Points": [{"interpolation": 2, "co": {"X": 1.0, "Y": -1.0}}]}, "perspective_c1_y": {"Points": [{"interpolation": 2, "co": {"X": 1.0, "Y": -1.0}}]}, "rotation": {"Points": [{"interpolation": 2, "co": {"X": 1.0, "Y": 0.0}}]}, "image": "C:\\Users\\theor\\.openshot_qt\\thumbnail\\DRHCZ485TK.png", "gravity": 4, "id": "PNIRIXF0Z9", "scale_x": {"Points": [{"interpolation": 2, "co": {"X": 1.0, "Y": 1.0}}]}, "perspective_c4_x": {"Points": [{"interpolation": 2, "co": {"X": 1.0, "Y": -1.0}}]}, "scale_y": {"Points": [{"interpolation": 2, "co": {"X": 1.0, "Y": 1.0}}]}, "scale": 1, "duration": 309.5199890136719, "crop_height": {"Points": [{"interpolation": 2, "co": {"X": 1.0, "Y": -1.0}}]}, "perspective_c4_y": {"Points": [{"interpolation": 2, "co": {"X": 1.0, "Y": -1.0}}]}, "start": 0, "layer": 0, "original_data": {"video_length": "7738", "duration": 154.0, "end": 154.79166666666666}}, "key": ["clips", {"id": "PNIRIXF0Z9"}]}, {"type": "insert", "value": {"channel_mapping": {"Points": [{"interpolation": 2, "co": {"X": 1.0, "Y": -1.0}}]}, "title": "2.mp4", "perspective_c3_x": {"Points": [{"interpolation": 2, "co": {"X": 1.0, "Y": -1.0}}]}, "alpha": {"Points": [{"interpolation": 2, "co": {"X": 1.0, "Y": 1.0}}]}, "crop_x": {"Points": [{"interpolation": 2, "co": {"X": 1.0, "Y": 0.0}}]}, "time": {"Points": [{"interpolation": 1, "co": {"X": 1.0, "Y": 1.0}}, {"interpolation": 1, "co": {"X": 3683.0, "Y": 7365.0}}, {"interpolation": 1, "co": {"X": 3923.0, "Y": 7365.0}}, {"interpolation": 1, "co": {"X": 3937.0, "Y": 3697.0}}]}, "end": 162.72, "effects": [], "perspective_c3_y": {"Points": [{"interpolation": 2, "co": {"X": 1.0, "Y": -1.0}}]}, "file_id": "DRHCZ485TK", "has_video": {"Points": [{"interpolation": 2, "co": {"X": 1.0, "Y": -1.0}}]}, "wave_color": {"green": {"Points": [{"handle_right": {"X": 0.5, "Y": 0.0}, "handle_left": {"X": 0.5, "Y": 1.0}, "handle_type": 0, "co": {"X": 1.0, "Y": 123.0}, "interpolation": 0}]}, "alpha": {"Points": [{"handle_right": {"X": 0.5, "Y": 0.0}, "handle_left": {"X": 0.5, "Y": 1.0}, "handle_type": 0, "co": {"X": 1.0, "Y": 255.0}, "interpolation": 0}]}, "blue": {"Points": [{"handle_right": {"X": 0.5, "Y": 0.0}, "handle_left": {"X": 0.5, "Y": 1.0}, "handle_type": 0, "co": {"X": 1.0, "Y": 255.0}, "interpolation": 0}]}, "red": {"Points": [{"handle_right": {"X": 0.5, "Y": 0.0}, "handle_left": {"X": 0.5, "Y": 1.0}, "handle_type": 0, "co": {"X": 1.0, "Y": 0.0}, "interpolation": 0}]}}, "location_y": {"Points": [{"interpolation": 2, "co": {"X": 1.0, "Y": 0.0}}]}, "has_audio": {"Points": [{"interpolation": 2, "co": {"X": 1.0, "Y": -1.0}}]}, "display": 0, "reader": {"fps": {"num": 25, "den": 1}, "path": "C:\\Users\\theor\\Desktop\\2.mp4", "width": 1280, "display_ratio": {"num": 16, "den": 9}, "pixel_ratio": {"num": 1, "den": 1}, "sample_rate": 0, "has_video": true, "height": 720, "has_audio": false, "video_timebase": {"num": 1, "den": 25}, "channel_layout": 4, "channels": 0, "vcodec": "mpeg4", "audio_timebase": {"num": 1, "den": 1}, "file_size": "189413597", "has_single_image": false, "top_field_first": true, "interlaced_frame": false, "duration": 309.5199890136719, "video_stream_index": 0, "acodec": "", "video_length": "7738", "pixel_format": 0, "type": "FFmpegReader", "audio_bit_rate": 0, "audio_stream_index": -1, "video_bit_rate": 4895673}, "channel_filter": {"Points": [{"interpolation": 2, "co": {"X": 1.0, "Y": -1.0}}]}, "volume": {"Points": [{"interpolation": 2, "co": {"X": 1.0, "Y": 1.0}}, {"interpolation": 1, "co": {"X": 3682.0, "Y": 1.0}}, {"interpolation": 1, "co": {"X": 3683.0, "Y": 0.0}}, {"interpolation": 1, "co": {"X": 3922.0, "Y": 0.0}}, {"interpolation": 1, "co": {"X": 3923.0, "Y": 1.0}}]}, "perspective_c1_x": {"Points": [{"interpolation": 2, "co": {"X": 1.0, "Y": -1.0}}]}, "crop_width": {"Points": [{"interpolation": 2, "co": {"X": 1.0, "Y": -1.0}}]}, "shear_y": {"Points": [{"interpolation": 2, "co": {"X": 1.0, "Y": 0.0}}]}, "location_x": {"Points": [{"interpolation": 2, "co": {"X": 1.0, "Y": 0.0}}]}, "position": 0, "anchor": 0, "crop_y": {"Points": [{"interpolation": 2, "co": {"X": 1.0, "Y": 0.0}}]}, "shear_x": {"Points": [{"interpolation": 2, "co": {"X": 1.0, "Y": 0.0}}]}, "perspective_c4_x": {"Points": [{"interpolation": 2, "co": {"X": 1.0, "Y": -1.0}}]}, "perspective_c4_y": {"Points": [{"interpolation": 2, "co": {"X": 1.0, "Y": -1.0}}]}, "waveform": false, "layer": 0, "rotation": {"Points": [{"interpolation": 2, "co": {"X": 1.0, "Y": 0.0}}]}, "image": "C:\\Users\\theor\\.openshot_qt\\thumbnail\\DRHCZ485TK.png", "gravity": 4, "id": "FP3VW517GS", "scale_x": {"Points": [{"interpolation": 2, "co": {"X": 1.0, "Y": 1.0}}]}, "perspective_c2_x": {"Points": [{"interpolation": 2, "co": {"X": 1.0, "Y": -1.0}}]}, "scale_y": {"Points": [{"interpolation": 2, "co": {"X": 1.0, "Y": 1.0}}]}, "scale": 1, "duration": 164.0, "crop_height": {"Points": [{"interpolation": 2, "co": {"X": 1.0, "Y": -1.0}}]}, "perspective_c2_y": {"Points": [{"interpolation": 2, "co": {"X": 1.0, "Y": -1.0}}]}, "start": 0, "perspective_c1_y": {"Points": [{"interpolation": 2, "co": {"X": 1.0, "Y": -1.0}}]}, "original_data": {"video_length": "7738", "duration": 154.0, "end": 154.79166666666666}}, "partial": false, "old_values": [{"waveform": false, "channel_mapping": {"Points": [{"interpolation": 2, "co": {"X": 1.0, "Y": -1.0}}]}, "title": "Hello_.m4a", "time": {"Points": [{"interpolation": 2, "co": {"X": 1.0, "Y": 1.0}}]}, "perspective_c3_x": {"Points": [{"interpolation": 2, "co": {"X": 1.0, "Y": -1.0}}]}, "alpha": {"Points": [{"interpolation": 2, "co": {"X": 1.0, "Y": 1.0}}]}, "channel_filter": {"Points": [{"interpolation": 2, "co": {"X": 1.0, "Y": -1.0}}]}, "position": 0, "crop_x": {"Points": [{"interpolation": 2, "co": {"X": 1.0, "Y": 0.0}}]}, "image": "C:\\Program Files\\OpenShot Video Editor\\images\\AudioThumbnail.png", "gravity": 4, "end": 163.4220428466797, "wave_color": {"green": {"Points": [{"handle_right": {"X": 0.5, "Y": 0.0}, "handle_left": {"X": 0.5, "Y": 1.0}, "handle_type": 0, "co": {"X": 1.0, "Y": 123.0}, "interpolation": 0}]}, "alpha": {"Points": [{"handle_right": {"X": 0.5, "Y": 0.0}, "handle_left": {"X": 0.5, "Y": 1.0}, "handle_type": 0, "co": {"X": 1.0, "Y": 255.0}, "interpolation": 0}]}, "blue": {"Points": [{"handle_right": {"X": 0.5, "Y": 0.0}, "handle_left": {"X": 0.5, "Y": 1.0}, "handle_type": 0, "co": {"X": 1.0, "Y": 255.0}, "interpolation": 0}]}, "red": {"Points": [{"handle_right": {"X": 0.5, "Y": 0.0}, "handle_left": {"X": 0.5, "Y": 1.0}, "handle_type": 0, "co": {"X": 1.0, "Y": 0.0}, "interpolation": 0}]}}, "perspective_c3_y": {"Points": [{"interpolation": 2, "co": {"X": 1.0, "Y": -1.0}}]}, "file_id": "844VBPFXHL", "has_video": {"Points": [{"interpolation": 2, "co": {"X": 1.0, "Y": -1.0}}]}, "effects": [], "location_y": {"Points": [{"interpolation": 2, "co": {"X": 1.0, "Y": 0.0}}]}, "scale_x": {"Points": [{"interpolation": 2, "co": {"X": 1.0, "Y": 1.0}}]}, "has_audio": {"Points": [{"interpolation": 2, "co": {"X": 1.0, "Y": -1.0}}]}, "perspective_c2_x": {"Points": [{"interpolation": 2, "co": {"X": 1.0, "Y": -1.0}}]}, "display": 0, "reader": {"has_video": false, "path": "C:/Dropbox/GitHub/Cannery District - Eau Claire/Transfer/20190228 - video animination/Hello_.m4a", "width": 720, "display_ratio": {"num": 1, "den": 1}, "audio_stream_index": 0, "pixel_ratio": {"num": 1, "den": 1}, "sample_rate": 44100, "fps": {"num": 24, "den": 1}, "height": 480, "has_audio": true, "audio_bit_rate": 254854, "channel_layout": 3, "channels": 2, "vcodec": "", "audio_timebase": {"num": 1, "den": 44100}, "file_size": "5263452", "has_single_image": false, "top_field_first": true, "interlaced_frame": false, "duration": 163.4220428466797, "acodec": "aac", "video_length": "3922", "pixel_format": -1, "type": "FFmpegReader", "video_timebase": {"num": 1, "den": 24}, "video_stream_index": -1, "video_bit_rate": 0}, "scale_y": {"Points": [{"interpolation": 2, "co": {"X": 1.0, "Y": 1.0}}]}, "volume": {"Points": [{"interpolation": 2, "co": {"X": 1.0, "Y": 1.0}}]}, "id": "AN7OLTM9OC", "rotation": {"Points": [{"interpolation": 2, "co": {"X": 1.0, "Y": 0.0}}]}, "perspective_c1_x": {"Points": [{"interpolation": 2, "co": {"X": 1.0, "Y": -1.0}}]}, "crop_width": {"Points": [{"interpolation": 2, "co": {"X": 1.0, "Y": -1.0}}]}, "shear_y": {"Points": [{"interpolation": 2, "co": {"X": 1.0, "Y": 0.0}}]}, "location_x": {"Points": [{"interpolation": 2, "co": {"X": 1.0, "Y": 0.0}}]}, "duration": 163.4220428466797, "anchor": 0, "crop_height": {"Points": [{"interpolation": 2, "co": {"X": 1.0, "Y": -1.0}}]}, "perspective_c2_y": {"Points": [{"interpolation": 2, "co": {"X": 1.0, "Y": -1.0}}]}, "crop_y": {"Points": [{"interpolation": 2, "co": {"X": 1.0, "Y": 0.0}}]}, "shear_x": {"Points": [{"interpolation": 2, "co": {"X": 1.0, "Y": 0.0}}]}, "start": 0, "perspective_c1_y": {"Points": [{"interpolation": 2, "co": {"X": 1.0, "Y": -1.0}}]}, "scale": 1, "perspective_c4_x": {"Points": [{"interpolation": 2, "co": {"X": 1.0, "Y": -1.0}}]}, "perspective_c4_y": {"Points": [{"interpolation": 2, "co": {"X": 1.0, "Y": -1.0}}]}, "layer": 1}], "key": ["clips"]}, {"type": "update", "value": {"start": 0, "layer": 0, "id": "FP3VW517GS", "image": "C:\\Users\\theor\\.openshot_qt\\thumbnail\\DRHCZ485TK.png", "position": 25.919999999999998, "end": 309.5199890136719}, "partial": false, "old_values": {"channel_mapping": {"Points": [{"interpolation": 2, "co": {"X": 1.0, "Y": -1.0}}]}, "waveform": false, "title": "2.mp4", "time": {"Points": [{"interpolation": 2, "co": {"X": 1.0, "Y": 1.0}}]}, "perspective_c3_x": {"Points": [{"interpolation": 2, "co": {"X": 1.0, "Y": -1.0}}]}, "alpha": {"Points": [{"interpolation": 2, "co": {"X": 1.0, "Y": 1.0}}]}, "channel_filter": {"Points": [{"interpolation": 2, "co": {"X": 1.0, "Y": -1.0}}]}, "duration": 309.5199890136719, "crop_x": {"Points": [{"interpolation": 2, "co": {"X": 1.0, "Y": 0.0}}]}, "image": "C:\\Users\\theor\\.openshot_qt\\thumbnail\\DRHCZ485TK.png", "gravity": 4, "anchor": 0, "effects": [], "perspective_c3_y": {"Points": [{"interpolation": 2, "co": {"X": 1.0, "Y": -1.0}}]}, "file_id": "DRHCZ485TK", "has_video": {"Points": [{"interpolation": 2, "co": {"X": 1.0, "Y": -1.0}}]}, "id": "FP3VW517GS", "location_y": {"Points": [{"interpolation": 2, "co": {"X": 1.0, "Y": 0.0}}]}, "scale_x": {"Points": [{"interpolation": 2, "co": {"X": 1.0, "Y": 1.0}}]}, "has_audio": {"Points": [{"interpolation": 2, "co": {"X": 1.0, "Y": -1.0}}]}, "layer": 4, "display": 0, "reader": {"has_video": true, "path": "C:/Users/theor/Desktop/2.mp4", "width": 1280, "display_ratio": {"num": 16, "den": 9}, "audio_stream_index": -1, "pixel_ratio": {"num": 1, "den": 1}, "sample_rate": 0, "fps": {"num": 25, "den": 1}, "height": 720, "has_audio": false, "audio_bit_rate": 0, "channel_layout": 4, "channels": 0, "vcodec": "mpeg4", "audio_timebase": {"num": 1, "den": 1}, "file_size": "189413597", "has_single_image": false, "top_field_first": true, "interlaced_frame": false, "duration": 309.5199890136719, "acodec": "", "video_length": "7738", "pixel_format": 0, "type": "FFmpegReader", "video_timebase": {"num": 1, "den": 25}, "video_stream_index": 0, "video_bit_rate": 4895673}, "scale_y": {"Points": [{"interpolation": 2, "co": {"X": 1.0, "Y": 1.0}}]}, "volume": {"Points": [{"interpolation": 2, "co": {"X": 1.0, "Y": 1.0}}]}, "rotation": {"Points": [{"interpolation": 2, "co": {"X": 1.0, "Y": 0.0}}]}, "perspective_c1_x": {"Points": [{"interpolation": 2, "co": {"X": 1.0, "Y": -1.0}}]}, "crop_width": {"Points": [{"interpolation": 2, "co": {"X": 1.0, "Y": -1.0}}]}, "scale": 1, "location_x": {"Points": [{"interpolation": 2, "co": {"X": 1.0, "Y": 0.0}}]}, "position": 0.0, "end": 309.5199890136719, "crop_height": {"Points": [{"interpolation": 2, "co": {"X": 1.0, "Y": -1.0}}]}, "perspective_c2_y": {"Points": [{"interpolation": 2, "co": {"X": 1.0, "Y": -1.0}}]}, "crop_y": {"Points": [{"interpolation": 2, "co": {"X": 1.0, "Y": 0.0}}]}, "wave_color": {"green": {"Points": [{"handle_right": {"X": 0.5, "Y": 0.0}, "handle_left": {"X": 0.5, "Y": 1.0}, "handle_type": 0, "co": {"X": 1.0, "Y": 123.0}, "interpolation": 0}]}, "alpha": {"Points": [{"handle_right": {"X": 0.5, "Y": 0.0}, "handle_left": {"X": 0.5, "Y": 1.0}, "handle_type": 0, "co": {"X": 1.0, "Y": 255.0}, "interpolation": 0}]}, "blue": {"Points": [{"handle_right": {"X": 0.5, "Y": 0.0}, "handle_left": {"X": 0.5, "Y": 1.0}, "handle_type": 0, "co": {"X": 1.0, "Y": 255.0}, "interpolation": 0}]}, "red": {"Points": [{"handle_right": {"X": 0.5, "Y": 0.0}, "handle_left": {"X": 0.5, "Y": 1.0}, "handle_type": 0, "co": {"X": 1.0, "Y": 0.0}, "interpolation": 0}]}}, "shear_x": {"Points": [{"interpolation": 2, "co": {"X": 1.0, "Y": 0.0}}]}, "start": 0.0, "perspective_c1_y": {"Points": [{"interpolation": 2, "co": {"X": 1.0, "Y": -1.0}}]}, "shear_y": {"Points": [{"interpolation": 2, "co": {"X": 1.0, "Y": 0.0}}]}, "perspective_c2_x": {"Points": [{"interpolation": 2, "co": {"X": 1.0, "Y": -1.0}}]}, "perspective_c4_y": {"Points": [{"interpolation": 2, "co": {"X": 1.0, "Y": -1.0}}]}, "perspective_c4_x": {"Points": [{"interpolation": 2, "co": {"X": 1.0, "Y": -1.0}}]}}, "key": ["clips", {"id": "FP3VW517GS"}]}, {"type": "update", "value": {"start": 0, "layer": 0, "id": "FP3VW517GS", "image": "C:\\Users\\theor\\.openshot_qt\\thumbnail\\DRHCZ485TK.png", "position": 0, "end": 309.5199890136719}, "partial": false, "old_values": {"waveform": false, "channel_mapping": {"Points": [{"interpolation": 2, "co": {"X": 1.0, "Y": -1.0}}]}, "title": "2.mp4", "time": {"Points": [{"interpolation": 2, "co": {"X": 1.0, "Y": 1.0}}]}, "perspective_c3_x": {"Points": [{"interpolation": 2, "co": {"X": 1.0, "Y": -1.0}}]}, "alpha": {"Points": [{"interpolation": 2, "co": {"X": 1.0, "Y": 1.0}}]}, "channel_filter": {"Points": [{"interpolation": 2, "co": {"X": 1.0, "Y": -1.0}}]}, "position": 25.919999999999998, "crop_x": {"Points": [{"interpolation": 2, "co": {"X": 1.0, "Y": 0.0}}]}, "image": "C:\\Users\\theor\\.openshot_qt\\thumbnail\\DRHCZ485TK.png", "gravity": 4, "end": 309.5199890136719, "wave_color": {"green": {"Points": [{"handle_right": {"X": 0.5, "Y": 0.0}, "handle_left": {"X": 0.5, "Y": 1.0}, "handle_type": 0, "co": {"X": 1.0, "Y": 123.0}, "interpolation": 0}]}, "alpha": {"Points": [{"handle_right": {"X": 0.5, "Y": 0.0}, "handle_left": {"X": 0.5, "Y": 1.0}, "handle_type": 0, "co": {"X": 1.0, "Y": 255.0}, "interpolation": 0}]}, "blue": {"Points": [{"handle_right": {"X": 0.5, "Y": 0.0}, "handle_left": {"X": 0.5, "Y": 1.0}, "handle_type": 0, "co": {"X": 1.0, "Y": 255.0}, "interpolation": 0}]}, "red": {"Points": [{"handle_right": {"X": 0.5, "Y": 0.0}, "handle_left": {"X": 0.5, "Y": 1.0}, "handle_type": 0, "co": {"X": 1.0, "Y": 0.0}, "interpolation": 0}]}}, "perspective_c3_y": {"Points": [{"interpolation": 2, "co": {"X": 1.0, "Y": -1.0}}]}, "file_id": "DRHCZ485TK", "has_video": {"Points": [{"interpolation": 2, "co": {"X": 1.0, "Y": -1.0}}]}, "effects": [], "location_y": {"Points": [{"interpolation": 2, "co": {"X": 1.0, "Y": 0.0}}]}, "scale_x": {"Points": [{"interpolation": 2, "co": {"X": 1.0, "Y": 1.0}}]}, "has_audio": {"Points": [{"interpolation": 2, "co": {"X": 1.0, "Y": -1.0}}]}, "perspective_c2_x": {"Points": [{"interpolation": 2, "co": {"X": 1.0, "Y": -1.0}}]}, "display": 0, "reader": {"has_video": true, "path": "C:/Users/theor/Desktop/2.mp4", "width": 1280, "display_ratio": {"num": 16, "den": 9}, "audio_stream_index": -1, "pixel_ratio": {"num": 1, "den": 1}, "sample_rate": 0, "fps": {"num": 25, "den": 1}, "height": 720, "has_audio": false, "audio_bit_rate": 0, "channel_layout": 4, "channels": 0, "vcodec": "mpeg4", "audio_timebase": {"num": 1, "den": 1}, "file_size": "189413597", "has_single_image": false, "top_field_first": true, "interlaced_frame": false, "duration": 309.5199890136719, "acodec": "", "video_length": "7738", "pixel_format": 0, "type": "FFmpegReader", "video_timebase": {"num": 1, "den": 25}, "video_stream_index": 0, "video_bit_rate": 4895673}, "scale_y": {"Points": [{"interpolation": 2, "co": {"X": 1.0, "Y": 1.0}}]}, "volume": {"Points": [{"interpolation": 2, "co": {"X": 1.0, "Y": 1.0}}]}, "id": "FP3VW517GS", "rotation": {"Points": [{"interpolation": 2, "co": {"X": 1.0, "Y": 0.0}}]}, "perspective_c1_x": {"Points": [{"interpolation": 2, "co": {"X": 1.0, "Y": -1.0}}]}, "crop_width": {"Points": [{"interpolation": 2, "co": {"X": 1.0, "Y": -1.0}}]}, "shear_y": {"Points": [{"interpolation": 2, "co": {"X": 1.0, "Y": 0.0}}]}, "location_x": {"Points": [{"interpolation": 2, "co": {"X": 1.0, "Y": 0.0}}]}, "duration": 309.5199890136719, "anchor": 0, "crop_height": {"Points": [{"interpolation": 2, "co": {"X": 1.0, "Y": -1.0}}]}, "perspective_c2_y": {"Points": [{"interpolation": 2, "co": {"X": 1.0, "Y": -1.0}}]}, "crop_y": {"Points": [{"interpolation": 2, "co": {"X": 1.0, "Y": 0.0}}]}, "shear_x": {"Points": [{"interpolation": 2, "co": {"X": 1.0, "Y": 0.0}}]}, "start": 0, "perspective_c1_y": {"Points": [{"interpolation": 2, "co": {"X": 1.0, "Y": -1.0}}]}, "scale": 1, "perspective_c4_x": {"Points": [{"interpolation": 2, "co": {"X": 1.0, "Y": -1.0}}]}, "perspective_c4_y": {"Points": [{"interpolation": 2, "co": {"X": 1.0, "Y": -1.0}}]}, "layer": 0}, "key": ["clips", {"id": "FP3VW517GS"}]}, {"type": "update", "value": {"channel_mapping": {"Points": [{"interpolation": 2, "co": {"X": 1.0, "Y": -1.0}}]}, "waveform": false, "title": "2.mp4", "image": "C:\\Users\\theor\\.openshot_qt\\thumbnail\\DRHCZ485TK.png", "perspective_c3_x": {"Points": [{"interpolation": 2, "co": {"X": 1.0, "Y": -1.0}}]}, "alpha": {"Points": [{"interpolation": 2, "co": {"X": 1.0, "Y": 1.0}}]}, "scale_y": {"Points": [{"interpolation": 2, "co": {"X": 1.0, "Y": 1.0}}]}, "duration": 154.0, "crop_x": {"Points": [{"interpolation": 2, "co": {"X": 1.0, "Y": 0.0}}]}, "time": {"Points": [{"interpolation": 1, "co": {"X": 1.0, "Y": 1.0}}, {"interpolation": 1, "co": {"X": 3715.0, "Y": 7429.0}}]}, "gravity": 4, "anchor": 0, "effects": [], "perspective_c3_y": {"Points": [{"interpolation": 2, "co": {"X": 1.0, "Y": -1.0}}]}, "file_id": "DRHCZ485TK", "has_video": {"Points": [{"interpolation": 2, "co": {"X": 1.0, "Y": -1.0}}]}, "wave_color": {"green": {"Points": [{"handle_right": {"X": 0.5, "Y": 0.0}, "handle_left": {"X": 0.5, "Y": 1.0}, "handle_type": 0, "co": {"X": 1.0, "Y": 123.0}, "interpolation": 0}]}, "alpha": {"Points": [{"handle_right": {"X": 0.5, "Y": 0.0}, "handle_left": {"X": 0.5, "Y": 1.0}, "handle_type": 0, "co": {"X": 1.0, "Y": 255.0}, "interpolation": 0}]}, "blue": {"Points": [{"handle_right": {"X": 0.5, "Y": 0.0}, "handle_left": {"X": 0.5, "Y": 1.0}, "handle_type": 0, "co": {"X": 1.0, "Y": 255.0}, "interpolation": 0}]}, "red": {"Points": [{"handle_right": {"X": 0.5, "Y": 0.0}, "handle_left": {"X": 0.5, "Y": 1.0}, "handle_type": 0, "co": {"X": 1.0, "Y": 0.0}, "interpolation": 0}]}}, "location_y": {"Points": [{"interpolation": 2, "co": {"X": 1.0, "Y": 0.0}}]}, "scale_x": {"Points": [{"interpolation": 2, "co": {"X": 1.0, "Y": 1.0}}]}, "has_audio": {"Points": [{"interpolation": 2, "co": {"X": 1.0, "Y": -1.0}}]}, "perspective_c2_x": {"Points": [{"interpolation": 2, "co": {"X": 1.0, "Y": -1.0}}]}, "display": 0, "channel_filter": {"Points": [{"interpolation": 2, "co": {"X": 1.0, "Y": -1.0}}]}, "volume": {"Points": [{"interpolation": 2, "co": {"X": 1.0, "Y": 1.0}}]}, "id": "FP3VW517GS", "rotation": {"Points": [{"interpolation": 2, "co": {"X": 1.0, "Y": 0.0}}]}, "perspective_c1_x": {"Points": [{"interpolation": 2, "co": {"X": 1.0, "Y": -1.0}}]}, "crop_width": {"Points": [{"interpolation": 2, "co": {"X": 1.0, "Y": -1.0}}]}, "shear_y": {"Points": [{"interpolation": 2, "co": {"X": 1.0, "Y": 0.0}}]}, "location_x": {"Points": [{"interpolation": 2, "co": {"X": 1.0, "Y": 0.0}}]}, "position": 0, "end": 154.79166666666666, "crop_height": {"Points": [{"interpolation": 2, "co": {"X": 1.0, "Y": -1.0}}]}, "perspective_c2_y": {"Points": [{"interpolation": 2, "co": {"X": 1.0, "Y": -1.0}}]}, "crop_y": {"Points": [{"interpolation": 2, "co": {"X": 1.0, "Y": 0.0}}]}, "shear_x": {"Points": [{"interpolation": 2, "co": {"X": 1.0, "Y": 0.0}}]}, "start": 0, "layer": 0, "scale": 1, "perspective_c4_x": {"Points": [{"interpolation": 2, "co": {"X": 1.0, "Y": -1.0}}]}, "perspective_c1_y": {"Points": [{"interpolation": 2, "co": {"X": 1.0, "Y": -1.0}}]}, "perspective_c4_y": {"Points": [{"interpolation": 2, "co": {"X": 1.0, "Y": -1.0}}]}}, "partial": false, "old_values": {"waveform": false, "channel_mapping": {"Points": [{"interpolation": 2, "co": {"X": 1.0, "Y": -1.0}}]}, "title": "2.mp4", "time": {"Points": [{"interpolation": 2, "co": {"X": 1.0, "Y": 1.0}}]}, "perspective_c3_x": {"Points": [{"interpolation": 2, "co": {"X": 1.0, "Y": -1.0}}]}, "alpha": {"Points": [{"interpolation": 2, "co": {"X": 1.0, "Y": 1.0}}]}, "channel_filter": {"Points": [{"interpolation": 2, "co": {"X": 1.0, "Y": -1.0}}]}, "position": 0, "crop_x": {"Points": [{"interpolation": 2, "co": {"X": 1.0, "Y": 0.0}}]}, "image": "C:\\Users\\theor\\.openshot_qt\\thumbnail\\DRHCZ485TK.png", "gravity": 4, "end": 309.5199890136719, "wave_color": {"green": {"Points": [{"handle_right": {"X": 0.5, "Y": 0.0}, "handle_left": {"X": 0.5, "Y": 1.0}, "handle_type": 0, "co": {"X": 1.0, "Y": 123.0}, "interpolation": 0}]}, "alpha": {"Points": [{"handle_right": {"X": 0.5, "Y": 0.0}, "handle_left": {"X": 0.5, "Y": 1.0}, "handle_type": 0, "co": {"X": 1.0, "Y": 255.0}, "interpolation": 0}]}, "blue": {"Points": [{"handle_right": {"X": 0.5, "Y": 0.0}, "handle_left": {"X": 0.5, "Y": 1.0}, "handle_type": 0, "co": {"X": 1.0, "Y": 255.0}, "interpolation": 0}]}, "red": {"Points": [{"handle_right": {"X": 0.5, "Y": 0.0}, "handle_left": {"X": 0.5, "Y": 1.0}, "handle_type": 0, "co": {"X": 1.0, "Y": 0.0}, "interpolation": 0}]}}, "perspective_c3_y": {"Points": [{"interpolation": 2, "co": {"X": 1.0, "Y": -1.0}}]}, "file_id": "DRHCZ485TK", "has_video": {"Points": [{"interpolation": 2, "co": {"X": 1.0, "Y": -1.0}}]}, "effects": [], "location_y": {"Points": [{"interpolation": 2, "co": {"X": 1.0, "Y": 0.0}}]}, "scale_x": {"Points": [{"interpolation": 2, "co": {"X": 1.0, "Y": 1.0}}]}, "has_audio": {"Points": [{"interpolation": 2, "co": {"X": 1.0, "Y": -1.0}}]}, "perspective_c2_x": {"Points": [{"interpolation": 2, "co": {"X": 1.0, "Y": -1.0}}]}, "display": 0, "reader": {"has_video": true, "path": "C:/Users/theor/Desktop/2.mp4", "width": 1280, "display_ratio": {"num": 16, "den": 9}, "audio_stream_index": -1, "pixel_ratio": {"num": 1, "den": 1}, "sample_rate": 0, "fps": {"num": 25, "den": 1}, "height": 720, "has_audio": false, "audio_bit_rate": 0, "channel_layout": 4, "channels": 0, "vcodec": "mpeg4", "audio_timebase": {"num": 1, "den": 1}, "file_size": "189413597", "has_single_image": false, "top_field_first": true, "interlaced_frame": false, "duration": 309.5199890136719, "acodec": "", "video_length": "7738", "pixel_format": 0, "type": "FFmpegReader", "video_timebase": {"num": 1, "den": 25}, "video_stream_index": 0, "video_bit_rate": 4895673}, "scale_y": {"Points": [{"interpolation": 2, "co": {"X": 1.0, "Y": 1.0}}]}, "volume": {"Points": [{"interpolation": 2, "co": {"X": 1.0, "Y": 1.0}}]}, "id": "FP3VW517GS", "rotation": {"Points": [{"interpolation": 2, "co": {"X": 1.0, "Y": 0.0}}]}, "perspective_c1_x": {"Points": [{"interpolation": 2, "co": {"X": 1.0, "Y": -1.0}}]}, "crop_width": {"Points": [{"interpolation": 2, "co": {"X": 1.0, "Y": -1.0}}]}, "shear_y": {"Points": [{"interpolation": 2, "co": {"X": 1.0, "Y": 0.0}}]}, "location_x": {"Points": [{"interpolation": 2, "co": {"X": 1.0, "Y": 0.0}}]}, "duration": 309.5199890136719, "anchor": 0, "crop_height": {"Points": [{"interpolation": 2, "co": {"X": 1.0, "Y": -1.0}}]}, "perspective_c2_y": {"Points": [{"interpolation": 2, "co": {"X": 1.0, "Y": -1.0}}]}, "crop_y": {"Points": [{"interpolation": 2, "co": {"X": 1.0, "Y": 0.0}}]}, "shear_x": {"Points": [{"interpolation": 2, "co": {"X": 1.0, "Y": 0.0}}]}, "start": 0, "perspective_c1_y": {"Points": [{"interpolation": 2, "co": {"X": 1.0, "Y": -1.0}}]}, "scale": 1, "perspective_c4_x": {"Points": [{"interpolation": 2, "co": {"X": 1.0, "Y": -1.0}}]}, "perspective_c4_y": {"Points": [{"interpolation": 2, "co": {"X": 1.0, "Y": -1.0}}]}, "layer": 0}, "key": ["clips", {"id": "FP3VW517GS"}]}, {"type": "update", "value": {"channel_mapping": {"Points": [{"interpolation": 2, "co": {"X": 1.0, "Y": -1.0}}]}, "waveform": false, "title": "2.mp4", "image": "C:\\Users\\theor\\.openshot_qt\\thumbnail\\DRHCZ485TK.png", "perspective_c3_x": {"Points": [{"interpolation": 2, "co": {"X": 1.0, "Y": -1.0}}]}, "alpha": {"Points": [{"interpolation": 2, "co": {"X": 1.0, "Y": 1.0}}]}, "scale_y": {"Points": [{"interpolation": 2, "co": {"X": 1.0, "Y": 1.0}}]}, "duration": 164.0, "crop_x": {"Points": [{"interpolation": 2, "co": {"X": 1.0, "Y": 0.0}}]}, "time": {"Points": [{"interpolation": 1, "co": {"X": 1.0, "Y": 1.0}}, {"interpolation": 1, "co": {"X": 3683.0, "Y": 7365.0}}, {"interpolation": 1, "co": {"X": 3923.0, "Y": 7365.0}}, {"interpolation": 1, "co": {"X": 3937.0, "Y": 3697.0}}]}, "gravity": 4, "anchor": 0, "effects": [], "perspective_c3_y": {"Points": [{"interpolation": 2, "co": {"X": 1.0, "Y": -1.0}}]}, "file_id": "DRHCZ485TK", "has_video": {"Points": [{"interpolation": 2, "co": {"X": 1.0, "Y": -1.0}}]}, "wave_color": {"red": {"Points": [{"handle_right": {"X": 0.5, "Y": 0.0}, "handle_left": {"X": 0.5, "Y": 1.0}, "handle_type": 0, "co": {"X": 1.0, "Y": 0.0}, "interpolation": 0}]}, "green": {"Points": [{"handle_right": {"X": 0.5, "Y": 0.0}, "handle_left": {"X": 0.5, "Y": 1.0}, "handle_type": 0, "co": {"X": 1.0, "Y": 123.0}, "interpolation": 0}]}, "blue": {"Points": [{"handle_right": {"X": 0.5, "Y": 0.0}, "handle_left": {"X": 0.5, "Y": 1.0}, "handle_type": 0, "co": {"X": 1.0, "Y": 255.0}, "interpolation": 0}]}, "alpha": {"Points": [{"handle_right": {"X": 0.5, "Y": 0.0}, "handle_left": {"X": 0.5, "Y": 1.0}, "handle_type": 0, "co": {"X": 1.0, "Y": 255.0}, "interpolation": 0}]}}, "location_y": {"Points": [{"interpolation": 2, "co": {"X": 1.0, "Y": 0.0}}]}, "scale_x": {"Points": [{"interpolation": 2, "co": {"X": 1.0, "Y": 1.0}}]}, "has_audio": {"Points": [{"interpolation": 2, "co": {"X": 1.0, "Y": -1.0}}]}, "perspective_c2_x": {"Points": [{"interpolation": 2, "co": {"X": 1.0, "Y": -1.0}}]}, "display": 0, "channel_filter": {"Points": [{"interpolation": 2, "co": {"X": 1.0, "Y": -1.0}}]}, "volume": {"Points": [{"interpolation": 2, "co": {"X": 1.0, "Y": 1.0}}, {"interpolation": 1, "co": {"X": 3682.0, "Y": 1.0}}, {"interpolation": 1, "co": {"X": 3683.0, "Y": 0.0}}, {"interpolation": 1, "co": {"X": 3922.0, "Y": 0.0}}, {"interpolation": 1, "co": {"X": 3923.0, "Y": 1.0}}]}, "id": "FP3VW517GS", "rotation": {"Points": [{"interpolation": 2, "co": {"X": 1.0, "Y": 0.0}}]}, "perspective_c1_x": {"Points": [{"interpolation": 2, "co": {"X": 1.0, "Y": -1.0}}]}, "crop_width": {"Points": [{"interpolation": 2, "co": {"X": 1.0, "Y": -1.0}}]}, "shear_y": {"Points": [{"interpolation": 2, "co": {"X": 1.0, "Y": 0.0}}]}, "location_x": {"Points": [{"interpolation": 2, "co": {"X": 1.0, "Y": 0.0}}]}, "position": 0, "end": 164.79166666666666, "crop_height": {"Points": [{"interpolation": 2, "co": {"X": 1.0, "Y": -1.0}}]}, "perspective_c2_y": {"Points": [{"interpolation": 2, "co": {"X": 1.0, "Y": -1.0}}]}, "original_data": {"video_length": "7738", "duration": 154.0, "end": 154.79166666666666}, "crop_y": {"Points": [{"interpolation": 2, "co": {"X": 1.0, "Y": 0.0}}]}, "shear_x": {"Points": [{"interpolation": 2, "co": {"X": 1.0, "Y": 0.0}}]}, "start": 0, "layer": 0, "scale": 1, "perspective_c4_x": {"Points": [{"interpolation": 2, "co": {"X": 1.0, "Y": -1.0}}]}, "perspective_c1_y": {"Points": [{"interpolation": 2, "co": {"X": 1.0, "Y": -1.0}}]}, "perspective_c4_y": {"Points": [{"interpolation": 2, "co": {"X": 1.0, "Y": -1.0}}]}}, "partial": false, "old_values": {"waveform": false, "channel_mapping": {"Points": [{"interpolation": 2, "co": {"X": 1.0, "Y": -1.0}}]}, "title": "2.mp4", "time": {"Points": [{"interpolation": 1, "co": {"X": 1.0, "Y": 1.0}}, {"interpolation": 1, "co": {"X": 3715.0, "Y": 7429.0}}]}, "perspective_c3_x": {"Points": [{"interpolation": 2, "co": {"X": 1.0, "Y": -1.0}}]}, "alpha": {"Points": [{"interpolation": 2, "co": {"X": 1.0, "Y": 1.0}}]}, "channel_filter": {"Points": [{"interpolation": 2, "co": {"X": 1.0, "Y": -1.0}}]}, "position": 0, "crop_x": {"Points": [{"interpolation": 2, "co": {"X": 1.0, "Y": 0.0}}]}, "image": "C:\\Users\\theor\\.openshot_qt\\thumbnail\\DRHCZ485TK.png", "gravity": 4, "end": 154.79166666666666, "wave_color": {"red": {"Points": [{"handle_right": {"X": 0.5, "Y": 0.0}, "handle_left": {"X": 0.5, "Y": 1.0}, "handle_type": 0, "co": {"X": 1.0, "Y": 0.0}, "interpolation": 0}]}, "green": {"Points": [{"handle_right": {"X": 0.5, "Y": 0.0}, "handle_left": {"X": 0.5, "Y": 1.0}, "handle_type": 0, "co": {"X": 1.0, "Y": 123.0}, "interpolation": 0}]}, "blue": {"Points": [{"handle_right": {"X": 0.5, "Y": 0.0}, "handle_left": {"X": 0.5, "Y": 1.0}, "handle_type": 0, "co": {"X": 1.0, "Y": 255.0}, "interpolation": 0}]}, "alpha": {"Points": [{"handle_right": {"X": 0.5, "Y": 0.0}, "handle_left": {"X": 0.5, "Y": 1.0}, "handle_type": 0, "co": {"X": 1.0, "Y": 255.0}, "interpolation": 0}]}}, "perspective_c3_y": {"Points": [{"interpolation": 2, "co": {"X": 1.0, "Y": -1.0}}]}, "file_id": "DRHCZ485TK", "has_video": {"Points": [{"interpolation": 2, "co": {"X": 1.0, "Y": -1.0}}]}, "effects": [], "location_y": {"Points": [{"interpolation": 2, "co": {"X": 1.0, "Y": 0.0}}]}, "scale_x": {"Points": [{"interpolation": 2, "co": {"X": 1.0, "Y": 1.0}}]}, "has_audio": {"Points": [{"interpolation": 2, "co": {"X": 1.0, "Y": -1.0}}]}, "perspective_c2_x": {"Points": [{"interpolation": 2, "co": {"X": 1.0, "Y": -1.0}}]}, "display": 0, "reader": {"has_video": true, "path": "C:/Users/theor/Desktop/2.mp4", "width": 1280, "display_ratio": {"num": 16, "den": 9}, "audio_stream_index": -1, "pixel_ratio": {"num": 1, "den": 1}, "sample_rate": 0, "fps": {"num": 25, "den": 1}, "height": 720, "has_audio": false, "audio_bit_rate": 0, "channel_layout": 4, "channels": 0, "vcodec": "mpeg4", "audio_timebase": {"num": 1, "den": 1}, "file_size": "189413597", "has_single_image": false, "top_field_first": true, "interlaced_frame": false, "duration": 309.5199890136719, "acodec": "", "video_length": "7738", "pixel_format": 0, "type": "FFmpegReader", "video_timebase": {"num": 1, "den": 25}, "video_stream_index": 0, "video_bit_rate": 4895673}, "scale_y": {"Points": [{"interpolation": 2, "co": {"X": 1.0, "Y": 1.0}}]}, "volume": {"Points": [{"interpolation": 2, "co": {"X": 1.0, "Y": 1.0}}]}, "id": "FP3VW517GS", "rotation": {"Points": [{"interpolation": 2, "co": {"X": 1.0, "Y": 0.0}}]}, "perspective_c1_x": {"Points": [{"interpolation": 2, "co": {"X": 1.0, "Y": -1.0}}]}, "crop_width": {"Points": [{"interpolation": 2, "co": {"X": 1.0, "Y": -1.0}}]}, "shear_y": {"Points": [{"interpolation": 2, "co": {"X": 1.0, "Y": 0.0}}]}, "location_x": {"Points": [{"interpolation": 2, "co": {"X": 1.0, "Y": 0.0}}]}, "duration": 154.0, "anchor": 0, "crop_height": {"Points": [{"interpolation": 2, "co": {"X": 1.0, "Y": -1.0}}]}, "perspective_c2_y": {"Points": [{"interpolation": 2, "co": {"X": 1.0, "Y": -1.0}}]}, "crop_y": {"Points": [{"interpolation": 2, "co": {"X": 1.0, "Y": 0.0}}]}, "shear_x": {"Points": [{"interpolation": 2, "co": {"X": 1.0, "Y": 0.0}}]}, "start": 0, "perspective_c1_y": {"Points": [{"interpolation": 2, "co": {"X": 1.0, "Y": -1.0}}]}, "scale": 1, "perspective_c4_x": {"Points": [{"interpolation": 2, "co": {"X": 1.0, "Y": -1.0}}]}, "perspective_c4_y": {"Points": [{"interpolation": 2, "co": {"X": 1.0, "Y": -1.0}}]}, "layer": 0}, "key": ["clips", {"id": "FP3VW517GS"}]}, {"type": "insert", "value": {"channel_mapping": {"Points": [{"interpolation": 2, "co": {"X": 1.0, "Y": -1.0}}]}, "title": "2.mp4", "perspective_c3_x": {"Points": [{"interpolation": 2, "co": {"X": 1.0, "Y": -1.0}}]}, "alpha": {"Points": [{"interpolation": 2, "co": {"X": 1.0, "Y": 1.0}}]}, "crop_x": {"Points": [{"interpolation": 2, "co": {"X": 1.0, "Y": 0.0}}]}, "time": {"Points": [{"interpolation": 1, "co": {"X": 1.0, "Y": 1.0}}, {"interpolation": 1, "co": {"X": 3683.0, "Y": 7365.0}}, {"interpolation": 1, "co": {"X": 3923.0, "Y": 7365.0}}, {"interpolation": 1, "co": {"X": 3937.0, "Y": 3697.0}}]}, "end": 164.79166666666666, "effects": [], "perspective_c3_y": {"Points": [{"interpolation": 2, "co": {"X": 1.0, "Y": -1.0}}]}, "file_id": "DRHCZ485TK", "has_video": {"Points": [{"interpolation": 2, "co": {"X": 1.0, "Y": -1.0}}]}, "wave_color": {"green": {"Points": [{"handle_right": {"X": 0.5, "Y": 0.0}, "handle_left": {"X": 0.5, "Y": 1.0}, "handle_type": 0, "co": {"X": 1.0, "Y": 123.0}, "interpolation": 0}]}, "alpha": {"Points": [{"handle_right": {"X": 0.5, "Y": 0.0}, "handle_left": {"X": 0.5, "Y": 1.0}, "handle_type": 0, "co": {"X": 1.0, "Y": 255.0}, "interpolation": 0}]}, "blue": {"Points": [{"handle_right": {"X": 0.5, "Y": 0.0}, "handle_left": {"X": 0.5, "Y": 1.0}, "handle_type": 0, "co": {"X": 1.0, "Y": 255.0}, "interpolation": 0}]}, "red": {"Points": [{"handle_right": {"X": 0.5, "Y": 0.0}, "handle_left": {"X": 0.5, "Y": 1.0}, "handle_type": 0, "co": {"X": 1.0, "Y": 0.0}, "interpolation": 0}]}}, "location_y": {"Points": [{"interpolation": 2, "co": {"X": 1.0, "Y": 0.0}}]}, "has_audio": {"Points": [{"interpolation": 2, "co": {"X": 1.0, "Y": -1.0}}]}, "display": 0, "reader": {"fps": {"num": 25, "den": 1}, "path": "C:/Users/theor/Desktop/2.mp4", "width": 1280, "display_ratio": {"num": 16, "den": 9}, "pixel_ratio": {"num": 1, "den": 1}, "sample_rate": 0, "has_video": true, "height": 720, "has_audio": false, "video_timebase": {"num": 1, "den": 25}, "channel_layout": 4, "channels": 0, "vcodec": "mpeg4", "audio_timebase": {"num": 1, "den": 1}, "file_size": "189413597", "has_single_image": false, "top_field_first": true, "interlaced_frame": false, "duration": 309.5199890136719, "video_stream_index": 0, "acodec": "", "video_length": "7738", "pixel_format": 0, "type": "FFmpegReader", "audio_bit_rate": 0, "audio_stream_index": -1, "video_bit_rate": 4895673}, "channel_filter": {"Points": [{"interpolation": 2, "co": {"X": 1.0, "Y": -1.0}}]}, "volume": {"Points": [{"interpolation": 2, "co": {"X": 1.0, "Y": 1.0}}, {"interpolation": 1, "co": {"X": 3682.0, "Y": 1.0}}, {"interpolation": 1, "co": {"X": 3683.0, "Y": 0.0}}, {"interpolation": 1, "co": {"X": 3922.0, "Y": 0.0}}, {"interpolation": 1, "co": {"X": 3923.0, "Y": 1.0}}]}, "perspective_c1_x": {"Points": [{"interpolation": 2, "co": {"X": 1.0, "Y": -1.0}}]}, "crop_width": {"Points": [{"interpolation": 2, "co": {"X": 1.0, "Y": -1.0}}]}, "shear_y": {"Points": [{"interpolation": 2, "co": {"X": 1.0, "Y": 0.0}}]}, "location_x": {"Points": [{"interpolation": 2, "co": {"X": 1.0, "Y": 0.0}}]}, "position": 162.72, "anchor": 0, "crop_y": {"Points": [{"interpolation": 2, "co": {"X": 1.0, "Y": 0.0}}]}, "shear_x": {"Points": [{"interpolation": 2, "co": {"X": 1.0, "Y": 0.0}}]}, "perspective_c4_x": {"Points": [{"interpolation": 2, "co": {"X": 1.0, "Y": -1.0}}]}, "perspective_c4_y": {"Points": [{"interpolation": 2, "co": {"X": 1.0, "Y": -1.0}}]}, "waveform": false, "layer": 0, "rotation": {"Points": [{"interpolation": 2, "co": {"X": 1.0, "Y": 0.0}}]}, "image": "C:\\Users\\theor\\.openshot_qt\\thumbnail\\CPDG61WG5F-4069.png", "gravity": 4, "id": "CPDG61WG5F", "scale_x": {"Points": [{"interpolation": 2, "co": {"X": 1.0, "Y": 1.0}}]}, "perspective_c2_x": {"Points": [{"interpolation": 2, "co": {"X": 1.0, "Y": -1.0}}]}, "scale_y": {"Points": [{"interpolation": 2, "co": {"X": 1.0, "Y": 1.0}}]}, "scale": 1, "duration": 164.0, "crop_height": {"Points": [{"interpolation": 2, "co": {"X": 1.0, "Y": -1.0}}]}, "perspective_c2_y": {"Points": [{"interpolation": 2, "co": {"X": 1.0, "Y": -1.0}}]}, "start": 162.72, "perspective_c1_y": {"Points": [{"interpolation": 2, "co": {"X": 1.0, "Y": -1.0}}]}, "original_data": {"video_length": "7738", "duration": 154.0, "end": 154.79166666666666}}, "partial": false, "old_values": [{"waveform": false, "channel_mapping": {"Points": [{"interpolation": 2, "co": {"X": 1.0, "Y": -1.0}}]}, "title": "Hello_.m4a", "time": {"Points": [{"interpolation": 2, "co": {"X": 1.0, "Y": 1.0}}]}, "perspective_c3_x": {"Points": [{"interpolation": 2, "co": {"X": 1.0, "Y": -1.0}}]}, "alpha": {"Points": [{"interpolation": 2, "co": {"X": 1.0, "Y": 1.0}}]}, "channel_filter": {"Points": [{"interpolation": 2, "co": {"X": 1.0, "Y": -1.0}}]}, "position": 0, "crop_x": {"Points": [{"interpolation": 2, "co": {"X": 1.0, "Y": 0.0}}]}, "image": "C:\\Program Files\\OpenShot Video Editor\\images\\AudioThumbnail.png", "gravity": 4, "end": 163.4220428466797, "wave_color": {"green": {"Points": [{"handle_right": {"X": 0.5, "Y": 0.0}, "handle_left": {"X": 0.5, "Y": 1.0}, "handle_type": 0, "co": {"X": 1.0, "Y": 123.0}, "interpolation": 0}]}, "alpha": {"Points": [{"handle_right": {"X": 0.5, "Y": 0.0}, "handle_left": {"X": 0.5, "Y": 1.0}, "handle_type": 0, "co": {"X": 1.0, "Y": 255.0}, "interpolation": 0}]}, "blue": {"Points": [{"handle_right": {"X": 0.5, "Y": 0.0}, "handle_left": {"X": 0.5, "Y": 1.0}, "handle_type": 0, "co": {"X": 1.0, "Y": 255.0}, "interpolation": 0}]}, "red": {"Points": [{"handle_right": {"X": 0.5, "Y": 0.0}, "handle_left": {"X": 0.5, "Y": 1.0}, "handle_type": 0, "co": {"X": 1.0, "Y": 0.0}, "interpolation": 0}]}}, "perspective_c3_y": {"Points": [{"interpolation": 2, "co": {"X": 1.0, "Y": -1.0}}]}, "file_id": "844VBPFXHL", "has_video": {"Points": [{"interpolation": 2, "co": {"X": 1.0, "Y": -1.0}}]}, "effects": [], "location_y": {"Points": [{"interpolation": 2, "co": {"X": 1.0, "Y": 0.0}}]}, "scale_x": {"Points": [{"interpolation": 2, "co": {"X": 1.0, "Y": 1.0}}]}, "has_audio": {"Points": [{"interpolation": 2, "co": {"X": 1.0, "Y": -1.0}}]}, "perspective_c2_x": {"Points": [{"interpolation": 2, "co": {"X": 1.0, "Y": -1.0}}]}, "display": 0, "reader": {"has_video": false, "path": "C:/Dropbox/GitHub/Cannery District - Eau Claire/Transfer/20190228 - video animination/Hello_.m4a", "width": 720, "display_ratio": {"num": 1, "den": 1}, "audio_stream_index": 0, "pixel_ratio": {"num": 1, "den": 1}, "sample_rate": 44100, "fps": {"num": 24, "den": 1}, "height": 480, "has_audio": true, "audio_bit_rate": 254854, "channel_layout": 3, "channels": 2, "vcodec": "", "audio_timebase": {"num": 1, "den": 44100}, "file_size": "5263452", "has_single_image": false, "top_field_first": true, "interlaced_frame": false, "duration": 163.4220428466797, "acodec": "aac", "video_length": "3922", "pixel_format": -1, "type": "FFmpegReader", "video_timebase": {"num": 1, "den": 24}, "video_stream_index": -1, "video_bit_rate": 0}, "scale_y": {"Points": [{"interpolation": 2, "co": {"X": 1.0, "Y": 1.0}}]}, "volume": {"Points": [{"interpolation": 2, "co": {"X": 1.0, "Y": 1.0}}]}, "id": "AN7OLTM9OC", "rotation": {"Points": [{"interpolation": 2, "co": {"X": 1.0, "Y": 0.0}}]}, "perspective_c1_x": {"Points": [{"interpolation": 2, "co": {"X": 1.0, "Y": -1.0}}]}, "crop_width": {"Points": [{"interpolation": 2, "co": {"X": 1.0, "Y": -1.0}}]}, "shear_y": {"Points": [{"interpolation": 2, "co": {"X": 1.0, "Y": 0.0}}]}, "location_x": {"Points": [{"interpolation": 2, "co": {"X": 1.0, "Y": 0.0}}]}, "duration": 163.4220428466797, "anchor": 0, "crop_height": {"Points": [{"interpolation": 2, "co": {"X": 1.0, "Y": -1.0}}]}, "perspective_c2_y": {"Points": [{"interpolation": 2, "co": {"X": 1.0, "Y": -1.0}}]}, "crop_y": {"Points": [{"interpolation": 2, "co": {"X": 1.0, "Y": 0.0}}]}, "shear_x": {"Points": [{"interpolation": 2, "co": {"X": 1.0, "Y": 0.0}}]}, "start": 0, "perspective_c1_y": {"Points": [{"interpolation": 2, "co": {"X": 1.0, "Y": -1.0}}]}, "scale": 1, "perspective_c4_x": {"Points": [{"interpolation": 2, "co": {"X": 1.0, "Y": -1.0}}]}, "perspective_c4_y": {"Points": [{"interpolation": 2, "co": {"X": 1.0, "Y": -1.0}}]}, "layer": 1}, {"waveform": false, "title": "2.mp4", "perspective_c3_x": {"Points": [{"interpolation": 2, "co": {"X": 1.0, "Y": -1.0}}]}, "alpha": {"Points": [{"interpolation": 2, "co": {"X": 1.0, "Y": 1.0}}]}, "crop_x": {"Points": [{"interpolation": 2, "co": {"X": 1.0, "Y": 0.0}}]}, "time": {"Points": [{"interpolation": 1, "co": {"X": 1.0, "Y": 1.0}}, {"interpolation": 1, "co": {"X": 3683.0, "Y": 7365.0}}, {"interpolation": 1, "co": {"X": 3923.0, "Y": 7365.0}}, {"interpolation": 1, "co": {"X": 3937.0, "Y": 3697.0}}]}, "end": 164.79166666666666, "wave_color": {"green": {"Points": [{"handle_right": {"X": 0.5, "Y": 0.0}, "handle_left": {"X": 0.5, "Y": 1.0}, "handle_type": 0, "co": {"X": 1.0, "Y": 123.0}, "interpolation": 0}]}, "alpha": {"Points": [{"handle_right": {"X": 0.5, "Y": 0.0}, "handle_left": {"X": 0.5, "Y": 1.0}, "handle_type": 0, "co": {"X": 1.0, "Y": 255.0}, "interpolation": 0}]}, "blue": {"Points": [{"handle_right": {"X": 0.5, "Y": 0.0}, "handle_left": {"X": 0.5, "Y": 1.0}, "handle_type": 0, "co": {"X": 1.0, "Y": 255.0}, "interpolation": 0}]}, "red": {"Points": [{"handle_right": {"X": 0.5, "Y": 0.0}, "handle_left": {"X": 0.5, "Y": 1.0}, "handle_type": 0, "co": {"X": 1.0, "Y": 0.0}, "interpolation": 0}]}}, "perspective_c3_y": {"Points": [{"interpolation": 2, "co": {"X": 1.0, "Y": -1.0}}]}, "file_id": "DRHCZ485TK", "has_video": {"Points": [{"interpolation": 2, "co": {"X": 1.0, "Y": -1.0}}]}, "effects": [], "location_y": {"Points": [{"interpolation": 2, "co": {"X": 1.0, "Y": 0.0}}]}, "has_audio": {"Points": [{"interpolation": 2, "co": {"X": 1.0, "Y": -1.0}}]}, "display": 0, "reader": {"has_video": true, "path": "C:/Users/theor/Desktop/2.mp4", "width": 1280, "display_ratio": {"num": 16, "den": 9}, "audio_stream_index": -1, "pixel_ratio": {"num": 1, "den": 1}, "sample_rate": 0, "fps": {"num": 25, "den": 1}, "height": 720, "has_audio": false, "audio_bit_rate": 0, "channel_layout": 4, "channels": 0, "vcodec": "mpeg4", "audio_timebase": {"num": 1, "den": 1}, "file_size": "189413597", "has_single_image": false, "top_field_first": true, "interlaced_frame": false, "duration": 309.5199890136719, "acodec": "", "video_length": "7738", "pixel_format": 0, "type": "FFmpegReader", "video_timebase": {"num": 1, "den": 25}, "video_stream_index": 0, "video_bit_rate": 4895673}, "channel_filter": {"Points": [{"interpolation": 2, "co": {"X": 1.0, "Y": -1.0}}]}, "volume": {"Points": [{"interpolation": 2, "co": {"X": 1.0, "Y": 1.0}}, {"interpolation": 1, "co": {"X": 3682.0, "Y": 1.0}}, {"interpolation": 1, "co": {"X": 3683.0, "Y": 0.0}}, {"interpolation": 1, "co": {"X": 3922.0, "Y": 0.0}}, {"interpolation": 1, "co": {"X": 3923.0, "Y": 1.0}}]}, "perspective_c1_x": {"Points": [{"interpolation": 2, "co": {"X": 1.0, "Y": -1.0}}]}, "crop_width": {"Points": [{"interpolation": 2, "co": {"X": 1.0, "Y": -1.0}}]}, "shear_y": {"Points": [{"interpolation": 2, "co": {"X": 1.0, "Y": 0.0}}]}, "location_x": {"Points": [{"interpolation": 2, "co": {"X": 1.0, "Y": 0.0}}]}, "position": 0, "anchor": 0, "crop_y": {"Points": [{"interpolation": 2, "co": {"X": 1.0, "Y": 0.0}}]}, "shear_x": {"Points": [{"interpolation": 2, "co": {"X": 1.0, "Y": 0.0}}]}, "perspective_c2_x": {"Points": [{"interpolation": 2, "co": {"X": 1.0, "Y": -1.0}}]}, "perspective_c2_y": {"Points": [{"interpolation": 2, "co": {"X": 1.0, "Y": -1.0}}]}, "channel_mapping": {"Points": [{"interpolation": 2, "co": {"X": 1.0, "Y": -1.0}}]}, "perspective_c1_y": {"Points": [{"interpolation": 2, "co": {"X": 1.0, "Y": -1.0}}]}, "rotation": {"Points": [{"interpolation": 2, "co": {"X": 1.0, "Y": 0.0}}]}, "image": "C:\\Users\\theor\\.openshot_qt\\thumbnail\\DRHCZ485TK.png", "gravity": 4, "id": "FP3VW517GS", "scale_x": {"Points": [{"interpolation": 2, "co": {"X": 1.0, "Y": 1.0}}]}, "perspective_c4_x": {"Points": [{"interpolation": 2, "co": {"X": 1.0, "Y": -1.0}}]}, "scale_y": {"Points": [{"interpolation": 2, "co": {"X": 1.0, "Y": 1.0}}]}, "scale": 1, "duration": 164.0, "crop_height": {"Points": [{"interpolation": 2, "co": {"X": 1.0, "Y": -1.0}}]}, "perspective_c4_y": {"Points": [{"interpolation": 2, "co": {"X": 1.0, "Y": -1.0}}]}, "start": 0, "layer": 0, "original_data": {"video_length": "7738", "duration": 154.0, "end": 154.79166666666666}}], "key": ["clips"]}, {"type": "update", "value": {"channel_mapping": {"Points": [{"interpolation": 2, "co": {"X": 1.0, "Y": -1.0}}]}, "waveform": false, "title": "2.mp4", "image": "C:\\Users\\theor\\.openshot_qt\\thumbnail\\CPDG61WG5F-4069.png", "perspective_c3_x": {"Points": [{"interpolation": 2, "co": {"X": 1.0, "Y": -1.0}}]}, "alpha": {"Points": [{"interpolation": 2, "co": {"X": 1.0, "Y": 1.0}}]}, "scale_y": {"Points": [{"interpolation": 2, "co": {"X": 1.0, "Y": 1.0}}]}, "duration": 164.0, "crop_x": {"Points": [{"interpolation": 2, "co": {"X": 1.0, "Y": 0.0}}]}, "time": {"Points": [{"interpolation": 1, "co": {"X": 1.0, "Y": 1.0}}, {"interpolation": 1, "co": {"X": 3683.0, "Y": 7365.0}}, {"interpolation": 1, "co": {"X": 3923.0, "Y": 7365.0}}, {"interpolation": 1, "co": {"X": 3937.0, "Y": 3697.0}}]}, "gravity": 4, "anchor": 0, "effects": [], "perspective_c3_y": {"Points": [{"interpolation": 2, "co": {"X": 1.0, "Y": -1.0}}]}, "file_id": "DRHCZ485TK", "has_video": {"Points": [{"interpolation": 2, "co": {"X": 1.0, "Y": -1.0}}]}, "wave_color": {"green": {"Points": [{"handle_right": {"X": 0.5, "Y": 0.0}, "handle_left": {"X": 0.5, "Y": 1.0}, "handle_type": 0, "co": {"X": 1.0, "Y": 123.0}, "interpolation": 0}]}, "alpha": {"Points": [{"handle_right": {"X": 0.5, "Y": 0.0}, "handle_left": {"X": 0.5, "Y": 1.0}, "handle_type": 0, "co": {"X": 1.0, "Y": 255.0}, "interpolation": 0}]}, "blue": {"Points": [{"handle_right": {"X": 0.5, "Y": 0.0}, "handle_left": {"X": 0.5, "Y": 1.0}, "handle_type": 0, "co": {"X": 1.0, "Y": 255.0}, "interpolation": 0}]}, "red": {"Points": [{"handle_right": {"X": 0.5, "Y": 0.0}, "handle_left": {"X": 0.5, "Y": 1.0}, "handle_type": 0, "co": {"X": 1.0, "Y": 0.0}, "interpolation": 0}]}}, "location_y": {"Points": [{"interpolation": 2, "co": {"X": 1.0, "Y": 0.0}}]}, "scale_x": {"Points": [{"interpolation": 2, "co": {"X": 1.0, "Y": 1.0}}]}, "has_audio": {"Points": [{"interpolation": 2, "co": {"X": 1.0, "Y": -1.0}}]}, "perspective_c2_x": {"Points": [{"interpolation": 2, "co": {"X": 1.0, "Y": -1.0}}]}, "display": 0, "channel_filter": {"Points": [{"interpolation": 2, "co": {"X": 1.0, "Y": -1.0}}]}, "volume": {"Points": [{"interpolation": 2, "co": {"X": 1.0, "Y": 1.0}}, {"interpolation": 1, "co": {"X": 3682.0, "Y": 1.0}}, {"interpolation": 1, "co": {"X": 3683.0, "Y": 0.0}}, {"interpolation": 1, "co": {"X": 3922.0, "Y": 0.0}}, {"interpolation": 1, "co": {"X": 3923.0, "Y": 1.0}}]}, "id": "CPDG61WG5F", "rotation": {"Points": [{"interpolation": 2, "co": {"X": 1.0, "Y": 0.0}}]}, "perspective_c1_x": {"Points": [{"interpolation": 2, "co": {"X": 1.0, "Y": -1.0}}]}, "crop_width": {"Points": [{"interpolation": 2, "co": {"X": 1.0, "Y": -1.0}}]}, "shear_y": {"Points": [{"interpolation": 2, "co": {"X": 1.0, "Y": 0.0}}]}, "location_x": {"Points": [{"interpolation": 2, "co": {"X": 1.0, "Y": 0.0}}]}, "position": 162.72, "end": 164.79166666666666, "crop_height": {"Points": [{"interpolation": 2, "co": {"X": 1.0, "Y": -1.0}}]}, "perspective_c2_y": {"Points": [{"interpolation": 2, "co": {"X": 1.0, "Y": -1.0}}]}, "original_data": {"video_length": "7738", "duration": 154.0, "end": 154.79166666666666}, "crop_y": {"Points": [{"interpolation": 2, "co": {"X": 1.0, "Y": 0.0}}]}, "shear_x": {"Points": [{"interpolation": 2, "co": {"X": 1.0, "Y": 0.0}}]}, "start": 162.72, "layer": 0, "scale": 1, "perspective_c4_x": {"Points": [{"interpolation": 2, "co": {"X": 1.0, "Y": -1.0}}]}, "perspective_c1_y": {"Points": [{"interpolation": 2, "co": {"X": 1.0, "Y": -1.0}}]}, "perspective_c4_y": {"Points": [{"interpolation": 2, "co": {"X": 1.0, "Y": -1.0}}]}}, "partial": false, "old_values": {"waveform": false, "title": "2.mp4", "perspective_c3_x": {"Points": [{"interpolation": 2, "co": {"X": 1.0, "Y": -1.0}}]}, "alpha": {"Points": [{"interpolation": 2, "co": {"X": 1.0, "Y": 1.0}}]}, "crop_x": {"Points": [{"interpolation": 2, "co": {"X": 1.0, "Y": 0.0}}]}, "time": {"Points": [{"interpolation": 1, "co": {"X": 1.0, "Y": 1.0}}, {"interpolation": 1, "co": {"X": 3683.0, "Y": 7365.0}}, {"interpolation": 1, "co": {"X": 3923.0, "Y": 7365.0}}, {"interpolation": 1, "co": {"X": 3937.0, "Y": 3697.0}}]}, "end": 164.79166666666666, "wave_color": {"green": {"Points": [{"handle_right": {"X": 0.5, "Y": 0.0}, "handle_left": {"X": 0.5, "Y": 1.0}, "handle_type": 0, "co": {"X": 1.0, "Y": 123.0}, "interpolation": 0}]}, "alpha": {"Points": [{"handle_right": {"X": 0.5, "Y": 0.0}, "handle_left": {"X": 0.5, "Y": 1.0}, "handle_type": 0, "co": {"X": 1.0, "Y": 255.0}, "interpolation": 0}]}, "blue": {"Points": [{"handle_right": {"X": 0.5, "Y": 0.0}, "handle_left": {"X": 0.5, "Y": 1.0}, "handle_type": 0, "co": {"X": 1.0, "Y": 255.0}, "interpolation": 0}]}, "red": {"Points": [{"handle_right": {"X": 0.5, "Y": 0.0}, "handle_left": {"X": 0.5, "Y": 1.0}, "handle_type": 0, "co": {"X": 1.0, "Y": 0.0}, "interpolation": 0}]}}, "perspective_c3_y": {"Points": [{"interpolation": 2, "co": {"X": 1.0, "Y": -1.0}}]}, "file_id": "DRHCZ485TK", "has_video": {"Points": [{"interpolation": 2, "co": {"X": 1.0, "Y": -1.0}}]}, "effects": [], "location_y": {"Points": [{"interpolation": 2, "co": {"X": 1.0, "Y": 0.0}}]}, "has_audio": {"Points": [{"interpolation": 2, "co": {"X": 1.0, "Y": -1.0}}]}, "display": 0, "reader": {"has_video": true, "path": "C:/Users/theor/Desktop/2.mp4", "width": 1280, "display_ratio": {"num": 16, "den": 9}, "audio_stream_index": -1, "pixel_ratio": {"num": 1, "den": 1}, "sample_rate": 0, "fps": {"num": 25, "den": 1}, "height": 720, "has_audio": false, "audio_bit_rate": 0, "channel_layout": 4, "channels": 0, "vcodec": "mpeg4", "audio_timebase": {"num": 1, "den": 1}, "file_size": "189413597", "has_single_image": false, "top_field_first": true, "interlaced_frame": false, "duration": 309.5199890136719, "acodec": "", "video_length": "7738", "pixel_format": 0, "type": "FFmpegReader", "video_timebase": {"num": 1, "den": 25}, "video_stream_index": 0, "video_bit_rate": 4895673}, "channel_filter": {"Points": [{"interpolation": 2, "co": {"X": 1.0, "Y": -1.0}}]}, "volume": {"Points": [{"interpolation": 2, "co": {"X": 1.0, "Y": 1.0}}, {"interpolation": 1, "co": {"X": 3682.0, "Y": 1.0}}, {"interpolation": 1, "co": {"X": 3683.0, "Y": 0.0}}, {"interpolation": 1, "co": {"X": 3922.0, "Y": 0.0}}, {"interpolation": 1, "co": {"X": 3923.0, "Y": 1.0}}]}, "perspective_c1_x": {"Points": [{"interpolation": 2, "co": {"X": 1.0, "Y": -1.0}}]}, "crop_width": {"Points": [{"interpolation": 2, "co": {"X": 1.0, "Y": -1.0}}]}, "shear_y": {"Points": [{"interpolation": 2, "co": {"X": 1.0, "Y": 0.0}}]}, "location_x": {"Points": [{"interpolation": 2, "co": {"X": 1.0, "Y": 0.0}}]}, "position": 162.72, "anchor": 0, "crop_y": {"Points": [{"interpolation": 2, "co": {"X": 1.0, "Y": 0.0}}]}, "shear_x": {"Points": [{"interpolation": 2, "co": {"X": 1.0, "Y": 0.0}}]}, "perspective_c2_x": {"Points": [{"interpolation": 2, "co": {"X": 1.0, "Y": -1.0}}]}, "perspective_c2_y": {"Points": [{"interpolation": 2, "co": {"X": 1.0, "Y": -1.0}}]}, "channel_mapping": {"Points": [{"interpolation": 2, "co": {"X": 1.0, "Y": -1.0}}]}, "perspective_c1_y": {"Points": [{"interpolation": 2, "co": {"X": 1.0, "Y": -1.0}}]}, "rotation": {"Points": [{"interpolation": 2, "co": {"X": 1.0, "Y": 0.0}}]}, "image": "C:\\Users\\theor\\.openshot_qt\\thumbnail\\DRHCZ485TK.png", "gravity": 4, "id": "CPDG61WG5F", "scale_x": {"Points": [{"interpolation": 2, "co": {"X": 1.0, "Y": 1.0}}]}, "perspective_c4_x": {"Points": [{"interpolation": 2, "co": {"X": 1.0, "Y": -1.0}}]}, "scale_y": {"Points": [{"interpolation": 2, "co": {"X": 1.0, "Y": 1.0}}]}, "scale": 1, "duration": 164.0, "crop_height": {"Points": [{"interpolation": 2, "co": {"X": 1.0, "Y": -1.0}}]}, "perspective_c4_y": {"Points": [{"interpolation": 2, "co": {"X": 1.0, "Y": -1.0}}]}, "start": 162.72, "layer": 0, "original_data": {"video_length": "7738", "duration": 154.0, "end": 154.79166666666666}}, "key": ["clips", {"id": "CPDG61WG5F"}]}, {"type": "update", "value": {"channel_mapping": {"Points": [{"interpolation": 2, "co": {"X": 1.0, "Y": -1.0}}]}, "waveform": false, "title": "2.mp4", "image": "C:\\Users\\theor\\.openshot_qt\\thumbnail\\DRHCZ485TK.png", "perspective_c3_x": {"Points": [{"interpolation": 2, "co": {"X": 1.0, "Y": -1.0}}]}, "alpha": {"Points": [{"interpolation": 2, "co": {"X": 1.0, "Y": 1.0}}]}, "scale_y": {"Points": [{"interpolation": 2, "co": {"X": 1.0, "Y": 1.0}}]}, "duration": 164.0, "crop_x": {"Points": [{"interpolation": 2, "co": {"X": 1.0, "Y": 0.0}}]}, "time": {"Points": [{"interpolation": 1, "co": {"X": 1.0, "Y": 1.0}}, {"interpolation": 1, "co": {"X": 3683.0, "Y": 7365.0}}, {"interpolation": 1, "co": {"X": 3923.0, "Y": 7365.0}}, {"interpolation": 1, "co": {"X": 3937.0, "Y": 3697.0}}]}, "gravity": 4, "anchor": 0, "effects": [], "perspective_c3_y": {"Points": [{"interpolation": 2, "co": {"X": 1.0, "Y": -1.0}}]}, "file_id": "DRHCZ485TK", "has_video": {"Points": [{"interpolation": 2, "co": {"X": 1.0, "Y": -1.0}}]}, "wave_color": {"green": {"Points": [{"handle_right": {"X": 0.5, "Y": 0.0}, "handle_left": {"X": 0.5, "Y": 1.0}, "handle_type": 0, "co": {"X": 1.0, "Y": 123.0}, "interpolation": 0}]}, "alpha": {"Points": [{"handle_right": {"X": 0.5, "Y": 0.0}, "handle_left": {"X": 0.5, "Y": 1.0}, "handle_type": 0, "co": {"X": 1.0, "Y": 255.0}, "interpolation": 0}]}, "blue": {"Points": [{"handle_right": {"X": 0.5, "Y": 0.0}, "handle_left": {"X": 0.5, "Y": 1.0}, "handle_type": 0, "co": {"X": 1.0, "Y": 255.0}, "interpolation": 0}]}, "red": {"Points": [{"handle_right": {"X": 0.5, "Y": 0.0}, "handle_left": {"X": 0.5, "Y": 1.0}, "handle_type": 0, "co": {"X": 1.0, "Y": 0.0}, "interpolation": 0}]}}, "location_y": {"Points": [{"interpolation": 2, "co": {"X": 1.0, "Y": 0.0}}]}, "scale_x": {"Points": [{"interpolation": 2, "co": {"X": 1.0, "Y": 1.0}}]}, "has_audio": {"Points": [{"interpolation": 2, "co": {"X": 1.0, "Y": -1.0}}]}, "perspective_c2_x": {"Points": [{"interpolation": 2, "co": {"X": 1.0, "Y": -1.0}}]}, "display": 0, "channel_filter": {"Points": [{"interpolation": 2, "co": {"X": 1.0, "Y": -1.0}}]}, "volume": {"Points": [{"interpolation": 2, "co": {"X": 1.0, "Y": 1.0}}, {"interpolation": 1, "co": {"X": 3682.0, "Y": 1.0}}, {"interpolation": 1, "co": {"X": 3683.0, "Y": 0.0}}, {"interpolation": 1, "co": {"X": 3922.0, "Y": 0.0}}, {"interpolation": 1, "co": {"X": 3923.0, "Y": 1.0}}]}, "id": "FP3VW517GS", "rotation": {"Points": [{"interpolation": 2, "co": {"X": 1.0, "Y": 0.0}}]}, "perspective_c1_x": {"Points": [{"interpolation": 2, "co": {"X": 1.0, "Y": -1.0}}]}, "crop_width": {"Points": [{"interpolation": 2, "co": {"X": 1.0, "Y": -1.0}}]}, "shear_y": {"Points": [{"interpolation": 2, "co": {"X": 1.0, "Y": 0.0}}]}, "location_x": {"Points": [{"interpolation": 2, "co": {"X": 1.0, "Y": 0.0}}]}, "position": 0, "end": 162.72, "crop_height": {"Points": [{"interpolation": 2, "co": {"X": 1.0, "Y": -1.0}}]}, "perspective_c2_y": {"Points": [{"interpolation": 2, "co": {"X": 1.0, "Y": -1.0}}]}, "original_data": {"video_length": "7738", "duration": 154.0, "end": 154.79166666666666}, "crop_y": {"Points": [{"interpolation": 2, "co": {"X": 1.0, "Y": 0.0}}]}, "shear_x": {"Points": [{"interpolation": 2, "co": {"X": 1.0, "Y": 0.0}}]}, "start": 0, "layer": 0, "scale": 1, "perspective_c4_x": {"Points": [{"interpolation": 2, "co": {"X": 1.0, "Y": -1.0}}]}, "perspective_c1_y": {"Points": [{"interpolation": 2, "co": {"X": 1.0, "Y": -1.0}}]}, "perspective_c4_y": {"Points": [{"interpolation": 2, "co": {"X": 1.0, "Y": -1.0}}]}}, "partial": false, "old_values": {"waveform": false, "title": "2.mp4", "perspective_c3_x": {"Points": [{"interpolation": 2, "co": {"X": 1.0, "Y": -1.0}}]}, "alpha": {"Points": [{"interpolation": 2, "co": {"X": 1.0, "Y": 1.0}}]}, "crop_x": {"Points": [{"interpolation": 2, "co": {"X": 1.0, "Y": 0.0}}]}, "time": {"Points": [{"interpolation": 1, "co": {"X": 1.0, "Y": 1.0}}, {"interpolation": 1, "co": {"X": 3683.0, "Y": 7365.0}}, {"interpolation": 1, "co": {"X": 3923.0, "Y": 7365.0}}, {"interpolation": 1, "co": {"X": 3937.0, "Y": 3697.0}}]}, "end": 164.79166666666666, "wave_color": {"green": {"Points": [{"handle_right": {"X": 0.5, "Y": 0.0}, "handle_left": {"X": 0.5, "Y": 1.0}, "handle_type": 0, "co": {"X": 1.0, "Y": 123.0}, "interpolation": 0}]}, "alpha": {"Points": [{"handle_right": {"X": 0.5, "Y": 0.0}, "handle_left": {"X": 0.5, "Y": 1.0}, "handle_type": 0, "co": {"X": 1.0, "Y": 255.0}, "interpolation": 0}]}, "blue": {"Points": [{"handle_right": {"X": 0.5, "Y": 0.0}, "handle_left": {"X": 0.5, "Y": 1.0}, "handle_type": 0, "co": {"X": 1.0, "Y": 255.0}, "interpolation": 0}]}, "red": {"Points": [{"handle_right": {"X": 0.5, "Y": 0.0}, "handle_left": {"X": 0.5, "Y": 1.0}, "handle_type": 0, "co": {"X": 1.0, "Y": 0.0}, "interpolation": 0}]}}, "perspective_c3_y": {"Points": [{"interpolation": 2, "co": {"X": 1.0, "Y": -1.0}}]}, "file_id": "DRHCZ485TK", "has_video": {"Points": [{"interpolation": 2, "co": {"X": 1.0, "Y": -1.0}}]}, "effects": [], "location_y": {"Points": [{"interpolation": 2, "co": {"X": 1.0, "Y": 0.0}}]}, "has_audio": {"Points": [{"interpolation": 2, "co": {"X": 1.0, "Y": -1.0}}]}, "display": 0, "reader": {"has_video": true, "path": "C:/Users/theor/Desktop/2.mp4", "width": 1280, "display_ratio": {"num": 16, "den": 9}, "audio_stream_index": -1, "pixel_ratio": {"num": 1, "den": 1}, "sample_rate": 0, "fps": {"num": 25, "den": 1}, "height": 720, "has_audio": false, "audio_bit_rate": 0, "channel_layout": 4, "channels": 0, "vcodec": "mpeg4", "audio_timebase": {"num": 1, "den": 1}, "file_size": "189413597", "has_single_image": false, "top_field_first": true, "interlaced_frame": false, "duration": 309.5199890136719, "acodec": "", "video_length": "7738", "pixel_format": 0, "type": "FFmpegReader", "video_timebase": {"num": 1, "den": 25}, "video_stream_index": 0, "video_bit_rate": 4895673}, "channel_filter": {"Points": [{"interpolation": 2, "co": {"X": 1.0, "Y": -1.0}}]}, "volume": {"Points": [{"interpolation": 2, "co": {"X": 1.0, "Y": 1.0}}, {"interpolation": 1, "co": {"X": 3682.0, "Y": 1.0}}, {"interpolation": 1, "co": {"X": 3683.0, "Y": 0.0}}, {"interpolation": 1, "co": {"X": 3922.0, "Y": 0.0}}, {"interpolation": 1, "co": {"X": 3923.0, "Y": 1.0}}]}, "perspective_c1_x": {"Points": [{"interpolation": 2, "co": {"X": 1.0, "Y": -1.0}}]}, "crop_width": {"Points": [{"interpolation": 2, "co": {"X": 1.0, "Y": -1.0}}]}, "shear_y": {"Points": [{"interpolation": 2, "co": {"X": 1.0, "Y": 0.0}}]}, "location_x": {"Points": [{"interpolation": 2, "co": {"X": 1.0, "Y": 0.0}}]}, "position": 0, "anchor": 0, "crop_y": {"Points": [{"interpolation": 2, "co": {"X": 1.0, "Y": 0.0}}]}, "shear_x": {"Points": [{"interpolation": 2, "co": {"X": 1.0, "Y": 0.0}}]}, "perspective_c2_x": {"Points": [{"interpolation": 2, "co": {"X": 1.0, "Y": -1.0}}]}, "perspective_c2_y": {"Points": [{"interpolation": 2, "co": {"X": 1.0, "Y": -1.0}}]}, "channel_mapping": {"Points": [{"interpolation": 2, "co": {"X": 1.0, "Y": -1.0}}]}, "perspective_c1_y": {"Points": [{"interpolation": 2, "co": {"X": 1.0, "Y": -1.0}}]}, "rotation": {"Points": [{"interpolation": 2, "co": {"X": 1.0, "Y": 0.0}}]}, "image": "C:\\Users\\theor\\.openshot_qt\\thumbnail\\DRHCZ485TK.png", "gravity": 4, "id": "FP3VW517GS", "scale_x": {"Points": [{"interpolation": 2, "co": {"X": 1.0, "Y": 1.0}}]}, "perspective_c4_x": {"Points": [{"interpolation": 2, "co": {"X": 1.0, "Y": -1.0}}]}, "scale_y": {"Points": [{"interpolation": 2, "co": {"X": 1.0, "Y": 1.0}}]}, "scale": 1, "duration": 164.0, "crop_height": {"Points": [{"interpolation": 2, "co": {"X": 1.0, "Y": -1.0}}]}, "perspective_c4_y": {"Points": [{"interpolation": 2, "co": {"X": 1.0, "Y": -1.0}}]}, "start": 0, "layer": 0, "original_data": {"video_length": "7738", "duration": 154.0, "end": 154.79166666666666}}, "key": ["clips", {"id": "FP3VW517GS"}]}, {"type": "delete", "value": null, "partial": false, "old_values": {"waveform": false, "title": "2.mp4", "perspective_c3_x": {"Points": [{"interpolation": 2, "co": {"X": 1.0, "Y": -1.0}}]}, "alpha": {"Points": [{"interpolation": 2, "co": {"X": 1.0, "Y": 1.0}}]}, "crop_x": {"Points": [{"interpolation": 2, "co": {"X": 1.0, "Y": 0.0}}]}, "time": {"Points": [{"interpolation": 1, "co": {"X": 1.0, "Y": 1.0}}, {"interpolation": 1, "co": {"X": 3683.0, "Y": 7365.0}}, {"interpolation": 1, "co": {"X": 3923.0, "Y": 7365.0}}, {"interpolation": 1, "co": {"X": 3937.0, "Y": 3697.0}}]}, "end": 164.79166666666666, "wave_color": {"red": {"Points": [{"handle_right": {"X": 0.5, "Y": 0.0}, "handle_left": {"X": 0.5, "Y": 1.0}, "handle_type": 0, "co": {"X": 1.0, "Y": 0.0}, "interpolation": 0}]}, "green": {"Points": [{"handle_right": {"X": 0.5, "Y": 0.0}, "handle_left": {"X": 0.5, "Y": 1.0}, "handle_type": 0, "co": {"X": 1.0, "Y": 123.0}, "interpolation": 0}]}, "blue": {"Points": [{"handle_right": {"X": 0.5, "Y": 0.0}, "handle_left": {"X": 0.5, "Y": 1.0}, "handle_type": 0, "co": {"X": 1.0, "Y": 255.0}, "interpolation": 0}]}, "alpha": {"Points": [{"handle_right": {"X": 0.5, "Y": 0.0}, "handle_left": {"X": 0.5, "Y": 1.0}, "handle_type": 0, "co": {"X": 1.0, "Y": 255.0}, "interpolation": 0}]}}, "perspective_c3_y": {"Points": [{"interpolation": 2, "co": {"X": 1.0, "Y": -1.0}}]}, "file_id": "DRHCZ485TK", "has_video": {"Points": [{"interpolation": 2, "co": {"X": 1.0, "Y": -1.0}}]}, "effects": [], "location_y": {"Points": [{"interpolation": 2, "co": {"X": 1.0, "Y": 0.0}}]}, "has_audio": {"Points": [{"interpolation": 2, "co": {"X": 1.0, "Y": -1.0}}]}, "display": 0, "reader": {"has_video": true, "path": "C:/Users/theor/Desktop/2.mp4", "width": 1280, "display_ratio": {"num": 16, "den": 9}, "audio_stream_index": -1, "pixel_ratio": {"num": 1, "den": 1}, "sample_rate": 0, "fps": {"num": 25, "den": 1}, "height": 720, "has_audio": false, "audio_bit_rate": 0, "channel_layout": 4, "channels": 0, "vcodec": "mpeg4", "audio_timebase": {"num": 1, "den": 1}, "file_size": "189413597", "has_single_image": false, "top_field_first": true, "interlaced_frame": false, "duration": 309.5199890136719, "acodec": "", "video_length": "7738", "pixel_format": 0, "type": "FFmpegReader", "video_timebase": {"num": 1, "den": 25}, "video_stream_index": 0, "video_bit_rate": 4895673}, "channel_filter": {"Points": [{"interpolation": 2, "co": {"X": 1.0, "Y": -1.0}}]}, "volume": {"Points": [{"interpolation": 2, "co": {"X": 1.0, "Y": 1.0}}, {"interpolation": 1, "co": {"X": 3682.0, "Y": 1.0}}, {"interpolation": 1, "co": {"X": 3683.0, "Y": 0.0}}, {"interpolation": 1, "co": {"X": 3922.0, "Y": 0.0}}, {"interpolation": 1, "co": {"X": 3923.0, "Y": 1.0}}]}, "perspective_c1_x": {"Points": [{"interpolation": 2, "co": {"X": 1.0, "Y": -1.0}}]}, "crop_width": {"Points": [{"interpolation": 2, "co": {"X": 1.0, "Y": -1.0}}]}, "shear_y": {"Points": [{"interpolation": 2, "co": {"X": 1.0, "Y": 0.0}}]}, "location_x": {"Points": [{"interpolation": 2, "co": {"X": 1.0, "Y": 0.0}}]}, "position": 162.72, "anchor": 0, "crop_y": {"Points": [{"interpolation": 2, "co": {"X": 1.0, "Y": 0.0}}]}, "shear_x": {"Points": [{"interpolation": 2, "co": {"X": 1.0, "Y": 0.0}}]}, "perspective_c2_x": {"Points": [{"interpolation": 2, "co": {"X": 1.0, "Y": -1.0}}]}, "perspective_c2_y": {"Points": [{"interpolation": 2, "co": {"X": 1.0, "Y": -1.0}}]}, "channel_mapping": {"Points": [{"interpolation": 2, "co": {"X": 1.0, "Y": -1.0}}]}, "perspective_c1_y": {"Points": [{"interpolation": 2, "co": {"X": 1.0, "Y": -1.0}}]}, "rotation": {"Points": [{"interpolation": 2, "co": {"X": 1.0, "Y": 0.0}}]}, "image": "C:\\Users\\theor\\.openshot_qt\\thumbnail\\CPDG61WG5F-4069.png", "gravity": 4, "id": "CPDG61WG5F", "scale_x": {"Points": [{"interpolation": 2, "co": {"X": 1.0, "Y": 1.0}}]}, "perspective_c4_x": {"Points": [{"interpolation": 2, "co": {"X": 1.0, "Y": -1.0}}]}, "scale_y": {"Points": [{"interpolation": 2, "co": {"X": 1.0, "Y": 1.0}}]}, "scale": 1, "duration": 164.0, "crop_height": {"Points": [{"interpolation": 2, "co": {"X": 1.0, "Y": -1.0}}]}, "perspective_c4_y": {"Points": [{"interpolation": 2, "co": {"X": 1.0, "Y": -1.0}}]}, "start": 162.72, "layer": 0, "original_data": {"video_length": "7738", "duration": 154.0, "end": 154.79166666666666}}, "key": ["clips", {"id": "CPDG61WG5F"}]}, {"type": "update", "value": "C:/Dropbox/GitHub/Cannery District - Eau Claire/Transfer/20190228 - video animination", "partial": false, "old_values": "", "key": ["export_path"]}]}, "id": "T0", "progress": [], "channel_layout": 3, "channels": 2, "height": 720, "profile": "HDV 720 24p", "duration": 350.3116666666666, "clips": [{"waveform": false, "title": "Hello_.m4a", "perspective_c3_x": {"Points": [{"interpolation": 2, "co": {"X": 1.0, "Y": -1.0}}]}, "alpha": {"Points": [{"interpolation": 2, "co": {"X": 1.0, "Y": 1.0}}]}, "crop_x": {"Points": [{"interpolation": 2, "co": {"X": 1.0, "Y": 0.0}}]}, "time": {"Points": [{"interpolation": 2, "co": {"X": 1.0, "Y": 1.0}}]}, "end": 163.4220428466797, "wave_color": {"green": {"Points": [{"handle_right": {"X": 0.5, "Y": 0.0}, "handle_left": {"X": 0.5, "Y": 1.0}, "handle_type": 0, "co": {"X": 1.0, "Y": 123.0}, "interpolation": 0}]}, "alpha": {"Points": [{"handle_right": {"X": 0.5, "Y": 0.0}, "handle_left": {"X": 0.5, "Y": 1.0}, "handle_type": 0, "co": {"X": 1.0, "Y": 255.0}, "interpolation": 0}]}, "blue": {"Points": [{"handle_right": {"X": 0.5, "Y": 0.0}, "handle_left": {"X": 0.5, "Y": 1.0}, "handle_type": 0, "co": {"X": 1.0, "Y": 255.0}, "interpolation": 0}]}, "red": {"Points": [{"handle_right": {"X": 0.5, "Y": 0.0}, "handle_left": {"X": 0.5, "Y": 1.0}, "handle_type": 0, "co": {"X": 1.0, "Y": 0.0}, "interpolation": 0}]}}, "perspective_c3_y": {"Points": [{"interpolation": 2, "co": {"X": 1.0, "Y": -1.0}}]}, "file_id": "844VBPFXHL", "has_video": {"Points": [{"interpolation": 2, "co": {"X": 1.0, "Y": -1.0}}]}, "effects": [], "location_y": {"Points": [{"interpolation": 2, "co": {"X": 1.0, "Y": 0.0}}]}, "has_audio": {"Points": [{"interpolation": 2, "co": {"X": 1.0, "Y": -1.0}}]}, "display": 0, "reader": {"has_video": false, "path": "Hello_.m4a", "width": 720, "display_ratio": {"num": 1, "den": 1}, "audio_stream_index": 0, "pixel_ratio": {"num": 1, "den": 1}, "sample_rate": 44100, "fps": {"num": 24, "den": 1}, "height": 480, "has_audio": true, "audio_bit_rate": 254854, "channel_layout": 3, "channels": 2, "vcodec": "", "audio_timebase": {"num": 1, "den": 44100}, "file_size": "5263452", "has_single_image": false, "top_field_first": true, "interlaced_frame": false, "duration": 163.4220428466797, "acodec": "aac", "video_length": "3922", "pixel_format": -1, "type": "FFmpegReader", "video_timebase": {"num": 1, "den": 24}, "video_stream_index": -1, "video_bit_rate": 0}, "channel_filter": {"Points": [{"interpolation": 2, "co": {"X": 1.0, "Y": -1.0}}]}, "volume": {"Points": [{"interpolation": 2, "co": {"X": 1.0, "Y": 1.0}}]}, "perspective_c1_x": {"Points": [{"interpolation": 2, "co": {"X": 1.0, "Y": -1.0}}]}, "crop_width": {"Points": [{"interpolation": 2, "co": {"X": 1.0, "Y": -1.0}}]}, "shear_y": {"Points": [{"interpolation": 2, "co": {"X": 1.0, "Y": 0.0}}]}, "location_x": {"Points": [{"interpolation": 2, "co": {"X": 1.0, "Y": 0.0}}]}, "position": 0, "anchor": 0, "crop_y": {"Points": [{"interpolation": 2, "co": {"X": 1.0, "Y": 0.0}}]}, "shear_x": {"Points": [{"interpolation": 2, "co": {"X": 1.0, "Y": 0.0}}]}, "perspective_c2_x": {"Points": [{"interpolation": 2, "co": {"X": 1.0, "Y": -1.0}}]}, "perspective_c2_y": {"Points": [{"interpolation": 2, "co": {"X": 1.0, "Y": -1.0}}]}, "channel_mapping": {"Points": [{"interpolation": 2, "co": {"X": 1.0, "Y": -1.0}}]}, "perspective_c1_y": {"Points": [{"interpolation": 2, "co": {"X": 1.0, "Y": -1.0}}]}, "rotation": {"Points": [{"interpolation": 2, "co": {"X": 1.0, "Y": 0.0}}]}, "image": "..\\..\\..\\..\\..\\Program Files\\OpenShot Video Editor\\images\\AudioThumbnail.png", "gravity": 4, "id": "AN7OLTM9OC", "scale_x": {"Points": [{"interpolation": 2, "co": {"X": 1.0, "Y": 1.0}}]}, "perspective_c4_x": {"Points": [{"interpolation": 2, "co": {"X": 1.0, "Y": -1.0}}]}, "scale_y": {"Points": [{"interpolation": 2, "co": {"X": 1.0, "Y": 1.0}}]}, "scale": 1, "duration": 163.4220428466797, "crop_height": {"Points": [{"interpolation": 2, "co": {"X": 1.0, "Y": -1.0}}]}, "perspective_c4_y": {"Points": [{"interpolation": 2, "co": {"X": 1.0, "Y": -1.0}}]}, "start": 0, "layer": 1}, {"waveform": false, "title": "2.mp4", "perspective_c3_x": {"Points": [{"interpolation": 2, "co": {"X": 1.0, "Y": -1.0}}]}, "alpha": {"Points": [{"interpolation": 2, "co": {"X": 1.0, "Y": 1.0}}]}, "crop_x": {"Points": [{"interpolation": 2, "co": {"X": 1.0, "Y": 0.0}}]}, "time": {"Points": [{"interpolation": 1, "co": {"X": 1.0, "Y": 1.0}}, {"interpolation": 1, "co": {"X": 3683.0, "Y": 7365.0}}, {"interpolation": 1, "co": {"X": 3923.0, "Y": 7365.0}}, {"interpolation": 1, "co": {"X": 3937.0, "Y": 3697.0}}]}, "end": 162.72, "wave_color": {"red": {"Points": [{"handle_right": {"X": 0.5, "Y": 0.0}, "handle_left": {"X": 0.5, "Y": 1.0}, "handle_type": 0, "co": {"X": 1.0, "Y": 0.0}, "interpolation": 0}]}, "green": {"Points": [{"handle_right": {"X": 0.5, "Y": 0.0}, "handle_left": {"X": 0.5, "Y": 1.0}, "handle_type": 0, "co": {"X": 1.0, "Y": 123.0}, "interpolation": 0}]}, "blue": {"Points": [{"handle_right": {"X": 0.5, "Y": 0.0}, "handle_left": {"X": 0.5, "Y": 1.0}, "handle_type": 0, "co": {"X": 1.0, "Y": 255.0}, "interpolation": 0}]}, "alpha": {"Points": [{"handle_right": {"X": 0.5, "Y": 0.0}, "handle_left": {"X": 0.5, "Y": 1.0}, "handle_type": 0, "co": {"X": 1.0, "Y": 255.0}, "interpolation": 0}]}}, "perspective_c3_y": {"Points": [{"interpolation": 2, "co": {"X": 1.0, "Y": -1.0}}]}, "file_id": "DRHCZ485TK", "has_video": {"Points": [{"interpolation": 2, "co": {"X": 1.0, "Y": -1.0}}]}, "effects": [], "location_y": {"Points": [{"interpolation": 2, "co": {"X": 1.0, "Y": 0.0}}]}, "has_audio": {"Points": [{"interpolation": 2, "co": {"X": 1.0, "Y": -1.0}}]}, "display": 0, "reader": {"has_video": true, "path": "..\\..\\..\\..\\..\\Users\\theor\\Desktop\\2.mp4", "width": 1280, "display_ratio": {"num": 16, "den": 9}, "audio_stream_index": -1, "pixel_ratio": {"num": 1, "den": 1}, "sample_rate": 0, "fps": {"num": 25, "den": 1}, "height": 720, "has_audio": false, "audio_bit_rate": 0, "channel_layout": 4, "channels": 0, "vcodec": "mpeg4", "audio_timebase": {"num": 1, "den": 1}, "file_size": "189413597", "has_single_image": false, "top_field_first": true, "interlaced_frame": false, "duration": 309.5199890136719, "acodec": "", "video_length": "7738", "pixel_format": 0, "type": "FFmpegReader", "video_timebase": {"num": 1, "den": 25}, "video_stream_index": 0, "video_bit_rate": 4895673}, "channel_filter": {"Points": [{"interpolation": 2, "co": {"X": 1.0, "Y": -1.0}}]}, "volume": {"Points": [{"interpolation": 2, "co": {"X": 1.0, "Y": 1.0}}, {"interpolation": 1, "co": {"X": 3682.0, "Y": 1.0}}, {"interpolation": 1, "co": {"X": 3683.0, "Y": 0.0}}, {"interpolation": 1, "co": {"X": 3922.0, "Y": 0.0}}, {"interpolation": 1, "co": {"X": 3923.0, "Y": 1.0}}]}, "perspective_c1_x": {"Points": [{"interpolation": 2, "co": {"X": 1.0, "Y": -1.0}}]}, "crop_width": {"Points": [{"interpolation": 2, "co": {"X": 1.0, "Y": -1.0}}]}, "shear_y": {"Points": [{"interpolation": 2, "co": {"X": 1.0, "Y": 0.0}}]}, "location_x": {"Points": [{"interpolation": 2, "co": {"X": 1.0, "Y": 0.0}}]}, "position": 0, "anchor": 0, "crop_y": {"Points": [{"interpolation": 2, "co": {"X": 1.0, "Y": 0.0}}]}, "shear_x": {"Points": [{"interpolation": 2, "co": {"X": 1.0, "Y": 0.0}}]}, "perspective_c2_x": {"Points": [{"interpolation": 2, "co": {"X": 1.0, "Y": -1.0}}]}, "perspective_c2_y": {"Points": [{"interpolation": 2, "co": {"X": 1.0, "Y": -1.0}}]}, "channel_mapping": {"Points": [{"interpolation": 2, "co": {"X": 1.0, "Y": -1.0}}]}, "perspective_c1_y": {"Points": [{"interpolation": 2, "co": {"X": 1.0, "Y": -1.0}}]}, "rotation": {"Points": [{"interpolation": 2, "co": {"X": 1.0, "Y": 0.0}}]}, "image": "..\\..\\..\\..\\..\\Users\\theor\\.openshot_qt\\thumbnail\\DRHCZ485TK.png", "gravity": 4, "id": "FP3VW517GS", "scale_x": {"Points": [{"interpolation": 2, "co": {"X": 1.0, "Y": 1.0}}]}, "perspective_c4_x": {"Points": [{"interpolation": 2, "co": {"X": 1.0, "Y": -1.0}}]}, "scale_y": {"Points": [{"interpolation": 2, "co": {"X": 1.0, "Y": 1.0}}]}, "scale": 1, "duration": 164.0, "crop_height": {"Points": [{"interpolation": 2, "co": {"X": 1.0, "Y": -1.0}}]}, "perspective_c4_y": {"Points": [{"interpolation": 2, "co": {"X": 1.0, "Y": -1.0}}]}, "start": 0, "layer": 0, "original_data": {"video_length": "7738", "duration": 154.0, "end": 154.79166666666666}}], "playhead_position": 0, "export_path": "C:/Dropbox/GitHub/Cannery District - Eau Claire/Transfer/20190228 - video animination", "scale": 24, "tick_pixels": 100, "version": {"libopenshot": "0.1.8", "openshot-qt": "2.4.0"}}